<svg xmlns="http://www.w3.org/2000/svg" xmlns:osb="http://www.openswatchbook.org/uri/2009/osb" xmlns:svg="http://www.w3.org/2000/svg" id="svg8" width="24.349" height="20.697" version="1.1" viewBox="0 0 24.349 20.697" style="enable-background:new"><defs id="defs2"><linearGradient id="linearGradient2289" osb:paint="solid"><stop style="stop-color:#6e0000;stop-opacity:1" id="stop2287" offset="0"/></linearGradient></defs><metadata id="metadata5"/><g id="layer1" transform="translate(1136.2519,-82.207318)" style="display:inline"><g id="g877" transform="matrix(0.04610001,0,0,0.04610001,-1114.1308,77.270056)" style="fill:#fff"><rect id="rect816" width="39.688" height="79.375" x="-43.288" y="107.099" ry="15.194" style="opacity:1;vector-effect:none;fill:#fff;fill-opacity:1;fill-rule:evenodd;stroke:none;stroke-width:.33097997;stroke-linecap:square;stroke-linejoin:round;stroke-miterlimit:3.9000001;stroke-dasharray:none;stroke-dashoffset:0;stroke-opacity:.55504587;paint-order:stroke fill markers"/><path id="rect850" d="M 133.22656,-214.80859 C 59.41896,-214.80859 0,-155.38963 0,-81.582031 V 0 h 2000 v -81.582031 c 0,-73.807599 -59.419,-133.226559 -133.2266,-133.226559 z M 0,188.15625 v 963.80855 c 0,73.8076 59.41896,133.2266 133.22656,133.2266 H 1866.7734 c 73.8076,0 133.2266,-59.419 133.2266,-133.2266 V 188.15625 Z" transform="matrix(0.26458333,0,0,0.26458333,-479.85032,216.85036)" style="opacity:1;vector-effect:none;fill:#fff;fill-opacity:1;fill-rule:evenodd;stroke:none;stroke-width:.99010497;stroke-linecap:square;stroke-linejoin:round;stroke-miterlimit:3.9000001;stroke-dasharray:none;stroke-dashoffset:0;stroke-opacity:.55504587;paint-order:stroke fill markers"/><rect id="rect816-7" width="39.688" height="79.375" x="-426.934" y="107.099" ry="15.194" style="display:inline;opacity:1;vector-effect:none;fill:#fff;fill-opacity:1;fill-rule:evenodd;stroke:none;stroke-width:.33097997;stroke-linecap:square;stroke-linejoin:round;stroke-miterlimit:3.9000001;stroke-dasharray:none;stroke-dashoffset:0;stroke-opacity:.55504587;paint-order:stroke fill markers;enable-background:new"/></g></g></svg>