<svg xmlns="http://www.w3.org/2000/svg" xmlns:svg="http://www.w3.org/2000/svg" width="21" height="21" enable-background="new 0 0 40 40" version="1.1" viewBox="0 0 21 21" xml:space="preserve"><metadata id="metadata13"/><g id="g4494" transform="matrix(0.87011066,0,0,0.87011066,-0.41325191,-0.45274106)" style="stroke:#fff"><g style="fill:none;fill-opacity:1;stroke:#fff;stroke-width:1.9744947;stroke-miterlimit:4;stroke-dasharray:none;stroke-opacity:.98818898" id="g6" transform="matrix(0.51354912,0,0,0.51354912,2.2393718,3.5951719)"><path style="fill:none;fill-opacity:1;stroke:#fff;stroke-width:1.9744947;stroke-miterlimit:4;stroke-dasharray:none;stroke-opacity:.98818898" id="path2" d="M 25.8,24.5 C 42,30.3 36.8,40 36.8,40 H 2.6 c 0,0 -2.7,-10.9 11.9,-15.5 0,0 5.8,4.9 11.3,0 z"/><path style="fill:none;fill-opacity:1;stroke:#fff;stroke-width:1.9744947;stroke-miterlimit:4;stroke-dasharray:none;stroke-opacity:.98818898" id="path4" d="m 10.3,10.1 c 0,0 0.9,13.5 9.6,13.5 8.7,0 9.7,-12.6 9.7,-12.6 0,0 0.4,-11 -9.7,-11 -10,0 -9.6,10.1 -9.6,10.1 z"/></g><rect id="rect4492" width="23.329" height="23.329" x=".878" y=".923" style="opacity:1;fill:none;fill-opacity:0;stroke:#fff;stroke-width:.80599999;stroke-miterlimit:4;stroke-dasharray:none;stroke-opacity:.98818898"/></g></svg>