<svg xmlns="http://www.w3.org/2000/svg" xmlns:svg="http://www.w3.org/2000/svg" id="Layer_1" width="14" height="14" x="0" y="0" enable-background="new 0 0 10 10" version="1.1" viewBox="0 0 14 14" xml:space="preserve"><metadata id="metadata9"/><path style="fill:#c94f50;stroke-width:.60377628" id="path3" d="M 7.0351562 4.1542969 C 5.327419 4.1542969 4.015625 5.4660911 4.015625 7.1738281 C 4.015625 8.8815653 5.3274191 10.191406 7.0351562 10.191406 C 8.7428933 10.191406 10.097381 8.8681685 10.054688 7.203125 C 10.054688 5.4953879 8.7428934 4.1542969 7.0351562 4.1542969 z M 4.953125 6.453125 L 9.171875 6.453125 L 9.171875 7.9882812 L 4.953125 7.9882812 L 4.953125 7.15625 L 4.953125 6.453125 z"/><path style="color:#000;font-style:normal;font-variant:normal;font-weight:400;font-stretch:normal;font-size:medium;line-height:normal;font-family:sans-serif;font-variant-ligatures:normal;font-variant-position:normal;font-variant-caps:normal;font-variant-numeric:normal;font-variant-alternates:normal;font-feature-settings:normal;text-indent:0;text-align:start;text-decoration:none;text-decoration-line:none;text-decoration-style:solid;text-decoration-color:#000;letter-spacing:normal;word-spacing:normal;text-transform:none;writing-mode:lr-tb;direction:ltr;text-orientation:mixed;dominant-baseline:auto;baseline-shift:baseline;text-anchor:start;white-space:normal;shape-padding:0;clip-rule:nonzero;display:inline;overflow:visible;visibility:visible;opacity:1;isolation:auto;mix-blend-mode:normal;color-interpolation:sRGB;color-interpolation-filters:linearRGB;solid-color:#000;solid-opacity:1;vector-effect:none;fill:#c94f50;fill-opacity:1;fill-rule:nonzero;stroke:none;stroke-width:1.09452569;stroke-linecap:butt;stroke-linejoin:miter;stroke-miterlimit:4;stroke-dasharray:none;stroke-dashoffset:0;stroke-opacity:1;color-rendering:auto;image-rendering:auto;shape-rendering:auto;text-rendering:auto;enable-background:accumulate" id="path4528" d="M 0.60742188 1.7753906 L 0.60742188 1.7773438 L 0.04296875 1.7773438 L 0.0390625 11.949219 L 13.984375 11.949219 L 13.984375 1.7753906 L 0.60742188 1.7753906 z M 1.3808594 2.8691406 L 12.644531 2.8691406 L 9.171875 6.5292969 L 9.171875 7.9882812 L 7.7871094 7.9882812 L 7.6933594 8.0878906 L 6.4296875 8.0878906 L 6.3339844 7.9882812 L 4.953125 7.9882812 L 4.953125 7.15625 L 4.953125 6.5625 L 1.3808594 2.8691406 z M 1.1367188 4.1894531 L 5.9648438 9.1835938 L 8.1640625 9.1835938 L 12.888672 4.2011719 L 12.888672 10.855469 L 1.1347656 10.855469 L 1.1367188 4.1894531 z"/></svg>