<svg xmlns="http://www.w3.org/2000/svg" xmlns:svg="http://www.w3.org/2000/svg" id="svg2" width="12" height="12" version="1.1"><metadata id="metadata7"/><g id="layer1" transform="matrix(1.1423998,0,0,1.1423998,-0.85439881,-2392.0444)"><g id="g6659" style="fill:#999"><path id="rect2985" d="m 0.99206881,2098.1979 c -0.10310776,0 -0.18644079,0.07 -0.18644079,0.1559 l 0,5.9208 c 0,0.087 0.0833323,0.1566 0.18644079,0.1566 l 10.01586219,0 c 0.103108,0 0.186441,-0.07 0.186441,-0.1566 l 0,-5.9208 c 0,-0.087 -0.08334,-0.1559 -0.186441,-0.1559 l -1.8913078,0 0,4.4022 c 0,0.087 -0.083329,0.1567 -0.1864405,0.1567 l -5.8603649,0 c -0.1031078,0 -0.1864408,-0.07 -0.1864408,-0.1567 l 0,-4.4022 -1.8913082,0 z" style="fill:#fff;fill-opacity:1;stroke:none"/></g></g></svg>