<svg xmlns="http://www.w3.org/2000/svg" xmlns:svg="http://www.w3.org/2000/svg" id="svg2" width="12" height="12" version="1.1"><defs id="defs4"><marker id="TriangleOutS" orient="auto" refX="0" refY="0" style="overflow:visible"><path id="path3926" d="m 5.77,0 -8.65,5 0,-10 8.65,5 z" transform="scale(0.2,0.2)" style="fill-rule:evenodd;stroke:#000;stroke-width:1pt"/></marker><marker id="Arrow2Send" orient="auto" refX="0" refY="0" style="overflow:visible"><path id="path3811" d="M 8.7185878,4.0337352 -2.2072895,0.01601326 8.7185884,-4.0017078 c -1.7454984,2.3720609 -1.7354408,5.6174519 -6e-7,8.035443 z" transform="matrix(-0.3,0,0,-0.3,0.69,0)" style="fill-rule:evenodd;stroke-width:.625;stroke-linejoin:round"/></marker><marker id="TriangleInS" orient="auto" refX="0" refY="0" style="overflow:visible"><path id="path3917" d="m 5.77,0 -8.65,5 0,-10 8.65,5 z" transform="scale(-0.2,-0.2)" style="fill-rule:evenodd;stroke:#000;stroke-width:1pt"/></marker><marker id="DiamondSstart" orient="auto" refX="0" refY="0" style="overflow:visible"><path id="path3872" d="M 0,-7.0710768 -7.0710894,0 0,7.0710589 7.0710462,0 0,-7.0710768 z" transform="matrix(0.2,0,0,0.2,1.2,0)" style="fill-rule:evenodd;stroke:#000;stroke-width:1pt"/></marker><marker id="TriangleOutL" orient="auto" refX="0" refY="0" style="overflow:visible"><path id="path3920" d="m 5.77,0 -8.65,5 0,-10 8.65,5 z" transform="scale(0.8,0.8)" style="fill-rule:evenodd;stroke:#000;stroke-width:1pt"/></marker></defs><metadata id="metadata7"/><g id="layer1" transform="matrix(1.1423998,0,0,1.1423998,-0.85439881,-2392.0444)"><g id="g6659" style="fill:#999"><path id="rect2985" d="m 0.99206881,2098.1979 c -0.10310776,0 -0.18644079,0.07 -0.18644079,0.1559 l 0,5.9208 c 0,0.087 0.0833323,0.1566 0.18644079,0.1566 l 10.01586219,0 c 0.103108,0 0.186441,-0.07 0.186441,-0.1566 l 0,-5.9208 c 0,-0.087 -0.08334,-0.1559 -0.186441,-0.1559 l -1.8913078,0 0,4.4022 c 0,0.087 -0.083329,0.1567 -0.1864405,0.1567 l -5.8603649,0 c -0.1031078,0 -0.1864408,-0.07 -0.1864408,-0.1567 l 0,-4.4022 -1.8913082,0 z" style="fill:#fff;fill-opacity:1;stroke:none"/><path id="path2990" d="m 250,902.36218 a 80,80 0 1 1 -160,0 80,80 0 1 1 160,0 z" transform="matrix(0.02146655,0,0,0.02146655,2.3506865,2081.0532)" style="fill:#fff;fill-opacity:1;stroke:none"/><g id="g6651" transform="matrix(1.7576144,0,0,1,-4.6547815,0)" style="fill:#fff;fill-opacity:1;stroke:none"><path id="path4954" d="m 5.5625,2094.9688 0,3.1874 1,0 0,-3.1874 -1,0 z" style="color:#000;font-style:normal;font-variant:normal;font-weight:400;font-stretch:normal;font-size:medium;line-height:normal;font-family:Sans;-inkscape-font-specification:Sans;text-indent:0;text-align:start;text-decoration:none;text-decoration-line:none;letter-spacing:normal;word-spacing:normal;text-transform:none;direction:ltr;block-progression:tb;writing-mode:lr-tb;baseline-shift:baseline;text-anchor:start;display:inline;overflow:visible;visibility:visible;fill:#fff;fill-opacity:1;stroke:none;stroke-width:1;marker:none;enable-background:accumulate"/><path id="path6657" d="m 6.06207,2093.8266 1,1.73 -2,0 1,-1.73 z" style="fill:#fff;fill-opacity:1;fill-rule:evenodd;stroke:none"/></g></g></g></svg>