<svg xmlns="http://www.w3.org/2000/svg" xmlns:svg="http://www.w3.org/2000/svg" id="Layer_1" width="100%" height="100%" version="1.1" viewBox="0 0 16.1 16" xml:space="preserve"><metadata id="metadata19"/><path id="path3" d="m 7.95,0 c -1.9,0 -3.8,1.3 -3.8,3.9 v 1.9 h -1 c -1.1,0 -1.8,0.8 -1.8,1.9 v 6.5 c 0,1.1 0.7,1.9 1.9,1.9 h 9.6 c 1.1,0 1.9,-0.8 1.9,-1.9 V 7.6 c 0,-1.1 -0.8,-1.9 -1.9,-1.9 h -0.9 V 3.8 C 11.85,1.3 9.95,0 7.95,0 Z m 0,1.6 c 1.3,0 2.2,1 2.2,2.2 0.1,1.2 -0.4,2.4 -2.2,3.1 0.3,-0.5 0.4,-0.7 0.5,-1.2 -1.8,0.2 -2.7,-0.8 -2.7,-1.9 0,-1.1 0.9,-2.2 2.2,-2.2 z" style="fill:#252325"/><path id="path3-2" d="m 11.429801,11.258529 c 0,-1.8521744 -1.422038,-3.3069551 -3.2742131,-3.3069551 -1.852174,0 -3.2742129,1.4220386 -3.2742129,3.2742131 0,1.852175 1.4220389,3.274213 3.2742129,3.274213 1.8521751,0 3.3205181,-1.4356 3.2742131,-3.241471 z M 5.863639,10.570944 c 0.5483069,0 4.583899,0 4.583899,0 0,0.387917 0,0.779067 0,1.309686 -0.6073801,0 -3.8291941,0 -4.583899,0 0,-0.350429 -2.3e-6,-0.780936 0,-1.309686 z" style="fill:#c94f50"/></svg>