<svg xmlns="http://www.w3.org/2000/svg" xmlns:svg="http://www.w3.org/2000/svg" id="Layer_1" width="27" height="32" version="1.1" viewBox="0 0 27 32" xml:space="preserve"><metadata id="metadata9"/><path id="path3" d="M 5.0774179,2.9032355 C 2.9746346,4.3950939 1.3168041,6.548619 0.57798838,9.0267615 -0.36459081,12.040868 -0.16637195,15.423795 1.2627444,18.256944 c 1.4623839,2.960234 4.1778437,5.214598 7.2744936,6.326585 2.585162,0.998716 5.460029,1.140995 8.151924,0.504193 -0.321586,2.479524 -1.397235,4.780853 -2.664173,6.912277 3.971308,-2.573456 7.23984,-6.100043 9.904013,-9.983019 1.96001,-2.927081 3.262987,-6.41361 3.099422,-9.971968 C 26.884265,8.9176349 25.349801,5.9408249 23.075136,3.812164 20.611955,1.5122157 17.268571,0.20269558 13.900236,0.11428916 10.752299,-0.00174427 7.6029757,1.0411752 5.0774179,2.9032355 z" style="fill:#fff"/></svg>