<svg xmlns="http://www.w3.org/2000/svg" xmlns:svg="http://www.w3.org/2000/svg" id="svg3815" width="18" height="18" version="1.1"><metadata id="metadata3820"/><g id="layer1" transform="translate(0,-1034.3622)"><path id="mask" d="m 0,1034.3622 0,18 18,0 0,-18 -18,0 z m 3.9500533,11.7834 a 2.2475413,2.148285 0 0 1 2.1829252,2.1482 2.2475416,2.1482852 0 0 1 -4.4950832,0 2.2475413,2.148285 0 0 1 2.312158,-2.1482 z m 5.1159617,0 a 2.2475413,2.148285 0 0 1 2.18293,2.1482 2.2475417,2.1482853 0 0 1 -4.4950834,0 2.2475413,2.148285 0 0 1 2.3121534,-2.1482 z m 5.11597,0 a 2.2475413,2.148285 0 0 1 2.18012,2.1482 2.2475435,2.1482871 0 0 1 -4.495087,0 2.2475413,2.148285 0 0 1 2.314967,-2.1482 z" style="fill:#201f1f;fill-opacity:1;stroke:none"/></g></svg>