<svg xmlns="http://www.w3.org/2000/svg" xmlns:svg="http://www.w3.org/2000/svg" id="svg2" width="256" height="256" version="1.1" viewBox="0 0 256 256"><metadata id="metadata7"/><g id="layer1" transform="translate(-193.78572,-394.00506)"><path style="fill:none;fill-opacity:1;fill-rule:nonzero;stroke:#747474;stroke-width:19.73136902;stroke-linecap:butt;stroke-linejoin:bevel;stroke-miterlimit:4;stroke-dasharray:none;stroke-opacity:1" id="rect3336" d="m 226.80074,469.42866 0,-52.57639 c 0,-6.95732 5.77118,-12.55834 12.93983,-12.55834 l 160.82529,0 c 7.16866,0 12.93983,5.60102 12.93983,12.55834 l 0,210.30558 c 0,6.95732 -5.77117,12.55834 -12.93983,12.55834 l -160.82529,0 c -7.16865,0 -12.93983,-5.60102 -12.93983,-12.55834 l 0,-52.57639"/><g id="g5103" transform="matrix(0.87568441,0,0,0.87568441,36.090589,64.79462)" style="fill:#c84e4e;fill-opacity:1;stroke:#c84e4e;stroke-opacity:1"><path id="rect4803" d="m 259.04041,488.17121 109.39969,0 0,66.07872 -109.39969,0 z" style="fill:#c84e4e;fill-opacity:1;fill-rule:nonzero;stroke:#c84e4e;stroke-width:17.65876579;stroke-linecap:round;stroke-linejoin:miter;stroke-miterlimit:4;stroke-dasharray:none;stroke-opacity:1"/><path id="rect5099" d="m 258.08773,573.0261 -51.81538,-51.81538 51.81538,-51.81538 z" style="fill:#c84e4e;fill-opacity:1;fill-rule:nonzero;stroke:#c84e4e;stroke-width:17.65876579;stroke-linecap:round;stroke-linejoin:miter;stroke-miterlimit:4;stroke-dasharray:none;stroke-opacity:1"/></g></g></svg>