<svg xmlns="http://www.w3.org/2000/svg" xmlns:svg="http://www.w3.org/2000/svg" style="enable-background:new 0 0 47.5 47.5" id="svg2" version="1.1" viewBox="0 0 47.5 47.5" xml:space="preserve"><defs id="defs6"><clipPath id="clipPath18"><path id="path20" d="M 0,38 38,38 38,0 0,0 0,38 z"/></clipPath></defs><g id="g12" transform="matrix(1.25,0,0,-1.25,0,47.5)"><g id="g14"><g id="g16" clip-path="url(#clipPath18)"><g id="g22" transform="translate(33,5)"><path id="path24" d="m 0,0 c 0,-2.209 -1.791,-4 -4,-4 l -20,0 c -2.209,0 -4,1.791 -4,4 l 0,28 c 0,2.209 1.791,4 4,4 l 20,0 c 2.209,0 4,-1.791 4,-4 L 0,0 z" style="fill:#e6e7e8;fill-opacity:1;fill-rule:nonzero;stroke:none"/></g><g id="g26" transform="translate(12,30)"><path id="path28" d="M 0,0 C -2.519,0 -4.583,-1.87 -4.929,-4.293 -4.198,-3.503 -3.161,-3 -2,-3 0.209,-3 2,-4.791 2,-7 2,-9 3.497,-9.198 2.707,-9.929 5.13,-9.583 5,-7.519 5,-5 5,-2.239 2.761,0 0,0" style="fill:#dd2e44;fill-opacity:1;fill-rule:nonzero;stroke:none"/></g><g id="g30" transform="translate(24,23)"><path id="path32" d="M 0,0 C 0,2.209 1.791,4 4,4 5.161,4 6.198,3.497 6.929,2.707 6.583,5.13 4.52,7 2,7 -0.762,7 -3,4.761 -3,2 -3,-0.519 -3.131,-2.583 -0.707,-2.929 -1.497,-2.198 0,-2 0,0" style="fill:#55acee;fill-opacity:1;fill-rule:nonzero;stroke:none"/></g><g id="g34" transform="translate(15,25)"><path id="path36" d="M 0,0 C 0,4.971 4,9 4,9 4,9 8,4.971 8,0 8,-4.971 6.209,-9 4,-9 1.791,-9 0,-4.971 0,0" style="fill:#ffac33;fill-opacity:1;fill-rule:nonzero;stroke:none"/></g><g id="g38" transform="translate(12.7065,15.9287)"><path id="path40" d="m 0,0 c 0.791,-0.73 1.293,-1.768 1.293,-2.929 0,-2.209 -1.791,-4 -4,-4 -1.161,0 -2.198,0.503 -2.928,1.293 0.345,-2.424 2.409,-4.293 4.928,-4.293 2.762,0 5,2.239 5,5 C 4.293,-2.409 2.424,-0.346 0,0" style="fill:#553788;fill-opacity:1;fill-rule:nonzero;stroke:none"/></g><g id="g42" transform="translate(28,9)"><path id="path44" d="m 0,0 c -2.209,0 -4,1.791 -4,4 0,1.161 0.503,2.198 1.293,2.929 C -5.131,6.583 -7,4.52 -7,2 c 0,-2.762 2.238,-5 5,-5 2.52,0 4.583,1.869 4.929,4.293 C 2.198,0.503 1.161,0 0,0" style="fill:#553788;fill-opacity:1;fill-rule:nonzero;stroke:none"/></g><g id="g46" transform="translate(15,13)"><path id="path48" d="M 0,0 C 0,-4.971 3,-9 4,-9 5,-9 8,-4.971 8,0 8,4.971 6.209,9 4,9 1.791,9 0,4.971 0,0" style="fill:#9266cc;fill-opacity:1;fill-rule:nonzero;stroke:none"/></g><g id="g50" transform="translate(14,20)"><path id="path52" d="M 0,0 C 0,3.866 3,4 5,4 7,4 10,3.866 10,0 10,-3.865 7.762,-7 5,-7 2.239,-7 0,-3.865 0,0" style="fill:#edbb9f;fill-opacity:1;fill-rule:nonzero;stroke:none"/></g><g id="g54" transform="translate(18.0005,20)"><path id="path56" d="m 0,0 c 0,-0.552 -0.448,-1 -1,-1 -0.552,0 -1,0.448 -1,1 0,0.552 0.448,1 1,1 0.552,0 1,-0.448 1,-1" style="fill:#662113;fill-opacity:1;fill-rule:nonzero;stroke:none"/></g><g id="g58" transform="translate(22,20)"><path id="path60" d="m 0,0 c 0,-0.552 -0.447,-1 -1,-1 -0.552,0 -1,0.448 -1,1 0,0.552 0.448,1 1,1 0.553,0 1,-0.448 1,-1" style="fill:#662113;fill-opacity:1;fill-rule:nonzero;stroke:none"/></g><g id="g62" transform="translate(19,15)"><path id="path64" d="M 0,0 C 1.104,0 2,0.896 2,2 L -2,2 C -2,0.896 -1.104,0 0,0" style="fill:#662113;fill-opacity:1;fill-rule:nonzero;stroke:none"/></g><g id="g66" transform="translate(8,26)"><path id="path68" d="m 0,0 c 0,-0.552 -0.448,-1 -1,-1 -0.552,0 -1,0.448 -1,1 0,0.552 0.448,1 1,1 0.552,0 1,-0.448 1,-1" style="fill:#a0041e;fill-opacity:1;fill-rule:nonzero;stroke:none"/></g><g id="g70" transform="translate(30,26)"><path id="path72" d="M 0,0 C 0,-0.552 0.447,-1 1,-1 1.553,-1 2,-0.552 2,0 2,0.552 1.553,1 1,1 0.447,1 0,0.552 0,0" style="fill:#269;fill-opacity:1;fill-rule:nonzero;stroke:none"/></g><g id="g74" transform="translate(18,34)"><path id="path76" d="M 0,0 C 0,0.552 0.448,1 1,1 1.552,1 2,0.552 2,0 2,-0.552 1.552,-1 1,-1 0.448,-1 0,-0.552 0,0" style="fill:#dd2e44;fill-opacity:1;fill-rule:nonzero;stroke:none"/></g></g></g></g></svg>