<svg xmlns="http://www.w3.org/2000/svg" xmlns:svg="http://www.w3.org/2000/svg" style="enable-background:new 0 0 47.5 47.5" id="svg2" version="1.1" viewBox="0 0 47.5 47.5" xml:space="preserve"><defs id="defs6"><clipPath id="clipPath18"><path id="path20" d="M 0,38 38,38 38,0 0,0 0,38 z"/></clipPath></defs><g id="g12" transform="matrix(1.25,0,0,-1.25,0,47.5)"><g id="g14"><g id="g16" clip-path="url(#clipPath18)"><g id="g22" transform="translate(37,5)"><path id="path24" d="m 0,0 c 0,-2.209 -1.791,-4 -4,-4 l -28,0 c -2.209,0 -4,1.791 -4,4 l 0,28 c 0,2.209 1.791,4 4,4 l 28,0 c 2.209,0 4,-1.791 4,-4 L 0,0 z" style="fill:#3b88c3;fill-opacity:1;fill-rule:nonzero;stroke:none"/></g><g id="g26" transform="translate(15.7354,25.9185)"><path id="path28" d="m 0,0 c 1.694,0 2.508,-0.924 2.508,-2.685 l 0,-9.571 c 0,-1.76 -0.814,-2.662 -2.508,-2.662 l -12.476,0 c -0.528,0 -0.836,0.374 -0.836,0.946 0,0.594 0.264,0.924 0.858,0.924 l 11.904,0 c 0.858,0 1.078,0.242 1.078,1.034 l 0,9.131 c 0,0.793 -0.22,1.012 -1.078,1.012 l -11.552,0 c -0.572,0 -0.836,0.33 -0.836,0.903 0,0.594 0.264,0.968 0.858,0.968 L 0,0 z" style="fill:#fff;fill-opacity:1;fill-rule:nonzero;stroke:none"/></g><g id="g30" transform="translate(32.5654,25.9185)"><path id="path32" d="m 0,0 c 1.694,0 2.509,-0.924 2.509,-2.685 l 0,-9.571 c 0,-1.76 -0.815,-2.662 -2.509,-2.662 l -12.476,0 c -0.528,0 -0.836,0.374 -0.836,0.946 0,0.594 0.264,0.924 0.858,0.924 l 11.904,0 c 0.859,0 1.078,0.242 1.078,1.034 l 0,9.131 c 0,0.793 -0.219,1.012 -1.078,1.012 l -11.552,0 c -0.572,0 -0.836,0.33 -0.836,0.903 0,0.594 0.264,0.968 0.859,0.968 L 0,0 z" style="fill:#fff;fill-opacity:1;fill-rule:nonzero;stroke:none"/></g></g></g></g></svg>