<svg xmlns="http://www.w3.org/2000/svg" xmlns:svg="http://www.w3.org/2000/svg" style="enable-background:new 0 0 47.5 47.5" id="svg2" version="1.1" viewBox="0 0 47.5 47.5" xml:space="preserve"><defs id="defs6"><clipPath id="clipPath18"><path id="path20" d="M 0,38 38,38 38,0 0,0 0,38 z"/></clipPath></defs><g id="g12" transform="matrix(1.25,0,0,-1.25,0,47.5)"><g id="g14"><g id="g16" clip-path="url(#clipPath18)"><g id="g22" transform="translate(19,37)"><path id="path24" d="m 0,0 0,-36 c 9.941,0 18,8.059 18,18 C 18,-8.059 9.941,0 0,0" style="fill:#ccd6dd;fill-opacity:1;fill-rule:nonzero;stroke:none"/></g><g id="g26" transform="translate(1,19)"><path id="path28" d="m 0,0 c 0,-9.941 8.059,-18 18,-18 l 0,36 C 8.059,18 0,9.941 0,0" style="fill:#66757f;fill-opacity:1;fill-rule:nonzero;stroke:none"/></g><g id="g30" transform="translate(23,28.5)"><path id="path32" d="M 0,0 C 0,-1.933 1.566,-3.5 3.5,-3.5 5.434,-3.5 7,-1.933 7,0 7,1.933 5.434,3.5 3.5,3.5 1.566,3.5 0,1.933 0,0" style="fill:#b8c5cd;fill-opacity:1;fill-rule:nonzero;stroke:none"/></g><g id="g34" transform="translate(10,21)"><path id="path36" d="M 0,0 C 0,-1.657 1.343,-3 3,-3 4.657,-3 6,-1.657 6,0 6,1.657 4.657,3 3,3 1.343,3 0,1.657 0,0" style="fill:#5b6876;fill-opacity:1;fill-rule:nonzero;stroke:none"/></g><g id="g38" transform="translate(11,9.5)"><path id="path40" d="M 0,0 C 0,-1.934 1.566,-3.5 3.5,-3.5 5.434,-3.5 7,-1.934 7,0 7,1.934 5.434,3.5 3.5,3.5 1.566,3.5 0,1.934 0,0" style="fill:#5b6876;fill-opacity:1;fill-rule:nonzero;stroke:none"/></g><g id="g42" transform="translate(14,31)"><path id="path44" d="M 0,0 C 0,-1.104 0.896,-2 2,-2 3.104,-2 4,-1.104 4,0 4,1.104 3.104,2 2,2 0.896,2 0,1.104 0,0" style="fill:#5b6876;fill-opacity:1;fill-rule:nonzero;stroke:none"/></g><g id="g46" transform="translate(35,19)"><path id="path48" d="m 0,0 c 0,-0.553 -0.447,-1 -1,-1 -0.553,0 -1,0.447 -1,1 0,0.552 0.447,1 1,1 0.553,0 1,-0.448 1,-1" style="fill:#b8c5cd;fill-opacity:1;fill-rule:nonzero;stroke:none"/></g><g id="g50" transform="translate(8,28)"><path id="path52" d="m 0,0 c 0,-0.553 -0.447,-1 -1,-1 -0.553,0 -1,0.447 -1,1 0,0.552 0.447,1 1,1 0.553,0 1,-0.448 1,-1" style="fill:#5b6876;fill-opacity:1;fill-rule:nonzero;stroke:none"/></g><g id="g54" transform="translate(23,6)"><path id="path56" d="m 0,0 c 0,-0.553 -0.447,-1 -1,-1 -0.553,0 -1,0.447 -1,1 0,0.553 0.447,1 1,1 0.553,0 1,-0.447 1,-1" style="fill:#b8c5cd;fill-opacity:1;fill-rule:nonzero;stroke:none"/></g><g id="g58" transform="translate(3,18)"><path id="path60" d="M 0,0 C 0,-1.104 0.896,-2 2,-2 3.104,-2 4,-1.104 4,0 4,1.104 3.104,2 2,2 0.896,2 0,1.104 0,0" style="fill:#5b6876;fill-opacity:1;fill-rule:nonzero;stroke:none"/></g><g id="g62" transform="translate(25,14)"><path id="path64" d="M 0,0 C 0,-1.104 0.896,-2 2,-2 3.104,-2 4,-1.104 4,0 4,1.104 3.104,2 2,2 0.896,2 0,1.104 0,0" style="fill:#b8c5cd;fill-opacity:1;fill-rule:nonzero;stroke:none"/></g></g></g></g></svg>