<svg xmlns="http://www.w3.org/2000/svg" xmlns:svg="http://www.w3.org/2000/svg" style="enable-background:new 0 0 47.5 47.5" id="svg2" version="1.1" viewBox="0 0 47.5 47.5" xml:space="preserve"><defs id="defs6"><clipPath id="clipPath18"><path id="path20" d="M 0,38 38,38 38,0 0,0 0,38 z"/></clipPath></defs><g id="g12" transform="matrix(1.25,0,0,-1.25,0,47.5)"><g id="g14"><g id="g16" clip-path="url(#clipPath18)"><g id="g22" transform="translate(37,14)"><path id="path24" d="m 0,0 c 0,-5.522 -8.059,-10 -18,-10 -9.941,0 -18,4.478 -18,10 0,5.522 8.059,10 18,10 C -8.059,10 0,5.522 0,0" style="fill:#939598;fill-opacity:1;fill-rule:nonzero;stroke:none"/></g><g id="g26" transform="translate(37,16)"><path id="path28" d="m 0,0 c 0,-5.522 -8.059,-10 -18,-10 -9.941,0 -18,4.478 -18,10 0,5.522 8.059,10 18,10 C -8.059,10 0,5.522 0,0" style="fill:#f1f2f2;fill-opacity:1;fill-rule:nonzero;stroke:none"/></g><g id="g30" transform="translate(33.7998,16.3887)"><path id="path32" d="m 0,0 c 0,-4.202 -6.626,-7.611 -14.8,-7.611 -8.174,0 -14.8,3.409 -14.8,7.611 0,4.203 6.626,7.611 14.8,7.611 C -6.626,7.611 0,4.203 0,0" style="fill:#f4900c;fill-opacity:1;fill-rule:nonzero;stroke:none"/></g><g id="g34" transform="translate(14,13)"><path id="path36" d="m 0,0 c -3.75,0 -10,2.063 -10,5.5 0,4.125 3.828,8.938 10,8.938 6.172,0 10,-5.5 10,-8.938 C 10,2.063 4.375,0 0,0" style="fill:#eee;fill-opacity:1;fill-rule:nonzero;stroke:none"/></g><g id="g38" transform="translate(5.6401,18.1792)"><path id="path40" d="m 0,0 c -0.345,0.14 -0.511,0.534 -0.37,0.879 0.141,0.344 0.535,0.51 0.879,0.37 L 1.758,0.74 C 2.103,0.6 2.268,0.207 2.128,-0.139 1.987,-0.484 1.594,-0.65 1.249,-0.509 L 0,0 z" style="fill:#ccd6dd;fill-opacity:1;fill-rule:nonzero;stroke:none"/></g><g id="g42" transform="translate(9.3442,21.6123)"><path id="path44" d="m 0,0 c -0.307,-0.211 -0.727,-0.133 -0.937,0.175 -0.21,0.307 -0.132,0.727 0.174,0.937 L 0.351,1.875 C 0.657,2.085 1.077,2.007 1.288,1.7 1.498,1.393 1.419,0.973 1.112,0.762 L 0,0 z" style="fill:#ccd6dd;fill-opacity:1;fill-rule:nonzero;stroke:none"/></g><g id="g46" transform="translate(18.3442,16.6123)"><path id="path48" d="m 0,0 c -0.307,-0.211 -0.727,-0.133 -0.937,0.175 -0.21,0.306 -0.132,0.727 0.174,0.937 L 0.351,1.875 C 0.657,2.085 1.077,2.007 1.288,1.7 1.498,1.393 1.419,0.973 1.112,0.763 L 0,0 z" style="fill:#ccd6dd;fill-opacity:1;fill-rule:nonzero;stroke:none"/></g><g id="g50" transform="translate(12.6963,18.4526)"><path id="path52" d="m 0,0 c -0.512,0.208 -0.758,0.792 -0.549,1.304 0.209,0.51 0.793,0.757 1.304,0.549 L 2.607,1.097 C 3.118,0.889 3.364,0.306 3.156,-0.206 2.948,-0.717 2.364,-0.963 1.853,-0.754 L 0,0 z" style="fill:#ccd6dd;fill-opacity:1;fill-rule:nonzero;stroke:none"/></g><g id="g54" transform="translate(17.6406,22.1792)"><path id="path56" d="m 0,0 c -0.346,0.14 -0.512,0.534 -0.37,0.879 0.14,0.344 0.534,0.51 0.878,0.37 L 1.758,0.74 C 2.102,0.6 2.268,0.207 2.127,-0.139 1.986,-0.483 1.594,-0.649 1.248,-0.509 L 0,0 z" style="fill:#ccd6dd;fill-opacity:1;fill-rule:nonzero;stroke:none"/></g><g id="g58" transform="translate(11.9067,16.418)"><path id="path60" d="M 0,0 C 0.348,0.133 0.738,-0.042 0.871,-0.391 1.002,-0.737 0.827,-1.128 0.479,-1.259 l -1.261,-0.48 c -0.346,-0.133 -0.736,0.042 -0.868,0.39 -0.134,0.349 0.041,0.738 0.39,0.871 L 0,0 z" style="fill:#ccd6dd;fill-opacity:1;fill-rule:nonzero;stroke:none"/></g><g id="g62" transform="translate(31,18)"><path id="path64" d="m 0,0 c 0,-1.104 -0.896,-2 -2,-2 l -1,0 c -1.104,0 -2,0.896 -2,2 0,1.104 0.896,2 2,2 l 1,0 C -0.896,2 0,1.104 0,0" style="fill:#ffd983;fill-opacity:1;fill-rule:nonzero;stroke:none"/></g><g id="g66" transform="translate(28,13.5)"><path id="path68" d="m 0,0 c 0,-0.828 -0.672,-1.5 -1.5,-1.5 l -1,0 c -0.828,0 -1.5,0.672 -1.5,1.5 0,0.828 0.672,1.5 1.5,1.5 l 1,0 C -0.672,1.5 0,0.828 0,0" style="fill:#ffd983;fill-opacity:1;fill-rule:nonzero;stroke:none"/></g><g id="g70" transform="translate(22,11)"><path id="path72" d="m 0,0 c 0,-0.553 -0.447,-1 -1,-1 l -1,0 c -0.553,0 -1,0.447 -1,1 0,0.553 0.447,1 1,1 l 1,0 C -0.447,1 0,0.553 0,0" style="fill:#ffd983;fill-opacity:1;fill-rule:nonzero;stroke:none"/></g></g></g></g></svg>