<svg xmlns="http://www.w3.org/2000/svg" xmlns:svg="http://www.w3.org/2000/svg" style="enable-background:new 0 0 47.5 47.5" id="svg2" version="1.1" viewBox="0 0 47.5 47.5" xml:space="preserve"><defs id="defs6"><clipPath id="clipPath18"><path id="path20" d="M 0,38 38,38 38,0 0,0 0,38 z"/></clipPath><clipPath id="clipPath30"><path id="path32" d="M 17.769,15 4.806,15 c 0,0 2.247,-7.147 5.783,-10.584 l 0,0 c 2.409,-2.34 6.46,-2.521 7.9,-2.521 l 0,0 c 2.88,0 6.55,0.193 8.958,2.535 l 0,0 C 31.645,8.507 33.612,15 33.612,15 l 0,0 -15.843,0 z"/></clipPath><clipPath id="clipPath42"><path id="path44" d="M 0,38 38,38 38,0 0,0 0,38 z"/></clipPath><clipPath id="clipPath58"><path id="path60" d="m 4.856,17.716 c 0.9,-0.332 6.69,-2.382 13.993,-2.382 l 0,0 c 8.222,0 14.249,1.787 15.627,2.778 l 0,0 c 1.38,0.992 1.329,9.591 -4.952,12.905 l 0,0 c -5.363,2.828 -5.513,5.608 -10.624,5.608 l 0,0 c -7.66,0 -21.194,-16.279 -14.044,-18.909"/></clipPath><clipPath id="clipPath70"><path id="path72" d="M 0,38 38,38 38,0 0,0 0,38 z"/></clipPath></defs><g id="g12" transform="matrix(1.25,0,0,-1.25,0,47.5)"><g id="g14"><g id="g16" clip-path="url(#clipPath18)"><g id="g22" transform="translate(17.7686,15)"><path id="path24" d="m 0,0 -12.963,0 c 0,0 2.248,-7.146 5.784,-10.584 2.408,-2.34 6.459,-2.52 7.899,-2.52 2.881,0 6.551,0.192 8.959,2.534 C 13.876,-6.493 15.844,0 15.844,0 L 0,0 z" style="fill:#55acee;fill-opacity:1;fill-rule:nonzero;stroke:none"/></g></g></g><g id="g26"><g id="g28" clip-path="url(#clipPath30)"><g id="g34" transform="translate(33.6123,13.4492)"><path id="path36" d="m 0,0 c 0,-2.32 -4.858,-4.899 -14.403,-4.899 -9.546,0 -14.404,2.579 -14.404,4.899 0,2.319 4.858,4.198 14.404,4.198 C -4.858,4.198 0,2.319 0,0" style="fill:#3b88c3;fill-opacity:1;fill-rule:nonzero;stroke:none"/></g></g></g><g id="g38"><g id="g40" clip-path="url(#clipPath42)"><g id="g46" transform="translate(3,20)"><path id="path48" d="m 0,0 0,-4.453 c 0,-2.318 7.251,-4.198 16,-4.198 8.751,0 16,1.88 16,4.198 L 32,0 0,0 z" style="fill:#55acee;fill-opacity:1;fill-rule:nonzero;stroke:none"/></g><g id="g50" transform="translate(4.8569,17.7168)"><path id="path52" d="m 0,0 c 0.901,-0.331 6.693,-2.383 13.999,-2.383 8.225,0 14.253,1.788 15.633,2.779 1.38,0.993 1.328,9.595 -4.955,12.91 -5.365,2.83 -5.514,5.611 -10.627,5.611 C 6.386,18.917 -7.153,2.631 0,0" style="fill:#f9d2dc;fill-opacity:1;fill-rule:nonzero;stroke:none"/></g></g></g><g id="g54"><g id="g56" clip-path="url(#clipPath58)"><g id="g62" transform="translate(4.4697,26.8892)"><path id="path64" d="m 0,0 c 1.555,0.731 5.467,2.243 8.378,-1.658 2.91,-3.9 9.483,-1.756 12.293,0.975 2.808,2.73 6.52,1.22 10.735,0.196 C 35.621,-1.512 28.598,13.652 19.917,12.677 11.237,11.701 5.569,15.357 2.107,9.556 -1.354,3.754 0,0 0,0" style="fill:#f98097;fill-opacity:1;fill-rule:nonzero;stroke:none"/></g></g></g><g id="g66"><g id="g68" clip-path="url(#clipPath70)"><g id="g74" transform="translate(14,30)"><path id="path76" d="m 0,0 c 0,-0.552 -0.448,-1 -1,-1 -0.552,0 -1,0.448 -1,1 0,0.552 0.448,1 1,1 0.552,0 1,-0.448 1,-1" style="fill:#ea596e;fill-opacity:1;fill-rule:nonzero;stroke:none"/></g><g id="g78" transform="translate(20,27)"><path id="path80" d="m 0,0 c 0,-0.552 -0.447,-1 -1,-1 -0.553,0 -1,0.448 -1,1 0,0.552 0.447,1 1,1 0.553,0 1,-0.448 1,-1" style="fill:#ea596e;fill-opacity:1;fill-rule:nonzero;stroke:none"/></g><g id="g82" transform="translate(24,32)"><path id="path84" d="m 0,0 c 0,-0.552 -0.447,-1 -1,-1 -0.553,0 -1,0.448 -1,1 0,0.552 0.447,1 1,1 0.553,0 1,-0.448 1,-1" style="fill:#ea596e;fill-opacity:1;fill-rule:nonzero;stroke:none"/></g></g></g></g></svg>