<svg xmlns="http://www.w3.org/2000/svg" xmlns:svg="http://www.w3.org/2000/svg" style="enable-background:new 0 0 47.5 47.5" id="svg2" version="1.1" viewBox="0 0 47.5 47.5" xml:space="preserve"><defs id="defs6"><clipPath id="clipPath18"><path id="path20" d="M 0,38 38,38 38,0 0,0 0,38 z"/></clipPath><clipPath id="clipPath30"><path id="path32" d="M 0,38 38,38 38,0 0,0 0,38 z"/></clipPath><clipPath id="clipPath50"><path id="path52" d="M 12,26 C 7,27 4.458,23.17 5,21 l 0,0 c 1,-4 6,-2 7,-1 l 0,0 c 5,-2 9,1 10,3 l 0,0 c 1.612,3.225 -2,5 -4,5 l 0,0 c -3.162,0 -5,-1 -6,-2"/></clipPath><clipPath id="clipPath62"><path id="path64" d="M 0,38 38,38 38,0 0,0 0,38 z"/></clipPath><clipPath id="clipPath74"><path id="path76" d="m 6,21 c -2,-5 8,-8 12,-8 l 0,0 c 4,0 5,1 4,2 l 0,0 c -1.414,1.414 -5,2 -6,3 l 0,0 c -2.737,3.284 -5.316,4.265 -7.176,4.265 l 0,0 C 7.285,22.265 6.238,21.594 6,21"/></clipPath><clipPath id="clipPath86"><path id="path88" d="M 0,38 38,38 38,0 0,0 0,38 z"/></clipPath></defs><g id="g12" transform="matrix(1.25,0,0,-1.25,0,47.5)"><g id="g14"><g id="g16" clip-path="url(#clipPath18)"><g id="g22" transform="translate(14.0371,2.1836)"><path id="path24" d="m 0,0 c -12.243,1.804 -12.037,14.098 -12.037,17.816 l 34,0 C 21.963,15.903 22.05,2.047 8.838,-0.102 6.796,-0.434 2.379,-0.351 0,0" style="fill:#292f33;fill-opacity:1;fill-rule:nonzero;stroke:none"/></g></g></g><g id="g26"><g id="g28" clip-path="url(#clipPath30)"><g id="g34" transform="translate(34.3877,23.7534)"><path id="path36" d="m 0,0 c 2.467,5.574 -8.331,5.254 -11.035,4.382 -1.392,0.161 -2.846,0.253 -4.353,0.253 -9.389,0 -17,-3.228 -17,-8.444 0,-1.009 0.291,-1.979 0.819,-2.891 -4.327,-5.712 4.245,-6.786 9.183,-5.71 2.136,-0.537 4.501,-0.843 6.998,-0.843 9.389,0 17,4.228 17,9.444 C 1.612,-2.379 1.023,-1.105 0,0" style="fill:#66757f;fill-opacity:1;fill-rule:nonzero;stroke:none"/></g><g id="g38" transform="translate(34,19)"><path id="path40" d="m 0,0 c 0,-3.866 -6.716,-7 -15,-7 -8.284,0 -15,3.134 -15,7 0,3.866 6.716,7 15,7 C -6.716,7 0,3.866 0,0" style="fill:#ffcc4d;fill-opacity:1;fill-rule:nonzero;stroke:none"/></g><g id="g42" transform="translate(5,21)"><path id="path44" d="M 0,0 C -0.542,2.169 2,6 7,5 8,6 9.838,7 13,7 15,7 18.612,5.225 17,2 16,0 12,-3 7,-1 6,-2 1,-4 0,0" style="fill:#77b255;fill-opacity:1;fill-rule:nonzero;stroke:none"/></g></g></g><g id="g46"><g id="g48" clip-path="url(#clipPath50)"><g id="g54" transform="translate(20,28)"><path id="path56" d="m 0,0 c 1,-1 0,-7 -7,-8 -7,-1 3,-3 6,-2 3,1 9,5 7,7 -2,2 -6,3 -6,3" style="fill:#5c913b;fill-opacity:1;fill-rule:nonzero;stroke:none"/></g></g></g><g id="g58"><g id="g60" clip-path="url(#clipPath62)"><g id="g66" transform="translate(6,21)"><path id="path68" d="m 0,0 c 0.525,1.313 5,3 10,-3 1,-1 4.586,-1.586 6,-3 1,-1 0,-2 -4,-2 -4,0 -14,3 -12,8" style="fill:#d99e82;fill-opacity:1;fill-rule:nonzero;stroke:none"/></g></g></g><g id="g70"><g id="g72" clip-path="url(#clipPath74)"><g id="g78" transform="translate(7,17)"><path id="path80" d="m 0,0 c 2,-1 11,-3 14,-1 3,2 3,-1 3,-2 0,-1 -3,-5 -8,-3 -5,2 -9,3 -9,4 l 0,2 z" style="fill:#b27962;fill-opacity:1;fill-rule:nonzero;stroke:none"/></g></g></g><g id="g82"><g id="g84" clip-path="url(#clipPath86)"><g id="g90" transform="translate(28,17.999)"><path id="path92" d="m 0,0 c -0.209,0 -0.423,0.034 -0.633,0.104 l -3,1 c -1.048,0.349 -1.614,1.481 -1.264,2.529 0.348,1.048 1.478,1.615 2.53,1.265 l 3,-1 C 1.681,3.549 2.247,2.417 1.897,1.369 1.618,0.53 0.838,0 0,0" style="fill:#ffe8b6;fill-opacity:1;fill-rule:nonzero;stroke:none"/></g><g id="g94" transform="translate(27,15)"><path id="path96" d="m 0,0 -2,0 c -0.553,0 -1,0.447 -1,1 0,0.553 0.447,1 1,1 L 0,2 C 0.553,2 1,1.553 1,1 1,0.447 0.553,0 0,0" style="fill:#ffe8b6;fill-opacity:1;fill-rule:nonzero;stroke:none"/></g></g></g></g></svg>