<svg xmlns="http://www.w3.org/2000/svg" xmlns:svg="http://www.w3.org/2000/svg" style="enable-background:new 0 0 47.5 47.5" id="svg2" version="1.1" viewBox="0 0 47.5 47.5" xml:space="preserve"><defs id="defs6"><clipPath id="clipPath18"><path id="path20" d="M 0,38 38,38 38,0 0,0 0,38 z"/></clipPath><clipPath id="clipPath30"><path id="path32" d="M 4.523,33 C 3.682,33 3,32.318 3,31.477 l 0,0 L 3,9 C 3,8.159 4.159,7 5,7 L 5,7 18.478,7 C 19.318,7 20,7.682 20,8.522 l 0,0 0,22.955 C 20,32.318 19.318,33 18.478,33 l 0,0 -13.955,0 z"/></clipPath><clipPath id="clipPath42"><path id="path44" d="M 0,38 38,38 38,0 0,0 0,38 z"/></clipPath><clipPath id="clipPath70"><path id="path72" d="M 15.522,27 C 14.682,27 14,26.319 14,25.477 l 0,0 0,-22.954 C 14,1.681 14.682,1 15.522,1 l 0,0 13.956,0 C 30.318,1 31,1.681 31,2.523 l 0,0 0,22.954 C 31,26.319 30.318,27 29.478,27 l 0,0 -13.956,0 z"/></clipPath><clipPath id="clipPath82"><path id="path84" d="M 0,38 38,38 38,0 0,0 0,38 z"/></clipPath></defs><g id="g12" transform="matrix(1.25,0,0,-1.25,0,47.5)"><g id="g14"><g id="g16" clip-path="url(#clipPath18)"><g id="g22" transform="translate(20,8.5225)"><path id="path24" d="m 0,0 c 0,-0.841 -0.682,-1.522 -1.522,-1.522 l -13.478,0 c -1,0 -2,0.681 -2,1.855 l 0,22.955 c 0,0.508 0.682,1.19 1.522,1.19 l 13.956,0 C -0.682,24.478 0,23.796 0,22.955 L 0,0 z" style="fill:#ffcc4d;fill-opacity:1;fill-rule:nonzero;stroke:none"/></g></g></g><g id="g26"><g id="g28" clip-path="url(#clipPath30)"><g id="g34" transform="translate(18.5117,30.4316)"><path id="path36" d="m 0,0 c -1.021,0 -1.875,-0.673 -2.168,-1.597 -0.158,0.044 -0.324,0.075 -0.497,0.075 -0.446,0 -0.853,-0.161 -1.177,-0.418 -0.173,1.518 -1.446,2.702 -3.011,2.702 -1.502,0 -2.745,-1.092 -2.993,-2.524 -0.236,0.15 -0.513,0.24 -0.814,0.24 -0.379,0 -0.722,-0.145 -0.989,-0.374 -0.454,1.111 -1.542,1.896 -2.817,1.896 -1.682,0 -3.046,3.807 -3.046,-3.045 0,-1.682 1.364,-3.046 3.046,-3.046 1.275,0 2.363,0.785 2.817,1.897 0.267,-0.23 0.61,-0.374 0.989,-0.374 0.515,0 0.97,0.257 1.245,0.65 0.541,-0.847 1.483,-1.412 2.562,-1.412 0.991,0 1.863,0.481 2.418,1.213 0.278,-0.708 0.963,-1.213 1.77,-1.213 0.723,0 1.343,0.408 1.666,1.001 0.303,-0.149 0.639,-0.239 0.999,-0.239 1.262,0 2.284,1.023 2.284,2.284 C 2.284,1.523 1.262,0 0,0" style="fill:#ffac33;fill-opacity:1;fill-rule:nonzero;stroke:none"/></g></g></g><g id="g38"><g id="g40" clip-path="url(#clipPath42)"><g id="g46" transform="translate(12,10)"><path id="path48" d="m 0,0 c -0.552,0 -1,0.447 -1,1 l 0,11 c 0,0.552 0.448,1 1,1 0.552,0 1,-0.448 1,-1 L 1,1 C 1,0.447 0.552,0 0,0" style="fill:#ffac33;fill-opacity:1;fill-rule:nonzero;stroke:none"/></g><g id="g50" transform="translate(7,10)"><path id="path52" d="m 0,0 c -0.552,0 -1,0.447 -1,1 l 0,11 c 0,0.552 0.448,1 1,1 0.552,0 1,-0.448 1,-1 L 1,1 C 1,0.447 0.552,0 0,0" style="fill:#ffac33;fill-opacity:1;fill-rule:nonzero;stroke:none"/></g><g id="g54" transform="translate(21,32)"><path id="path56" d="m 0,0 c 0,2 -1,3 -3,3 l -14,0 c -2,0 -3,-1 -3,-3 l 0,-1.568 c 0,-0.073 0.012,-0.143 0.021,-0.213 -0.013,-0.387 -0.021,-0.818 -0.021,-1.31 0,-1.682 1.364,-3.045 3.045,-3.045 1.275,0 2.364,0.785 2.818,1.896 0.266,-0.23 0.61,-0.374 0.989,-0.374 0.515,0 0.969,0.258 1.245,0.65 0.541,-0.846 1.483,-1.411 2.562,-1.411 0.99,0 1.862,0.48 2.418,1.213 0.277,-0.709 0.963,-1.213 1.77,-1.213 0.722,0 1.342,0.407 1.666,1 0.302,-0.148 0.638,-0.239 0.999,-0.239 1.261,0 2.488,1.353 2.488,2.614 0,0.235 0.01,-0.196 0,0 0.004,0.039 0,0.392 0,0.432 L 0,0 z" style="fill:#ccd6dd;fill-opacity:1;fill-rule:nonzero;stroke:none"/></g><g id="g58" transform="translate(28,21)"><path id="path60" d="m 0,0 0,-12 4.557,0 c 0,0 1.443,0.204 1.443,1.727 L 6,-2 C 6,-1 6,0 4,0 L 0,0 z M 9,-11.955 C 9,-13.637 7.637,-15 5.954,-15 l -5.908,0 C -1.637,-15 -3,-13.637 -3,-11.955 l 0,11.91 C -3,1.637 -1.637,3 0.046,3 L 5.954,3 C 7.637,3 9,1.637 9,-0.045 l 0,-11.91 z" style="fill:#ffac33;fill-opacity:1;fill-rule:nonzero;stroke:none"/></g><g id="g62" transform="translate(31,3)"><path id="path64" d="m 0,0 c 0,-1 -1,-2 -2,-2 l -13,0 c -1,0 -2,1 -2,2 l 0,22.478 c 0,0.84 0.682,1.522 1.522,1.522 l 13.956,0 C -0.682,24 0,23.318 0,22.478 L 0,0 z" style="fill:#ffcc4d;fill-opacity:1;fill-rule:nonzero;stroke:none"/></g></g></g><g id="g66"><g id="g68" clip-path="url(#clipPath70)"><g id="g74" transform="translate(29.5117,24.4316)"><path id="path76" d="m 0,0 c -1.021,0 -1.875,-0.673 -2.168,-1.597 -0.158,0.044 -0.324,0.075 -0.497,0.075 -0.446,0 -0.853,-0.161 -1.177,-0.418 -0.173,1.518 -1.446,2.702 -3.011,2.702 -1.502,0 -2.745,-1.092 -2.993,-2.524 -0.236,0.15 -0.513,0.24 -0.814,0.24 -0.379,0 -0.722,-0.145 -0.989,-0.374 -0.454,1.111 -1.542,1.896 -2.817,1.896 -1.682,0 -3.046,3.807 -3.046,-3.045 0,-1.682 1.364,-3.046 3.046,-3.046 1.275,0 2.363,0.785 2.817,1.897 0.267,-0.23 0.61,-0.374 0.989,-0.374 0.515,0 0.97,0.257 1.245,0.65 0.541,-0.847 1.483,-1.412 2.562,-1.412 0.991,0 1.863,0.481 2.418,1.213 0.278,-0.708 0.963,-1.213 1.77,-1.213 0.723,0 1.343,0.408 1.666,1.001 0.303,-0.149 0.639,-0.239 0.999,-0.239 1.262,0 2.284,1.023 2.284,2.284 C 2.284,1.523 1.262,0 0,0" style="fill:#ffac33;fill-opacity:1;fill-rule:nonzero;stroke:none"/></g></g></g><g id="g78"><g id="g80" clip-path="url(#clipPath82)"><g id="g86" transform="translate(32,26)"><path id="path88" d="m 0,0 c 0,2 -1,3 -3,3 l -14,0 c -2,0 -3,-1 -3,-3 l 0,-1.568 c 0,-0.073 0.012,-0.143 0.021,-0.213 -0.013,-0.387 -0.021,-0.818 -0.021,-1.31 0,-1.682 1.364,-3.045 3.045,-3.045 1.275,0 2.364,0.785 2.818,1.896 0.266,-0.23 0.61,-0.374 0.989,-0.374 0.515,0 0.969,0.258 1.245,0.65 0.541,-0.846 1.483,-1.411 2.562,-1.411 0.99,0 1.862,0.48 2.418,1.213 0.277,-0.709 0.963,-1.213 1.77,-1.213 0.722,0 1.342,0.407 1.666,1 0.302,-0.148 0.638,-0.239 0.999,-0.239 1.261,0 2.488,1.353 2.488,2.614 0,0.235 0.01,-0.196 0,0 0.004,0.039 0,0.392 0,0.432 L 0,0 z" style="fill:#e1e8ed;fill-opacity:1;fill-rule:nonzero;stroke:none"/></g><g id="g90" transform="translate(17,4)"><path id="path92" d="m 0,0 c -0.552,0 -1,0.447 -1,1 l 0,11 c 0,0.553 0.448,1 1,1 0.552,0 1,-0.447 1,-1 L 1,1 C 1,0.447 0.552,0 0,0" style="fill:#ffac33;fill-opacity:1;fill-rule:nonzero;stroke:none"/></g><g id="g94" transform="translate(27,4)"><path id="path96" d="m 0,0 c -0.553,0 -1,0.447 -1,1 l 0,11 c 0,0.553 0.447,1 1,1 0.553,0 1,-0.447 1,-1 L 1,1 C 1,0.447 0.553,0 0,0" style="fill:#ffac33;fill-opacity:1;fill-rule:nonzero;stroke:none"/></g><g id="g98" transform="translate(22,4)"><path id="path100" d="m 0,0 c -0.553,0 -1,0.447 -1,1 l 0,11 c 0,0.553 0.447,1 1,1 0.553,0 1,-0.447 1,-1 L 1,1 C 1,0.447 0.553,0 0,0" style="fill:#ffac33;fill-opacity:1;fill-rule:nonzero;stroke:none"/></g><g id="g102" transform="translate(23,31)"><path id="path104" d="m 0,0 c -0.553,0 -1,0.448 -1,1 l 0,3 C -1,4.552 -0.553,5 0,5 0.553,5 1,4.552 1,4 L 1,1 C 1,0.448 0.553,0 0,0" style="fill:#f4900c;fill-opacity:1;fill-rule:nonzero;stroke:none"/></g><g id="g106" transform="translate(26,30)"><path id="path108" d="m 0,0 c -0.256,0 -0.512,0.098 -0.707,0.293 -0.391,0.391 -0.391,1.023 0,1.414 l 4,4 c 0.391,0.391 1.023,0.391 1.414,0 0.391,-0.391 0.391,-1.023 0,-1.414 l -4,-4 C 0.512,0.098 0.256,0 0,0" style="fill:#f4900c;fill-opacity:1;fill-rule:nonzero;stroke:none"/></g></g></g></g></svg>