<svg xmlns="http://www.w3.org/2000/svg" xmlns:svg="http://www.w3.org/2000/svg" style="enable-background:new 0 0 47.5 47.5" id="svg2" version="1.1" viewBox="0 0 47.5 47.5" xml:space="preserve"><defs id="defs6"><clipPath id="clipPath18"><path id="path20" d="M 0,38 38,38 38,0 0,0 0,38 z"/></clipPath><clipPath id="clipPath30"><path id="path32" d="m 25,18 c -2.209,0 -4,-5.791 -4,-8 l 0,0 0,-5 c 0,-2.209 1.791,-3 4,-3 l 0,0 7,0 c 2.209,0 4,0.791 4,3 l 0,0 0,5 c 0,2.209 -1.791,8 -4,8 l 0,0 -7,0 z"/></clipPath><clipPath id="clipPath42"><path id="path44" d="M 0,38 38,38 38,0 0,0 0,38 z"/></clipPath><clipPath id="clipPath98"><path id="path100" d="M 6,18 C 3.791,18 2,12.209 2,10 L 2,10 2,5 C 2,2.791 3.791,2 6,2 l 0,0 7,0 c 2.209,0 4,0.791 4,3 l 0,0 0,5 c 0,2.209 -1.791,8 -4,8 l 0,0 -7,0 z"/></clipPath><clipPath id="clipPath110"><path id="path112" d="M 0,38 38,38 38,0 0,0 0,38 z"/></clipPath></defs><g id="g12" transform="matrix(1.25,0,0,-1.25,0,47.5)"><g id="g14"><g id="g16" clip-path="url(#clipPath18)"><g id="g22" transform="translate(36,5)"><path id="path24" d="m 0,0 c 0,-2.209 -1.791,-3 -4,-3 l -7,0 c -2.209,0 -4,0.791 -4,3 l 0,5 c 0,2.209 1.791,8 4,8 l 7,0 C -1.791,13 0,7.209 0,5 L 0,0 z" style="fill:#aa8dd8;fill-opacity:1;fill-rule:nonzero;stroke:none"/></g></g></g><g id="g26"><g id="g28" clip-path="url(#clipPath30)"><g id="g34" transform="translate(29,8)"><path id="path36" d="M 0,0 0,4 C 3,5 3,7 3,9 L 0,9 -1,9 -4,9 c 0,-2 0,-4 3,-5 l 0,-4 c 0,-1 -1,-3 -3,-3 0,-11.851 2.149,-7.223 3.416,-5.521 C 0.648,-10.983 3,-20.709 3,-3 1,-3 0,-1 0,0" style="fill:#744eaa;fill-opacity:1;fill-rule:nonzero;stroke:none"/></g></g></g><g id="g38"><g id="g40" clip-path="url(#clipPath42)"><g id="g46" transform="translate(37,25)"><path id="path48" d="m 0,0 0,-6 c 0,-3 -6.595,0 -8.5,0 -2.1,0 -8.5,-3 -8.5,0 l 0,6 c 0,4.418 3.806,8 8.5,8 C -3.806,8 0,4.418 0,0" style="fill:#292f33;fill-opacity:1;fill-rule:nonzero;stroke:none"/></g><g id="g50" transform="translate(35,22)"><path id="path52" d="M 0,0 C 0,-3 -1,-7 -6.5,-7 -12,-7 -13,-4 -13,0 l 6,0 7,0 z" style="fill:#e1e8ed;fill-opacity:1;fill-rule:nonzero;stroke:none"/></g><g id="g54" transform="translate(30,17.5)"><path id="path56" d="M 0,0 C 0,-0.276 -0.672,-0.5 -1.5,-0.5 -2.328,-0.5 -3,-0.276 -3,0 -3,0.276 -2.328,0.5 -1.5,0.5 -0.672,0.5 0,0.276 0,0" style="fill:#a0041e;fill-opacity:1;fill-rule:nonzero;stroke:none"/></g><g id="g58" transform="translate(23.1338,20.6387)"><path id="path60" d="M 0,0 C 0.905,0.146 2.457,0.47 3.318,-0.318 3.677,-0.579 3.417,-1.321 2.747,-1.002 2.077,-0.684 0.562,-0.599 -0.044,-0.565 -0.649,-0.531 -0.659,-0.106 0,0" style="fill:#292f33;fill-opacity:1;fill-rule:nonzero;stroke:none"/></g><g id="g62" transform="translate(34.1172,20.6387)"><path id="path64" d="m 0,0 c -0.906,0.146 -2.457,0.47 -3.318,-0.318 -0.358,-0.261 -0.098,-1.003 0.572,-0.684 0.669,0.318 2.184,0.403 2.789,0.437 C 0.649,-0.531 0.659,-0.106 0,0" style="fill:#292f33;fill-opacity:1;fill-rule:nonzero;stroke:none"/></g><g id="g66" transform="translate(33,33)"><path id="path68" d="M 0,0 C 0,-1.657 -2.015,-3 -4.5,-3 -6.985,-3 -9,-1.657 -9,0 -9,1.657 -6.985,3 -4.5,3 -2.015,3 0,1.657 0,0" style="fill:#292f33;fill-opacity:1;fill-rule:nonzero;stroke:none"/></g><g id="g70" transform="translate(31.7051,32.9487)"><path id="path72" d="M 0,0 -2.965,-2.015 -6.16,0 c -1.824,1.231 -3.545,0.438 -3.545,-1.762 l 0,-0.291 c 0,-2.2 1.766,-3.063 3.644,-1.919 0,0 1.872,1.018 3.103,1.661 1.204,-0.643 2.858,-1.661 2.858,-1.661 1.879,-1.144 3.395,-0.281 3.395,1.919 l 0,0.291 C 3.295,0.438 1.824,1.231 0,0" style="fill:#aa8dd8;fill-opacity:1;fill-rule:nonzero;stroke:none"/></g><g id="g74" transform="translate(24,7)"><path id="path76" d="m 0,0 c 0,-0.553 -0.447,-1 -1,-1 -0.553,0 -1,0.447 -1,1 0,0.553 0.447,1 1,1 0.553,0 1,-0.447 1,-1" style="fill:#cbb7ea;fill-opacity:1;fill-rule:nonzero;stroke:none"/></g><g id="g78" transform="translate(27,11)"><path id="path80" d="m 0,0 c 0,-0.553 -0.447,-1 -1,-1 -0.553,0 -1,0.447 -1,1 0,0.553 0.447,1 1,1 0.553,0 1,-0.447 1,-1" style="fill:#cbb7ea;fill-opacity:1;fill-rule:nonzero;stroke:none"/></g><g id="g82" transform="translate(33,8)"><path id="path84" d="m 0,0 c 0,-0.553 -0.447,-1 -1,-1 -0.553,0 -1,0.447 -1,1 0,0.553 0.447,1 1,1 0.553,0 1,-0.447 1,-1" style="fill:#cbb7ea;fill-opacity:1;fill-rule:nonzero;stroke:none"/></g><g id="g86" transform="translate(34,12)"><path id="path88" d="m 0,0 c 0,-0.553 -0.447,-1 -1,-1 -0.553,0 -1,0.447 -1,1 0,0.553 0.447,1 1,1 0.553,0 1,-0.447 1,-1" style="fill:#cbb7ea;fill-opacity:1;fill-rule:nonzero;stroke:none"/></g><g id="g90" transform="translate(17,5)"><path id="path92" d="m 0,0 c 0,-2.209 -1.791,-3 -4,-3 l -7,0 c -2.209,0 -4,0.791 -4,3 l 0,5 c 0,2.209 1.791,8 4,8 l 7,0 C -1.791,13 0,7.209 0,5 L 0,0 z" style="fill:#dd2e44;fill-opacity:1;fill-rule:nonzero;stroke:none"/></g></g></g><g id="g94"><g id="g96" clip-path="url(#clipPath98)"><g id="g102" transform="translate(10,8)"><path id="path104" d="M 0,0 0,4 C 3,5 3,7 3,9 L 0,9 -1,9 -4,9 c 0,-2 0,-4 3,-5 l 0,-4 c 0,-1 -1,-3 -3,-3 0,-11.851 2.149,-7.223 3.416,-5.521 C 0.649,-10.983 3,-20.709 3,-3 1,-3 0,-1 0,0" style="fill:#a0041e;fill-opacity:1;fill-rule:nonzero;stroke:none"/></g></g></g><g id="g106"><g id="g108" clip-path="url(#clipPath110)"><g id="g114" transform="translate(18,25)"><path id="path116" d="m 0,0 0,-8 c 0,-3 -1.999,2 -8.499,2 -6.5,0 -8.501,-5 -8.501,-2 0,3.096 0.002,5.558 0.002,8 0,4.418 3.805,8 8.499,8 C -3.805,8 0,4.418 0,0" style="fill:#292f33;fill-opacity:1;fill-rule:nonzero;stroke:none"/></g><g id="g118" transform="translate(16,22)"><path id="path120" d="M 0,0 C 0,-3 -1,-7 -6.5,-7 -12,-7 -13,-4 -13,0 l 6,0 7,0 z" style="fill:#e1e8ed;fill-opacity:1;fill-rule:nonzero;stroke:none"/></g><g id="g122" transform="translate(12,33.5)"><path id="path124" d="M 0,0 C 0,-1.933 -1.119,-3.5 -2.5,-3.5 -3.88,-3.5 -5,-1.933 -5,0 -5,1.933 -3.88,3.5 -2.5,3.5 -1.119,3.5 0,1.933 0,0" style="fill:#292f33;fill-opacity:1;fill-rule:nonzero;stroke:none"/></g><g id="g126" transform="translate(11,17.5)"><path id="path128" d="M 0,0 C 0,-0.276 -0.671,-0.5 -1.5,-0.5 -2.329,-0.5 -3,-0.276 -3,0 -3,0.276 -2.329,0.5 -1.5,0.5 -0.671,0.5 0,0.276 0,0" style="fill:#a0041e;fill-opacity:1;fill-rule:nonzero;stroke:none"/></g><g id="g130" transform="translate(6,12)"><path id="path132" d="m 0,0 c 0,-0.553 -0.448,-1 -1,-1 -0.552,0 -1,0.447 -1,1 0,0.553 0.448,1 1,1 0.552,0 1,-0.447 1,-1" style="fill:#f4abba;fill-opacity:1;fill-rule:nonzero;stroke:none"/></g><g id="g134" transform="translate(16,7)"><path id="path136" d="m 0,0 c 0,-0.553 -0.448,-1 -1,-1 -0.552,0 -1,0.447 -1,1 0,0.553 0.448,1 1,1 0.552,0 1,-0.447 1,-1" style="fill:#f4abba;fill-opacity:1;fill-rule:nonzero;stroke:none"/></g><g id="g138" transform="translate(13,11)"><path id="path140" d="m 0,0 c 0,-0.553 -0.448,-1 -1,-1 -0.552,0 -1,0.447 -1,1 0,0.553 0.448,1 1,1 0.552,0 1,-0.447 1,-1" style="fill:#f4abba;fill-opacity:1;fill-rule:nonzero;stroke:none"/></g><g id="g142" transform="translate(8,8)"><path id="path144" d="m 0,0 c 0,-0.553 -0.448,-1 -1,-1 -0.552,0 -1,0.447 -1,1 0,0.553 0.448,1 1,1 0.552,0 1,-0.447 1,-1" style="fill:#f4abba;fill-opacity:1;fill-rule:nonzero;stroke:none"/></g><g id="g146" transform="translate(4.1338,20.6387)"><path id="path148" d="M 0,0 C 0.906,0.146 2.457,0.47 3.318,-0.318 3.676,-0.579 3.417,-1.321 2.747,-1.002 2.077,-0.684 0.562,-0.599 -0.043,-0.565 -0.649,-0.531 -0.659,-0.106 0,0" style="fill:#292f33;fill-opacity:1;fill-rule:nonzero;stroke:none"/></g><g id="g150" transform="translate(15.1172,20.6387)"><path id="path152" d="m 0,0 c -0.906,0.146 -2.457,0.47 -3.318,-0.318 -0.358,-0.261 -0.099,-1.003 0.571,-0.684 0.67,0.318 2.185,0.403 2.79,0.437 C 0.649,-0.531 0.659,-0.106 0,0" style="fill:#292f33;fill-opacity:1;fill-rule:nonzero;stroke:none"/></g></g></g></g></svg>