<svg xmlns="http://www.w3.org/2000/svg" xmlns:svg="http://www.w3.org/2000/svg" style="enable-background:new 0 0 47.5 47.5" id="svg2" version="1.1" viewBox="0 0 47.5 47.5" xml:space="preserve"><defs id="defs6"><clipPath id="clipPath20"><path id="path22" d="M 0,38 38,38 38,0 0,0 0,38 z"/></clipPath><clipPath id="clipPath52"><path id="path54" d="M 11,16 C 8.791,16 8,14.209 8,12 L 8,12 8,8 C 8,5.791 8.791,4 11,4 l 0,0 25,0 c 2.209,0 -4,3.791 -4,6 l 0,0 c 0,2.209 6.209,6 4,6 l 0,0 -25,0 z"/></clipPath><clipPath id="clipPath64"><path id="path66" d="M 0,38 38,38 38,0 0,0 0,38 z"/></clipPath><clipPath id="clipPath92"><path id="path94" d="M 11,32 C 8.791,32 8,30.209 8,28 l 0,0 0,-4 c 0,-2.209 0.791,-4 3,-4 l 0,0 25,0 c 2.209,0 -4,3.791 -4,6 l 0,0 c 0,2.209 6.209,6 4,6 l 0,0 -25,0 z"/></clipPath></defs><g id="g12" transform="matrix(1.25,0,0,-1.25,0,47.5)"><path id="path14" d="M 6,1 4,1 4,34 6,34 6,1 z" style="fill:#ccd6dd;fill-opacity:1;fill-rule:nonzero;stroke:none"/><g id="g16"><g id="g18" clip-path="url(#clipPath20)"><g id="g24" transform="translate(8,34)"><path id="path26" d="m 0,0 c 0,-1.657 -1.343,-3 -3,-3 -1.657,0 -3,1.343 -3,3 0,1.657 1.343,3 3,3 1.657,0 3,-1.343 3,-3" style="fill:#f4900c;fill-opacity:1;fill-rule:nonzero;stroke:none"/></g><g id="g28" transform="translate(10,9)"><path id="path30" d="m 0,0 -5,0 c -0.552,0 -1,0.447 -1,1 0,0.553 0.448,1 1,1 L 0,2 C 0.552,2 1,1.553 1,1 1,0.447 0.552,0 0,0" style="fill:#66757f;fill-opacity:1;fill-rule:nonzero;stroke:none"/></g><g id="g32" transform="translate(28,15)"><path id="path34" d="m 0,0 c 0,-1.656 -2.463,-3 -5.5,-3 -3.038,0 -5.5,1.344 -5.5,3 0,1.656 0.462,4 3.5,4 C -4.463,4 0,1.656 0,0" style="fill:#dd2e44;fill-opacity:1;fill-rule:nonzero;stroke:none"/></g><g id="g36" transform="translate(32,10)"><path id="path38" d="m 0,0 c 0,-2.209 6.209,-6 4,-6 l -25,0 c -2.209,0 -3,1.791 -3,4 l 0,4 c 0,2.209 0.791,4 3,4 L 4,6 C 6.209,6 0,2.209 0,0" style="fill:#dd2e44;fill-opacity:1;fill-rule:nonzero;stroke:none"/></g><g id="g40" transform="translate(16,12)"><path id="path42" d="m 0,0 c 0,-1.656 -1.343,-3 -3,-3 -1.657,0 -3,1.344 -3,3 0,1.656 1.343,3 3,3 1.657,0 3,-1.344 3,-3" style="fill:#fff;fill-opacity:1;fill-rule:nonzero;stroke:none"/></g><g id="g44" transform="translate(14,12.5)"><path id="path46" d="M 0,0 C 0,-0.828 -0.671,-1.5 -1.5,-1.5 -2.329,-1.5 -3,-0.828 -3,0 -3,0.828 -2.329,1.5 -1.5,1.5 -0.671,1.5 0,0.828 0,0" style="fill:#000;fill-opacity:1;fill-rule:nonzero;stroke:none"/></g></g></g><g id="g48"><g id="g50" clip-path="url(#clipPath52)"><g id="g56" transform="translate(16,17)"><path id="path58" d="m 0,0 c 2,-2 7,-7 0,-14 4,-1 10,-1.458 16,-1 6,0.458 6,4.75 6,7.209 C 22,-5.334 28,0 21,1 14,2 0,0 0,0" style="fill:#f4abba;fill-opacity:1;fill-rule:nonzero;stroke:none"/></g></g></g><g id="g60"><g id="g62" clip-path="url(#clipPath64)"><g id="g68" transform="translate(10,25)"><path id="path70" d="m 0,0 -5,0 c -0.552,0 -1,0.448 -1,1 0,0.552 0.448,1 1,1 L 0,2 C 0.552,2 1,1.552 1,1 1,0.448 0.552,0 0,0" style="fill:#66757f;fill-opacity:1;fill-rule:nonzero;stroke:none"/></g><g id="g72" transform="translate(28,31)"><path id="path74" d="m 0,0 c 0,-1.657 -2.463,-3 -5.5,-3 -3.038,0 -5.5,1.343 -5.5,3 0,1.657 0.462,4 3.5,4 C -4.463,4 0,1.657 0,0" style="fill:#55acee;fill-opacity:1;fill-rule:nonzero;stroke:none"/></g><g id="g76" transform="translate(32,26)"><path id="path78" d="m 0,0 c 0,-2.209 6.209,-6 4,-6 l -25,0 c -2.209,0 -3,1.791 -3,4 l 0,4 c 0,2.209 0.791,4 3,4 L 4,6 C 6.209,6 0,2.209 0,0" style="fill:#55acee;fill-opacity:1;fill-rule:nonzero;stroke:none"/></g><g id="g80" transform="translate(16,28)"><path id="path82" d="m 0,0 c 0,-1.657 -1.343,-3 -3,-3 -1.657,0 -3,1.343 -3,3 0,1.657 1.343,3 3,3 1.657,0 3,-1.343 3,-3" style="fill:#fff;fill-opacity:1;fill-rule:nonzero;stroke:none"/></g><g id="g84" transform="translate(14,28.5)"><path id="path86" d="M 0,0 C 0,-0.829 -0.671,-1.5 -1.5,-1.5 -2.329,-1.5 -3,-0.829 -3,0 -3,0.829 -2.329,1.5 -1.5,1.5 -0.671,1.5 0,0.829 0,0" style="fill:#000;fill-opacity:1;fill-rule:nonzero;stroke:none"/></g></g></g><g id="g88"><g id="g90" clip-path="url(#clipPath92)"><g id="g96" transform="translate(16,33)"><path id="path98" d="m 0,0 c 2,-2 7,-7 0,-14 4,-1 10,-1.458 16,-1 6,0.458 6,4.75 6,7.208 C 22,-5.333 28,0 21,1 14,2 0,0 0,0" style="fill:#bbddf5;fill-opacity:1;fill-rule:nonzero;stroke:none"/></g></g></g></g></svg>