<svg xmlns="http://www.w3.org/2000/svg" xmlns:svg="http://www.w3.org/2000/svg" style="enable-background:new 0 0 47.5 47.5" id="svg2" version="1.1" viewBox="0 0 47.5 47.5" xml:space="preserve"><defs id="defs6"><clipPath id="clipPath18"><path id="path20" d="M 0,38 38,38 38,0 0,0 0,38 z"/></clipPath></defs><g id="g12" transform="matrix(1.25,0,0,-1.25,0,47.5)"><g id="g14"><g id="g16" clip-path="url(#clipPath18)"><g id="g22" transform="translate(37,12)"><path id="path24" d="m 0,0 c 0,-5.522 -8.059,-10 -18,-10 -9.941,0 -18,4.478 -18,10 0,5.522 8.059,10 18,10 C -8.059,10 0,5.522 0,0" style="fill:#939598;fill-opacity:1;fill-rule:nonzero;stroke:none"/></g><g id="g26" transform="translate(37,14)"><path id="path28" d="m 0,0 c 0,-5.522 -8.059,-10 -18,-10 -9.941,0 -18,4.478 -18,10 0,5.522 8.059,10 18,10 C -8.059,10 0,5.522 0,0" style="fill:#f1f2f2;fill-opacity:1;fill-rule:nonzero;stroke:none"/></g><g id="g30" transform="translate(33.7998,15)"><path id="path32" d="m 0,0 c 0,-4.54 -6.626,-8.223 -14.8,-8.223 -8.174,0 -14.8,3.683 -14.8,8.223 0,4.541 6.626,8.222 14.8,8.222 C -6.626,8.222 0,4.541 0,0" style="fill:#ccd6dd;fill-opacity:1;fill-rule:nonzero;stroke:none"/></g><g id="g34" transform="translate(30,15)"><path id="path36" d="m 0,0 c 0,-3.068 -4.926,-5.556 -11,-5.556 -6.075,0 -11,2.488 -11,5.556 0,3.068 4.925,5.556 11,5.556 C -4.926,5.556 0,3.068 0,0" style="fill:#8a4b38;fill-opacity:1;fill-rule:nonzero;stroke:none"/></g><g id="g38" transform="translate(32.4033,14.957)"><path id="path40" d="m 0,0 c 0,-3.891 -6.001,-7.044 -13.403,-7.044 -7.403,0 -13.404,3.153 -13.404,7.044 0,3.889 6.001,7.043 13.404,7.043 C -6.001,7.043 0,3.889 0,0" style="fill:#ad5540;fill-opacity:1;fill-rule:nonzero;stroke:none"/></g><g id="g42" transform="translate(32,16)"><path id="path44" d="M 0,0 C 0,-9 -26,-9 -26,0 L -26,8 0,8 0,0 z" style="fill:#662113;fill-opacity:1;fill-rule:nonzero;stroke:none"/></g><g id="g46" transform="translate(32.4033,24.9565)"><path id="path48" d="m 0,0 c 0,-3.89 -6.001,-7.043 -13.403,-7.043 -7.403,0 -13.404,3.153 -13.404,7.043 0,3.89 6.001,7.043 13.404,7.043 C -6.001,7.043 0,3.89 0,0" style="fill:#ad5540;fill-opacity:1;fill-rule:nonzero;stroke:none"/></g><g id="g50" transform="translate(12,24)"><path id="path52" d="m 0,0 c -0.552,0 -1,0.448 -1,1 l 0,7 C -1,8.552 -0.552,9 0,9 0.552,9 1,8.552 1,8 L 1,1 C 1,0.448 0.552,0 0,0" style="fill:#88c9f9;fill-opacity:1;fill-rule:nonzero;stroke:none"/></g><g id="g54" transform="translate(19,21)"><path id="path56" d="m 0,0 c -0.552,0 -1,0.448 -1,1 l 0,7 C -1,8.552 -0.552,9 0,9 0.552,9 1,8.552 1,8 L 1,1 C 1,0.448 0.552,0 0,0" style="fill:#88c9f9;fill-opacity:1;fill-rule:nonzero;stroke:none"/></g><g id="g58" transform="translate(26,24)"><path id="path60" d="m 0,0 c -0.553,0 -1,0.448 -1,1 l 0,7 C -1,8.552 -0.553,9 0,9 0.553,9 1,8.552 1,8 L 1,1 C 1,0.448 0.553,0 0,0" style="fill:#88c9f9;fill-opacity:1;fill-rule:nonzero;stroke:none"/></g><g id="g62" transform="translate(26,30.5)"><path id="path64" d="m 0,0 c -1.062,0 -1.896,0.486 -2.233,1.299 -0.292,0.706 -0.438,2.238 1.879,4.555 0.196,0.195 0.512,0.195 0.708,0 C 2.671,3.537 2.525,2.005 2.233,1.299 1.896,0.486 1.062,0 0,0" style="fill:#ffac33;fill-opacity:1;fill-rule:nonzero;stroke:none"/></g><g id="g66" transform="translate(19,27.5)"><path id="path68" d="m 0,0 c -1.062,0 -1.896,0.486 -2.233,1.299 -0.293,0.706 -0.437,2.238 1.879,4.555 0.196,0.195 0.512,0.195 0.708,0 C 2.671,3.537 2.525,2.005 2.233,1.299 1.896,0.486 1.062,0 0,0" style="fill:#ffac33;fill-opacity:1;fill-rule:nonzero;stroke:none"/></g><g id="g70" transform="translate(12,30.5)"><path id="path72" d="m 0,0 c -1.062,0 -1.896,0.486 -2.233,1.299 -0.293,0.706 -0.437,2.238 1.879,4.555 0.196,0.195 0.512,0.195 0.708,0 C 2.67,3.537 2.526,2.005 2.233,1.299 1.896,0.486 1.062,0 0,0" style="fill:#ffac33;fill-opacity:1;fill-rule:nonzero;stroke:none"/></g></g></g></g></svg>