<svg xmlns="http://www.w3.org/2000/svg" xmlns:svg="http://www.w3.org/2000/svg" style="enable-background:new 0 0 47.5 47.5" id="svg2" version="1.1" viewBox="0 0 47.5 47.5" xml:space="preserve"><defs id="defs6"><clipPath id="clipPath18"><path id="path20" d="M 0,38 38,38 38,0 0,0 0,38 z"/></clipPath></defs><g id="g12" transform="matrix(1.25,0,0,-1.25,0,47.5)"><g id="g14"><g id="g16" clip-path="url(#clipPath18)"><g id="g22" transform="translate(36,5)"><path id="path24" d="m 0,0 c 0,-2.2 -1.8,-4 -4,-4 l -26,0 c -2.2,0 -4,1.8 -4,4 l 0,13 c 0,2.2 1.8,4 4,4 l 26,0 c 2.2,0 4,-1.8 4,-4 L 0,0 z" style="fill:#3f7123;fill-opacity:1;fill-rule:nonzero;stroke:none"/></g><path id="path26" d="m 36,16 -34,0 0,6 34,0 0,-6 z" style="fill:#3f7123;fill-opacity:1;fill-rule:nonzero;stroke:none"/><path id="path28" d="m 36,15 -34,0 0,7 34,0 0,-7 z" style="fill:#ccd6dd;fill-opacity:1;fill-rule:nonzero;stroke:none"/><g id="g30" transform="translate(27,22)"><path id="path32" d="m 0,0 -4,-7 7,0 4,7 -7,0 z m -14,0 -4,-7 7,0 4,7 -7,0 z m -11,0 4,0 -4,-7 0,7 z" style="fill:#292f33;fill-opacity:1;fill-rule:nonzero;stroke:none"/></g><g id="g34" transform="translate(34.9941,30.2075)"><path id="path36" d="M 0,0 -32.994,-8.208 -34.685,-1.415 -1.689,6.793 0,0 z" style="fill:#ccd6dd;fill-opacity:1;fill-rule:nonzero;stroke:none"/></g><g id="g38" transform="translate(33.0537,29.7246)"><path id="path40" d="M 0,0 -5.572,5.828 -12.365,4.138 -6.793,-1.689 0,0 z m -13.586,-3.379 -5.572,5.827 -6.793,-1.69 5.572,-5.827 6.793,1.69 z m -19.158,2.447 5.572,-5.827 -3.882,-0.966 -1.69,6.793 z" style="fill:#292f33;fill-opacity:1;fill-rule:nonzero;stroke:none"/></g></g></g></g></svg>