<svg xmlns="http://www.w3.org/2000/svg" xmlns:svg="http://www.w3.org/2000/svg" style="enable-background:new 0 0 47.5 47.5" id="svg2" version="1.1" viewBox="0 0 47.5 47.5" xml:space="preserve"><defs id="defs6"><clipPath id="clipPath18"><path id="path20" d="M 0,38 38,38 38,0 0,0 0,38 z"/></clipPath></defs><g id="g12" transform="matrix(1.25,0,0,-1.25,0,47.5)"><g id="g14"><g id="g16" clip-path="url(#clipPath18)"><g id="g22" transform="translate(37,5)"><path id="path24" d="m 0,0 c 0,-2.209 -1.791,-4 -4,-4 l -28,0 c -2.209,0 -4,1.791 -4,4 l 0,28 c 0,2.209 1.791,4 4,4 l 28,0 c 2.209,0 4,-1.791 4,-4 L 0,0 z" style="fill:#88c9f9;fill-opacity:1;fill-rule:nonzero;stroke:none"/></g><g id="g26" transform="translate(19,10)"><path id="path28" d="m 0,0 c -6.076,0 -11,4.925 -11,11 0,6.075 4.924,11 11,11 C 6.075,22 11,17.075 11,11 11,4.925 6.075,0 0,0 M 0,24 C -7.18,24 -13,18.18 -13,11 -13,3.82 -7.18,-2 0,-2 7.18,-2 13,3.82 13,11 13,18.18 7.18,24 0,24" style="fill:#ffe8b6;fill-opacity:1;fill-rule:nonzero;stroke:none"/></g><g id="g30" transform="translate(22,30.5)"><path id="path32" d="m 0,0 c 0,-1.381 -1.119,-2.5 -2.5,-2.5 l -1,0 c -1.381,0 -2.5,1.119 -2.5,2.5 0,1.381 1.119,2.5 2.5,2.5 l 1,0 C -1.119,2.5 0,1.381 0,0" style="fill:#ea596e;fill-opacity:1;fill-rule:nonzero;stroke:none"/></g><g id="g34" transform="translate(13,27.5)"><path id="path36" d="m 0,0 c 0,-1.381 -1.119,-2.5 -2.5,-2.5 l -1,0 c -1.381,0 -2.5,1.119 -2.5,2.5 0,1.381 1.119,2.5 2.5,2.5 l 1,0 C -1.119,2.5 0,1.381 0,0" style="fill:#ea596e;fill-opacity:1;fill-rule:nonzero;stroke:none"/></g><g id="g38" transform="translate(31,27.5)"><path id="path40" d="m 0,0 c 0,-1.381 -1.119,-2.5 -2.5,-2.5 l -1,0 c -1.381,0 -2.5,1.119 -2.5,2.5 0,1.381 1.119,2.5 2.5,2.5 l 1,0 C -1.119,2.5 0,1.381 0,0" style="fill:#ea596e;fill-opacity:1;fill-rule:nonzero;stroke:none"/></g><g id="g42" transform="translate(34,18.5)"><path id="path44" d="m 0,0 c 0,-1.381 -1.119,-2.5 -2.5,-2.5 l -1,0 c -1.381,0 -2.5,1.119 -2.5,2.5 0,1.381 1.119,2.5 2.5,2.5 l 1,0 C -1.119,2.5 0,1.381 0,0" style="fill:#ea596e;fill-opacity:1;fill-rule:nonzero;stroke:none"/></g><g id="g46" transform="translate(10,18.5)"><path id="path48" d="m 0,0 c 0,-1.381 -1.119,-2.5 -2.5,-2.5 l -1,0 c -1.381,0 -2.5,1.119 -2.5,2.5 0,1.381 1.119,2.5 2.5,2.5 l 1,0 C -1.119,2.5 0,1.381 0,0" style="fill:#ea596e;fill-opacity:1;fill-rule:nonzero;stroke:none"/></g><g id="g50" transform="translate(13,10.5)"><path id="path52" d="m 0,0 c 0,-1.381 -1.119,-2.5 -2.5,-2.5 l -1,0 c -1.381,0 -2.5,1.119 -2.5,2.5 0,1.381 1.119,2.5 2.5,2.5 l 1,0 C -1.119,2.5 0,1.381 0,0" style="fill:#ea596e;fill-opacity:1;fill-rule:nonzero;stroke:none"/></g><g id="g54" transform="translate(31,10.5)"><path id="path56" d="m 0,0 c 0,-1.381 -1.119,-2.5 -2.5,-2.5 l -1,0 c -1.381,0 -2.5,1.119 -2.5,2.5 0,1.381 1.119,2.5 2.5,2.5 l 1,0 C -1.119,2.5 0,1.381 0,0" style="fill:#ea596e;fill-opacity:1;fill-rule:nonzero;stroke:none"/></g><g id="g58" transform="translate(22,6.5)"><path id="path60" d="m 0,0 c 0,-1.381 -1.119,-2.5 -2.5,-2.5 l -1,0 c -1.381,0 -2.5,1.119 -2.5,2.5 0,1.381 1.119,2.5 2.5,2.5 l 1,0 C -1.119,2.5 0,1.381 0,0" style="fill:#ea596e;fill-opacity:1;fill-rule:nonzero;stroke:none"/></g><g id="g62" transform="translate(21.9492,7)"><path id="path64" d="m 0,0 c -0.231,1.142 -1.239,2 -2.449,2 l -1,0 C -4.659,2 -5.667,1.142 -5.899,0 L 0,0 z" style="fill:#fff;fill-opacity:1;fill-rule:nonzero;stroke:none"/></g><g id="g66" transform="translate(12.9492,11)"><path id="path68" d="m 0,0 c -0.231,1.142 -1.239,2 -2.449,2 l -1,0 C -4.659,2 -5.667,1.142 -5.899,0 L 0,0 z" style="fill:#fff;fill-opacity:1;fill-rule:nonzero;stroke:none"/></g><g id="g70" transform="translate(9.9492,19)"><path id="path72" d="m 0,0 c -0.231,1.142 -1.239,2 -2.449,2 l -1,0 C -4.659,2 -5.667,1.142 -5.899,0 L 0,0 z" style="fill:#fff;fill-opacity:1;fill-rule:nonzero;stroke:none"/></g><g id="g74" transform="translate(33.9492,19)"><path id="path76" d="m 0,0 c -0.231,1.142 -1.239,2 -2.449,2 l -1,0 C -4.658,2 -5.667,1.142 -5.898,0 L 0,0 z" style="fill:#fff;fill-opacity:1;fill-rule:nonzero;stroke:none"/></g><g id="g78" transform="translate(30.9492,11)"><path id="path80" d="m 0,0 c -0.231,1.142 -1.239,2 -2.449,2 l -1,0 C -4.658,2 -5.667,1.142 -5.898,0 L 0,0 z" style="fill:#fff;fill-opacity:1;fill-rule:nonzero;stroke:none"/></g><g id="g82" transform="translate(30.9492,28)"><path id="path84" d="m 0,0 c -0.231,1.142 -1.239,2 -2.449,2 l -1,0 C -4.658,2 -5.667,1.142 -5.898,0 L 0,0 z" style="fill:#fff;fill-opacity:1;fill-rule:nonzero;stroke:none"/></g><g id="g86" transform="translate(21.9492,31)"><path id="path88" d="m 0,0 c -0.231,1.142 -1.239,2 -2.449,2 l -1,0 C -4.659,2 -5.667,1.142 -5.899,0 L 0,0 z" style="fill:#fff;fill-opacity:1;fill-rule:nonzero;stroke:none"/></g><g id="g90" transform="translate(12.9492,28)"><path id="path92" d="m 0,0 c -0.231,1.142 -1.239,2 -2.449,2 l -1,0 C -4.659,2 -5.667,1.142 -5.899,0 L 0,0 z" style="fill:#fff;fill-opacity:1;fill-rule:nonzero;stroke:none"/></g><g id="g94" transform="translate(27.001,3)"><path id="path96" d="M 0,0 C -0.376,0 -0.735,0.212 -0.906,0.574 L -8.001,15.651 -15.097,0.574 c -0.236,-0.5 -0.831,-0.713 -1.33,-0.479 -0.5,0.235 -0.715,0.831 -0.479,1.331 l 8,17 c 0.165,0.35 0.518,0.574 0.905,0.574 0.387,0 0.74,-0.224 0.905,-0.574 l 8,-17 C 1.139,0.926 0.925,0.33 0.425,0.095 0.287,0.03 0.143,0 0,0" style="fill:#414042;fill-opacity:1;fill-rule:nonzero;stroke:none"/></g><g id="g98" transform="translate(15.9995,21)"><path id="path100" d="M 0,0 C 0,1.657 1.343,3 3,3 4.657,3 6,1.657 6,0 6,-1.657 4.657,-3 3,-3 1.343,-3 0,-1.657 0,0" style="fill:#414042;fill-opacity:1;fill-rule:nonzero;stroke:none"/></g></g></g></g></svg>