<svg xmlns="http://www.w3.org/2000/svg" xmlns:svg="http://www.w3.org/2000/svg" style="enable-background:new 0 0 47.5 47.5" id="svg2" version="1.1" viewBox="0 0 47.5 47.5" xml:space="preserve"><defs id="defs6"><clipPath id="clipPath18"><path id="path20" d="M 0,38 38,38 38,0 0,0 0,38 z"/></clipPath><clipPath id="clipPath42"><path id="path44" d="M 7,18 C 5.896,18 5,17.105 5,16 L 5,16 4,4 C 4,2.895 4.895,2 6,2 l 0,0 26,0 c 1.105,0 2,0.895 2,2 l 0,0 -1,12 c 0,-1.562 -0.895,2 -2,2 l 0,0 -24,0 z"/></clipPath><clipPath id="clipPath86"><path id="path88" d="m 4,18 c 0,-4.782 0,-3 2,-3 l 0,0 13,0 13,0 c 2,0 2,-1.063 2,3 l 0,0 c 0,4 -8,2 -15,13 l 0,0 C 12,20 4,22 4,18"/></clipPath><clipPath id="clipPath110"><path id="path112" d="M 0,38 38,38 38,0 0,0 0,38 z"/></clipPath></defs><g id="g12" transform="matrix(1.25,0,0,-1.25,0,47.5)"><g id="g14"><g id="g16" clip-path="url(#clipPath18)"><g id="g22" transform="translate(34,4)"><path id="path24" d="m 0,0 c 0,-1.104 -0.896,-2 -2,-2 l -26,0 c -1.104,0 -2,0.896 -2,2 l 1,12 c 0,1.104 0.896,2 2,2 l 24,0 c 1.104,0 2,-3.562 2,-2 L 0,0 z" style="fill:#dd2e44;fill-opacity:1;fill-rule:nonzero;stroke:none"/></g><g id="g26" transform="translate(20,28)"><path id="path28" d="m 0,0 c 0,-0.552 -0.448,-1 -1,-1 -0.552,0 -1,0.448 -1,1 l 0,7 c 0,0.552 0.448,1 1,1 L -1,7.958 C -0.448,7.958 0,7.552 0,7 L 0,0 z" style="fill:#000;fill-opacity:1;fill-rule:nonzero;stroke:none"/></g><g id="g30" transform="translate(19.8379,36.7939)"><path id="path32" d="m 0,0 c -1.171,0.165 -1.838,-0.112 -1.838,-1.212 l 0,-1 c 0,-1.101 0.865,-1.753 1.923,-1.451 l 5.154,0.901 c 1.715,0.343 1.548,1.593 0.085,1.885 L 0,0 z" style="fill:#55acee;fill-opacity:1;fill-rule:nonzero;stroke:none"/></g><g id="g34" transform="translate(19,31)"><path id="path36" d="m 0,0 c -7,-11 -15,-9 -15,-13 0,-2 0,-3 2,-3 l 13,0 13,0 c 2,0 2,1 2,3 0,4 -8,2 -15,13" style="fill:#f5f8fa;fill-opacity:1;fill-rule:nonzero;stroke:none"/></g></g></g><g id="g38"><g id="g40" clip-path="url(#clipPath42)"><g id="g46" transform="translate(14,2)"><path id="path48" d="m 0,0 c -0.792,1.875 -1.75,3.291 -3.417,4.666 1.75,1.459 4.542,5.5 5.25,8.292 C 2.542,15.75 4.583,4.833 3.875,2.333 3.167,-0.167 0,0 0,0" style="fill:#ea596e;fill-opacity:1;fill-rule:nonzero;stroke:none"/></g><g id="g50" transform="translate(24.3027,2)"><path id="path52" d="m 0,0 c 0.791,1.875 1.75,3.291 3.416,4.666 -1.75,1.459 -4.541,5.5 -5.25,8.292 C -2.541,15.75 -4.583,4.833 -3.874,2.333 -3.166,-0.167 0,0 0,0" style="fill:#ea596e;fill-opacity:1;fill-rule:nonzero;stroke:none"/></g><g id="g54" transform="translate(9,14.5)"><path id="path56" d="M 0,0 C 0,-1.381 -1.119,-2.5 -2.5,-2.5 -3.881,-2.5 -5,-1.381 -5,0 -5,1.381 -3.881,2.5 -2.5,2.5 -1.119,2.5 0,1.381 0,0" style="fill:#be1931;fill-opacity:1;fill-rule:nonzero;stroke:none"/></g><g id="g58" transform="translate(34,14.5)"><path id="path60" d="M 0,0 C 0,-1.381 -1.119,-2.5 -2.5,-2.5 -3.881,-2.5 -5,-1.381 -5,0 -5,1.381 -3.881,2.5 -2.5,2.5 -1.119,2.5 0,1.381 0,0" style="fill:#be1931;fill-opacity:1;fill-rule:nonzero;stroke:none"/></g><g id="g62" transform="translate(17,14)"><path id="path64" d="m 0,0 c 0,-1.104 -0.896,-2 -2,-2 -1.104,0 -2,0.896 -2,2 0,1.104 0.896,2 2,2 1.104,0 2,-0.896 2,-2" style="fill:#be1931;fill-opacity:1;fill-rule:nonzero;stroke:none"/></g><g id="g66" transform="translate(25,14)"><path id="path68" d="m 0,0 c 0,-1.104 -0.896,-2 -2,-2 -1.104,0 -2,0.896 -2,2 0,1.104 0.896,2 2,2 1.104,0 2,-0.896 2,-2" style="fill:#be1931;fill-opacity:1;fill-rule:nonzero;stroke:none"/></g><g id="g70" transform="translate(13,14)"><path id="path72" d="m 0,0 c 0,-1.104 -0.896,-2 -2,-2 -1.104,0 -2,0.896 -2,2 0,1.104 0.896,2 2,2 1.104,0 2,-0.896 2,-2" style="fill:#be1931;fill-opacity:1;fill-rule:nonzero;stroke:none"/></g><g id="g74" transform="translate(29,14)"><path id="path76" d="m 0,0 c 0,-1.104 -0.896,-2 -2,-2 -1.104,0 -2,0.896 -2,2 0,1.104 0.896,2 2,2 1.104,0 2,-0.896 2,-2" style="fill:#be1931;fill-opacity:1;fill-rule:nonzero;stroke:none"/></g><g id="g78" transform="translate(24,2)"><path id="path80" d="m 0,0 -10,0 c 0,0 2,6 2,13 l 6,0 C -2,6 0,0 0,0" style="fill:#000;fill-opacity:1;fill-rule:nonzero;stroke:none"/></g></g></g><g id="g82"><g id="g84" clip-path="url(#clipPath86)"><g id="g90" transform="translate(9,19)"><path id="path92" d="M 0,0 C 3,2 10,7 10,13 10,19 -1,14 -4,12 -7,10 -9,4 -8,1 -7,-2 -5,-5 0,-5 L 0,0 z" style="fill:#ccd6dd;fill-opacity:1;fill-rule:nonzero;stroke:none"/></g><g id="g94" transform="translate(29,19)"><path id="path96" d="m 0,0 c -3,2 -10.13,7 -10.13,13 0,6 10.935,1 13.935,-1 3,-2 5.097,-8 4.097,-11 C 6.902,-2 5,-5 0,-5 l 0,5 z" style="fill:#ccd6dd;fill-opacity:1;fill-rule:nonzero;stroke:none"/></g><g id="g98" transform="translate(19,31)"><path id="path100" d="m 0,0 c 0,2 0,-10 -2,-12 l 0,-5 c 0,-1 -4,-2 -4,0 l 0,5 c 1,1 6,7 6,12" style="fill:#ccd6dd;fill-opacity:1;fill-rule:nonzero;stroke:none"/></g><g id="g102" transform="translate(19,31)"><path id="path104" d="m 0,0 c 0,2 0,-10 2,-12 l 0,-5 c 0,-1 4,-2 4,0 l 0,5 C 5,-11 0,-5 0,0" style="fill:#ccd6dd;fill-opacity:1;fill-rule:nonzero;stroke:none"/></g></g></g><g id="g106"><g id="g108" clip-path="url(#clipPath110)"><g id="g114" transform="translate(9,15.5)"><path id="path116" d="M 0,0 C 0,-1.381 -1.119,-2.5 -2.5,-2.5 -3.881,-2.5 -5,-1.381 -5,0 -5,1.381 -3.881,2.5 -2.5,2.5 -1.119,2.5 0,1.381 0,0" style="fill:#ccd6dd;fill-opacity:1;fill-rule:nonzero;stroke:none"/></g><g id="g118" transform="translate(34,15.5)"><path id="path120" d="M 0,0 C 0,-1.381 -1.119,-2.5 -2.5,-2.5 -3.881,-2.5 -5,-1.381 -5,0 -5,1.381 -3.881,2.5 -2.5,2.5 -1.119,2.5 0,1.381 0,0" style="fill:#ccd6dd;fill-opacity:1;fill-rule:nonzero;stroke:none"/></g><g id="g122" transform="translate(17,15)"><path id="path124" d="m 0,0 c 0,-1.104 -0.896,-2 -2,-2 -1.104,0 -2,0.896 -2,2 0,1.104 0.896,2 2,2 1.104,0 2,-0.896 2,-2" style="fill:#ccd6dd;fill-opacity:1;fill-rule:nonzero;stroke:none"/></g><g id="g126" transform="translate(25,15)"><path id="path128" d="m 0,0 c 0,-1.104 -0.896,-2 -2,-2 -1.104,0 -2,0.896 -2,2 0,1.104 0.896,2 2,2 1.104,0 2,-0.896 2,-2" style="fill:#ccd6dd;fill-opacity:1;fill-rule:nonzero;stroke:none"/></g><g id="g130" transform="translate(21,15)"><path id="path132" d="m 0,0 c 0,-1.104 -0.896,-2 -2,-2 -1.104,0 -2,0.896 -2,2 0,1.104 0.896,2 2,2 1.104,0 2,-0.896 2,-2" style="fill:#f5f8fa;fill-opacity:1;fill-rule:nonzero;stroke:none"/></g><g id="g134" transform="translate(13,15)"><path id="path136" d="m 0,0 c 0,-1.104 -0.896,-2 -2,-2 -1.104,0 -2,0.896 -2,2 0,1.104 0.896,2 2,2 1.104,0 2,-0.896 2,-2" style="fill:#f5f8fa;fill-opacity:1;fill-rule:nonzero;stroke:none"/></g><g id="g138" transform="translate(29,15)"><path id="path140" d="m 0,0 c 0,-1.104 -0.896,-2 -2,-2 -1.104,0 -2,0.896 -2,2 0,1.104 0.896,2 2,2 1.104,0 2,-0.896 2,-2" style="fill:#f5f8fa;fill-opacity:1;fill-rule:nonzero;stroke:none"/></g></g></g></g></svg>