<svg xmlns="http://www.w3.org/2000/svg" xmlns:svg="http://www.w3.org/2000/svg" style="enable-background:new 0 0 47.5 47.5" id="svg2" version="1.1" viewBox="0 0 47.5 47.5" xml:space="preserve"><defs id="defs6"><clipPath id="clipPath18"><path id="path20" d="M 0,38 38,38 38,0 0,0 0,38 z"/></clipPath></defs><g id="g12" transform="matrix(1.25,0,0,-1.25,0,47.5)"><g id="g14"><g id="g16" clip-path="url(#clipPath18)"><g id="g22" transform="translate(3,1)"><path id="path24" d="m 0,0 c 0,0 -2,0 -2,2 l 0,32 c 0,0 0,2 2,2 l 32.031,0 C 34,36 34,34 34,34 L 34,2 C 34,2 34,0 32,0 L 0,0 z" style="fill:#292f33;fill-opacity:1;fill-rule:nonzero;stroke:none"/></g><g id="g26" transform="translate(20,4)"><path id="path28" d="m 0,0 c 0,0 0,-1 1,-1 l 5,0 c 1,0 1,1 1,1 L 7,28 0,28 0,0 z" style="fill:#e1e8ed;fill-opacity:1;fill-rule:nonzero;stroke:none"/></g><g id="g30" transform="translate(29,32)"><path id="path32" d="m 0,0 0,-28 c 0,0 0,-1 1,-1 l 4,0 c 1,0 1,1 1,1 L 6,0 0,0 z" style="fill:#e1e8ed;fill-opacity:1;fill-rule:nonzero;stroke:none"/></g><g id="g34" transform="translate(11,4)"><path id="path36" d="m 0,0 c 0,0 0,-1 1,-1 l 5,0 c 1,0 1,1 1,1 L 7,28 0,28 0,0 z" style="fill:#e1e8ed;fill-opacity:1;fill-rule:nonzero;stroke:none"/></g><g id="g38" transform="translate(3,4)"><path id="path40" d="m 0,0 c 0,0 0,-1 1,-1 l 4,0 c 1,0 1,1 1,1 L 6,28 0,28 0,0 z" style="fill:#e1e8ed;fill-opacity:1;fill-rule:nonzero;stroke:none"/></g><g id="g42" transform="translate(31,14)"><path id="path44" d="m 0,0 c 0,0 0,-1 -1,-1 l -4,0 c -1,0 -1,1 -1,1 l 0,20 6,0 0,-20 z" style="fill:#292f33;fill-opacity:1;fill-rule:nonzero;stroke:none"/></g><g id="g46" transform="translate(22,14)"><path id="path48" d="m 0,0 c 0,0 0,-1 -1,-1 l -4,0 c -1,0 -1,1 -1,1 l 0,20 6,0 0,-20 z" style="fill:#292f33;fill-opacity:1;fill-rule:nonzero;stroke:none"/></g><g id="g50" transform="translate(13,14)"><path id="path52" d="m 0,0 c 0,0 0,-1 -1,-1 l -4,0 c -1,0 -1,1 -1,1 l 0,20 6,0 0,-20 z" style="fill:#292f33;fill-opacity:1;fill-rule:nonzero;stroke:none"/></g></g></g></g></svg>