<svg xmlns="http://www.w3.org/2000/svg" xmlns:svg="http://www.w3.org/2000/svg" style="enable-background:new 0 0 47.5 47.5" id="svg2" version="1.1" viewBox="0 0 47.5 47.5" xml:space="preserve"><defs id="defs6"><clipPath id="clipPath18"><path id="path20" d="M 0,38 38,38 38,0 0,0 0,38 z"/></clipPath><clipPath id="clipPath30"><path id="path32" d="m 19,36 c -1,-1 -1,-2 -1,-4 l 0,0 c 0,-2 1,-4 1,-5 l 0,0 c 0,-3 -4,-5 -4,-9.084 l 0,0 C 15,14.583 17,8 18,6 l 0,0 3,0 3,0 c 1,2 3,8.583 3,11.916 l 0,0 C 27,22 23,24 23,27 l 0,0 c 0,1 1,3 1,5 l 0,0 c 0,2 0,3 -1,4 l 0,0 c -1,1 -2,1 -2,1 l 0,0 c 0,0 -1,0 -2,-1"/></clipPath><clipPath id="clipPath42"><path id="path44" d="M 0,38 38,38 38,0 0,0 0,38 z"/></clipPath><clipPath id="clipPath54"><path id="path56" d="m 29,33 c -1,-1 -1,-2 -1,-4 l 0,0 c 0,-2 1,-4 1,-5 l 0,0 c 0,-3 -4,-5 -4,-9.084 l 0,0 C 25,11.583 27,5 28,3 l 0,0 3,0 3,0 c 1,2 3,8.583 3,11.916 l 0,0 C 37,19 33,21 33,24 l 0,0 c 0,1 1,3 1,5 l 0,0 c 0,2 0,3 -1,4 l 0,0 c -1,1 -2,1 -2,1 l 0,0 c 0,0 -1,0 -2,-1"/></clipPath><clipPath id="clipPath66"><path id="path68" d="M 0,38 38,38 38,0 0,0 0,38 z"/></clipPath></defs><g id="g12" transform="matrix(1.25,0,0,-1.25,0,47.5)"><g id="g14"><g id="g16" clip-path="url(#clipPath18)"><g id="g22" transform="translate(23,27)"><path id="path24" d="m 0,0 c 0,1 1,3 1,5 0,2 0,3 -1,4 -1,1 -2,1 -2,1 0,0 -1,0 -2,-1 C -5,8 -5,7 -5,5 -5,3 -4,1 -4,0 -4,-3 -8,-5 -8,-9.084 -8,-12.417 -6,-19 -5,-21 l 3,0 3,0 c 1,2 3,8.583 3,11.916 C 4,-5 0,-3 0,0" style="fill:#ccd6dd;fill-opacity:1;fill-rule:nonzero;stroke:none"/></g></g></g><g id="g26"><g id="g28" clip-path="url(#clipPath30)"><path id="path34" d="m 24,27 -6,0 0,2 6,0 0,-2 z" style="fill:#be1931;fill-opacity:1;fill-rule:nonzero;stroke:none"/><path id="path36" d="m 25,23 -8,0 0,2 8,0 0,-2 z" style="fill:#be1931;fill-opacity:1;fill-rule:nonzero;stroke:none"/></g></g><g id="g38"><g id="g40" clip-path="url(#clipPath42)"><g id="g46" transform="translate(33,24)"><path id="path48" d="m 0,0 c 0,1 1,3 1,5 0,2 0,3 -1,4 -1,1 -2,1 -2,1 0,0 -1,0 -2,-1 C -5,8 -5,7 -5,5 -5,3 -4,1 -4,0 -4,-3 -8,-5 -8,-9.084 -8,-12.417 -6,-19 -5,-21 l 3,0 3,0 c 1,2 3,8.583 3,11.916 C 4,-5 0,-3 0,0" style="fill:#ccd6dd;fill-opacity:1;fill-rule:nonzero;stroke:none"/></g></g></g><g id="g50"><g id="g52" clip-path="url(#clipPath54)"><path id="path58" d="m 34,24 -6,0 0,2 6,0 0,-2 z" style="fill:#be1931;fill-opacity:1;fill-rule:nonzero;stroke:none"/><path id="path60" d="m 35,20 -8,0 0,2 8,0 0,-2 z" style="fill:#be1931;fill-opacity:1;fill-rule:nonzero;stroke:none"/></g></g><g id="g62"><g id="g64" clip-path="url(#clipPath66)"><g id="g70" transform="translate(13.562,1)"><path id="path72" d="m 0,0 c -6.938,0 -12.562,5.624 -12.562,12.563 0,6.937 5.624,12.562 12.562,12.562 6.938,0 12.563,-5.625 12.563,-12.562 C 12.563,5.624 6.938,0 0,0" style="fill:#3a4449;fill-opacity:1;fill-rule:nonzero;stroke:none"/></g><g id="g74" transform="translate(16.2305,18.21)"><path id="path76" d="m 0,0 c 0,-1.279 -1.037,-2.316 -2.315,-2.316 -1.28,0 -2.316,1.037 -2.316,2.316 0,1.279 1.036,2.315 2.316,2.315 C -1.037,2.315 0,1.279 0,0" style="fill:#000;fill-opacity:1;fill-rule:nonzero;stroke:none"/></g><g id="g78" transform="translate(9.8203,16.0625)"><path id="path80" d="m 0,0 c 0,-1.279 -1.037,-2.316 -2.316,-2.316 -1.279,0 -2.315,1.037 -2.315,2.316 0,1.279 1.036,2.315 2.315,2.315 C -1.037,2.315 0,1.279 0,0" style="fill:#000;fill-opacity:1;fill-rule:nonzero;stroke:none"/></g><g id="g82" transform="translate(14.7466,8.9473)"><path id="path84" d="m 0,0 c 0,-1.279 -1.037,-2.316 -2.316,-2.316 -1.279,0 -2.315,1.037 -2.315,2.316 0,1.278 1.036,2.315 2.315,2.315 C -1.037,2.315 0,1.278 0,0" style="fill:#000;fill-opacity:1;fill-rule:nonzero;stroke:none"/></g></g></g></g></svg>