<svg xmlns="http://www.w3.org/2000/svg" xmlns:svg="http://www.w3.org/2000/svg" style="enable-background:new 0 0 47.5 47.5" id="svg2" version="1.1" viewBox="0 0 47.5 47.5" xml:space="preserve"><defs id="defs6"><clipPath id="clipPath18"><path id="path20" d="M 0,38 38,38 38,0 0,0 0,38 z"/></clipPath><clipPath id="clipPath30"><path id="path32" d="M 24,10.102 C 24,7.68 21.427,5 19.005,5 l 0,0 -0.715,0 4.96,-2.133 c 1.998,-0.889 4.338,0.048 5.229,2.046 l 0,0 8.062,18.108 c 0.891,1.998 0.003,4.358 -1.995,5.247 l 0,0 L 24,32.973 24,10.102 z"/></clipPath><clipPath id="clipPath42"><path id="path44" d="M 0,38 38,38 38,0 0,0 0,38 z"/></clipPath><clipPath id="clipPath54"><path id="path56" d="M 5.227,37 C 2.893,37 1,35.107 1,32.773 l 0,0 0,-21.546 C 1,8.893 2.893,7 5.227,7 l 0,0 12.545,0 C 20.108,7 22,8.893 22,11.227 l 0,0 0,21.546 C 22,35.107 20.108,37 17.772,37 l 0,0 -12.545,0 z"/></clipPath><clipPath id="clipPath66"><path id="path68" d="M 0,38 38,38 38,0 0,0 0,38 z"/></clipPath></defs><g id="g12" transform="matrix(1.25,0,0,-1.25,0,47.5)"><g id="g14"><g id="g16" clip-path="url(#clipPath18)"><g id="g22" transform="translate(34.5459,28.2681)"><path id="path24" d="m 0,0 -10.546,4.705 0,-22.872 c 0,-2.421 -2.573,-5.101 -4.995,-5.101 l -0.715,0 4.96,-2.133 c 1.998,-0.889 4.338,0.048 5.229,2.046 L 1.995,-5.247 C 2.886,-3.249 1.998,-0.889 0,0" style="fill:#dd2e44;fill-opacity:1;fill-rule:nonzero;stroke:none"/></g></g></g><g id="g26"><g id="g28" clip-path="url(#clipPath30)"><g id="g34" transform="translate(30.8848,10.1016)"><path id="path36" d="m 0,0 c -0.99,1.98 -3.959,4.95 -12.87,4.95 -8.91,0 -2.97,-5.94 -1.98,-8.909 0.99,-2.971 4.248,-5.94 7.631,-5.94 3.383,0 6.229,0 7.219,2.969 C 0.99,-3.959 0,0 0,0" style="fill:#000;fill-opacity:1;fill-rule:nonzero;stroke:none"/></g></g></g><g id="g38"><g id="g40" clip-path="url(#clipPath42)"><g id="g46" transform="translate(22,11.2275)"><path id="path48" d="m 0,0 c 0,-2.335 -1.893,-4.228 -4.228,-4.228 l -12.544,0 C -19.107,-4.228 -21,-2.335 -21,0 l 0,21.545 c 0,2.335 1.893,4.227 4.228,4.227 l 12.544,0 C -1.893,25.772 0,23.88 0,21.545 L 0,0 z" style="fill:#dd2e44;fill-opacity:1;fill-rule:nonzero;stroke:none"/></g></g></g><g id="g50"><g id="g52" clip-path="url(#clipPath54)"><g id="g58" transform="translate(1,14)"><path id="path60" d="m 0,0 c 3,2 16,7 21,1 6.925,-8.31 5,-3 2,-6 C 20,-8 11,-10 7,-9 3,-8 -1,-9.708 -1,-7.083 -1,-4.458 0,0 0,0" style="fill:#000;fill-opacity:1;fill-rule:nonzero;stroke:none"/></g></g></g><g id="g62"><g id="g64" clip-path="url(#clipPath66)"><g id="g70" transform="translate(16.7954,26.5884)"><path id="path72" d="m 0,0 c 0,3.488 -2.828,6.315 -6.315,6.315 -3.488,0 -6.315,-2.827 -6.315,-6.315 0,-3.487 2.827,-6.316 6.315,-6.316 C -2.828,-6.316 0,-3.487 0,0" style="fill:#fff;fill-opacity:1;fill-rule:nonzero;stroke:none"/></g><g id="g74" transform="translate(24,28.8511)"><path id="path76" d="m 0,0 0,-10.526 c 2.688,0.265 4.795,2.506 4.795,5.263 C 4.795,-2.505 2.688,-0.265 0,0" style="fill:#fff;fill-opacity:1;fill-rule:nonzero;stroke:none"/></g></g></g></g></svg>