<svg xmlns="http://www.w3.org/2000/svg" xmlns:svg="http://www.w3.org/2000/svg" style="enable-background:new 0 0 47.5 47.5" id="svg2" version="1.1" viewBox="0 0 47.5 47.5" xml:space="preserve"><defs id="defs6"><clipPath id="clipPath18"><path id="path20" d="M 0,38 38,38 38,0 0,0 0,38 z"/></clipPath><clipPath id="clipPath34"><path id="path36" d="M 1,19 C 1,9.059 9.059,1 19,1 l 0,0 c 9.941,0 18,8.059 18,18 l 0,0 c 0,9.941 -8.059,18 -18,18 l 0,0 C 9.059,37 1,28.941 1,19"/></clipPath></defs><g id="g12" transform="matrix(1.25,0,0,-1.25,0,47.5)"><g id="g14"><g id="g16" clip-path="url(#clipPath18)"><g id="g22" transform="translate(37,19)"><path id="path24" d="m 0,0 c 0,-9.941 -8.059,-18 -18,-18 -9.941,0 -18,8.059 -18,18 0,9.941 8.059,18 18,18 C -8.059,18 0,9.941 0,0" style="fill:#f4900c;fill-opacity:1;fill-rule:nonzero;stroke:none"/></g><path id="path26" d="m 20,1 -2,0 0,36 2,0 0,-36 z" style="fill:#231f20;fill-opacity:1;fill-rule:nonzero;stroke:none"/><path id="path28" d="m 1,20 36,0 0,-2 -36,0 0,2 z" style="fill:#231f20;fill-opacity:1;fill-rule:nonzero;stroke:none"/></g></g><g id="g30"><g id="g32" clip-path="url(#clipPath34)"><g id="g38" transform="translate(3,31)"><path id="path40" d="m 0,0 c -4.318,0 -7,-4.598 -7,-12 0,-7.402 2.682,-12 7,-12 4.318,0 7,4.598 7,12 C 7,-4.598 4.318,0 0,0 m 0,-26 c -4.351,0 -9,3.678 -9,14 0,10.322 4.649,14 9,14 4.351,0 9,-3.678 9,-14 0,-10.322 -4.649,-14 -9,-14" style="fill:#231f20;fill-opacity:1;fill-rule:nonzero;stroke:none"/></g><g id="g42" transform="translate(35,31)"><path id="path44" d="m 0,0 c -4.317,0 -7,-4.598 -7,-12 0,-7.402 2.683,-12 7,-12 4.317,0 7,4.598 7,12 C 7,-4.598 4.317,0 0,0 m 0,-26 c -4.351,0 -9,3.678 -9,14 0,10.322 4.649,14 9,14 4.351,0 9,-3.678 9,-14 0,-10.322 -4.649,-14 -9,-14" style="fill:#231f20;fill-opacity:1;fill-rule:nonzero;stroke:none"/></g></g></g></g></svg>