<svg xmlns="http://www.w3.org/2000/svg" xmlns:svg="http://www.w3.org/2000/svg" style="enable-background:new 0 0 47.5 47.5" id="svg2" version="1.1" viewBox="0 0 47.5 47.5" xml:space="preserve"><defs id="defs6"><clipPath id="clipPath18"><path id="path20" d="M 0,38 38,38 38,0 0,0 0,38 z"/></clipPath></defs><g id="g12" transform="matrix(1.25,0,0,-1.25,0,47.5)"><g id="g14"><g id="g16" clip-path="url(#clipPath18)"><g id="g22" transform="translate(22,22)"><path id="path24" d="m 0,0 c 0,-2.209 -1.791,-4 -4,-4 l -13,0 c -2.209,0 -4,1.791 -4,4 l 0,3 c 0,2.209 1.791,4 4,4 L -4,7 C -1.791,7 0,5.209 0,3 L 0,0 z" style="fill:#c1694f;fill-opacity:1;fill-rule:nonzero;stroke:none"/></g><g id="g26" transform="translate(37,31)"><path id="path28" d="m 0,0 c 0,-2.209 -1.791,-4 -4,-4 l -12,0 c -2.209,0 -4,1.791 -4,4 l 0,1 c 0,2.209 1.791,4 4,4 L -4,5 C -1.791,5 0,3.209 0,1 L 0,0 z" style="fill:#c1694f;fill-opacity:1;fill-rule:nonzero;stroke:none"/></g><g id="g30" transform="translate(1,25)"><path id="path32" d="m 0,0 0,-22 c 0,-1.104 0.896,-2 2,-2 l 31,0 0,24 -33,0 z" style="fill:#ffcc4d;fill-opacity:1;fill-rule:nonzero;stroke:none"/></g><path id="path34" d="M 15,1 3,1 3,5 15,5 15,1 z" style="fill:#55acee;fill-opacity:1;fill-rule:nonzero;stroke:none"/><path id="path36" d="M 19,7 3,7 3,11 19,11 19,7 z" style="fill:#55acee;fill-opacity:1;fill-rule:nonzero;stroke:none"/><g id="g38" transform="translate(17,32)"><path id="path40" d="m 0,0 0,-31 18,0 c 1.104,0 2,0.896 2,2 L 20,0 0,0 z" style="fill:#ffe8b6;fill-opacity:1;fill-rule:nonzero;stroke:none"/></g><path id="path42" d="m 35,13 -16,0 0,4 16,0 0,-4 z" style="fill:#55acee;fill-opacity:1;fill-rule:nonzero;stroke:none"/><path id="path44" d="m 35,19 -16,0 0,4 16,0 0,-4 z" style="fill:#55acee;fill-opacity:1;fill-rule:nonzero;stroke:none"/><path id="path46" d="m 35,25 -16,0 0,4 16,0 0,-4 z" style="fill:#55acee;fill-opacity:1;fill-rule:nonzero;stroke:none"/><path id="path48" d="m 35,7 -16,0 0,4 16,0 0,-4 z" style="fill:#55acee;fill-opacity:1;fill-rule:nonzero;stroke:none"/><path id="path50" d="m 25,6 -2,0 0,24 2,0 0,-24 z" style="fill:#ffe8b6;fill-opacity:1;fill-rule:nonzero;stroke:none"/><path id="path52" d="m 31,6 -2,0 0,24 2,0 0,-24 z" style="fill:#ffe8b6;fill-opacity:1;fill-rule:nonzero;stroke:none"/><path id="path54" d="m 31,1 -8,0 0,4 8,0 0,-4 z" style="fill:#3b88c3;fill-opacity:1;fill-rule:nonzero;stroke:none"/><g id="g56" transform="translate(11,23)"><path id="path58" d="m 0,0 0,-4 -4,0 0,4 -2,0 0,-10 2,0 0,4 4,0 0,-4 2,0 0,10 -2,0 z" style="fill:#3b88c3;fill-opacity:1;fill-rule:nonzero;stroke:none"/></g><path id="path60" d="m 10,6 -2,0 0,6 2,0 0,-6 z" style="fill:#ffcc4d;fill-opacity:1;fill-rule:nonzero;stroke:none"/><path id="path62" d="m 17,6 -2,0 0,6 2,0 0,-6 z" style="fill:#ffcc4d;fill-opacity:1;fill-rule:nonzero;stroke:none"/></g></g></g></svg>