<svg xmlns="http://www.w3.org/2000/svg" xmlns:svg="http://www.w3.org/2000/svg" style="enable-background:new 0 0 47.5 47.5" id="svg2" version="1.1" viewBox="0 0 47.5 47.5" xml:space="preserve"><defs id="defs6"><clipPath id="clipPath66"><path id="path68" d="M 0,38 38,38 38,0 0,0 0,38 z"/></clipPath></defs><g id="g12" transform="matrix(1.25,0,0,-1.25,0,47.5)"><g id="g14" transform="translate(12,19)"><path id="path16" d="m 0,0 -6,0 1,13 4,0 1,-13 z" style="fill:#be1931;fill-opacity:1;fill-rule:nonzero;stroke:none"/></g><g id="g18" transform="translate(22,19)"><path id="path20" d="m 0,0 -6,0 1,13 4,0 1,-13 z" style="fill:#be1931;fill-opacity:1;fill-rule:nonzero;stroke:none"/></g><g id="g22" transform="translate(32,19)"><path id="path24" d="m 0,0 -6,0 1,13 4,0 1,-13 z" style="fill:#be1931;fill-opacity:1;fill-rule:nonzero;stroke:none"/></g><g id="g26" transform="translate(6.5386,26)"><path id="path28" d="M 0,0 -0.154,-2 5.077,-2 4.923,0 0,0 z" style="fill:#e6e7e8;fill-opacity:1;fill-rule:nonzero;stroke:none"/></g><g id="g30" transform="translate(6.8462,30)"><path id="path32" d="M 0,0 -0.154,-2 4.461,-2 4.308,0 0,0 z" style="fill:#e6e7e8;fill-opacity:1;fill-rule:nonzero;stroke:none"/></g><g id="g34" transform="translate(11.9229,20)"><path id="path36" d="M 0,0 -0.154,2 -5.692,2 -5.846,0 0,0 z" style="fill:#e6e7e8;fill-opacity:1;fill-rule:nonzero;stroke:none"/></g><g id="g38" transform="translate(16.5386,26)"><path id="path40" d="M 0,0 -0.154,-2 5.077,-2 4.923,0 0,0 z" style="fill:#e6e7e8;fill-opacity:1;fill-rule:nonzero;stroke:none"/></g><g id="g42" transform="translate(16.8462,30)"><path id="path44" d="M 0,0 -0.154,-2 4.461,-2 4.308,0 0,0 z" style="fill:#e6e7e8;fill-opacity:1;fill-rule:nonzero;stroke:none"/></g><g id="g46" transform="translate(21.9229,20)"><path id="path48" d="M 0,0 -0.153,2 -5.692,2 -5.846,0 0,0 z" style="fill:#e6e7e8;fill-opacity:1;fill-rule:nonzero;stroke:none"/></g><g id="g50" transform="translate(26.5381,26)"><path id="path52" d="M 0,0 -0.153,-2 5.077,-2 4.924,0 0,0 z" style="fill:#e6e7e8;fill-opacity:1;fill-rule:nonzero;stroke:none"/></g><g id="g54" transform="translate(31.9229,20)"><path id="path56" d="M 0,0 -0.153,2 -5.692,2 -5.846,0 0,0 z" style="fill:#e6e7e8;fill-opacity:1;fill-rule:nonzero;stroke:none"/></g><g id="g58" transform="translate(26.8457,30)"><path id="path60" d="M 0,0 -0.153,-2 4.462,-2 4.309,0 0,0 z" style="fill:#e6e7e8;fill-opacity:1;fill-rule:nonzero;stroke:none"/></g><g id="g62"><g id="g64" clip-path="url(#clipPath66)"><g id="g70" transform="translate(36,3)"><path id="path72" d="m 0,0 c 0,-1.104 -0.896,-2 -2,-2 l -30,0 c -1.104,0 -2,0.896 -2,2 l 0,14 c 0,1.104 0.896,2 2,2 l 30,0 c 1.104,0 2,-0.896 2,-2 L 0,0 z" style="fill:#a0041e;fill-opacity:1;fill-rule:nonzero;stroke:none"/></g><path id="path74" d="m 36,15 -34,0 0,2 34,0 0,-2 z" style="fill:#c1694f;fill-opacity:1;fill-rule:nonzero;stroke:none"/><path id="path76" d="m 11,9 -4,0 0,4 4,0 0,-4 z" style="fill:#a7a9ac;fill-opacity:1;fill-rule:nonzero;stroke:none"/><path id="path78" d="m 21,9 -4,0 0,4 4,0 0,-4 z" style="fill:#a7a9ac;fill-opacity:1;fill-rule:nonzero;stroke:none"/><path id="path80" d="m 31,9 -4,0 0,4 4,0 0,-4 z" style="fill:#a7a9ac;fill-opacity:1;fill-rule:nonzero;stroke:none"/><path id="path82" d="M 11,3 7,3 7,7 11,7 11,3 z" style="fill:#a7a9ac;fill-opacity:1;fill-rule:nonzero;stroke:none"/><path id="path84" d="m 21,3 -4,0 0,4 4,0 0,-4 z" style="fill:#a7a9ac;fill-opacity:1;fill-rule:nonzero;stroke:none"/><path id="path86" d="m 31,3 -4,0 0,4 4,0 0,-4 z" style="fill:#a7a9ac;fill-opacity:1;fill-rule:nonzero;stroke:none"/><g id="g88" transform="translate(10,37)"><path id="path90" d="m 0,0 c -1.104,0 -2,-0.896 -2,-2 0,-0.457 0.159,-0.873 0.417,-1.209 C -1.83,-3.392 -2,-3.67 -2,-4 c 0,-0.552 0.448,-1 1,-1 0.552,0 1,0.448 1,1 1.104,0 2,0.896 2,2 0,1.104 -0.896,2 -2,2" style="fill:#d1d3d4;fill-opacity:1;fill-rule:nonzero;stroke:none"/></g><g id="g92" transform="translate(20,37)"><path id="path94" d="m 0,0 c -1.104,0 -2,-0.896 -2,-2 0,-0.457 0.159,-0.873 0.417,-1.209 C -1.83,-3.392 -2,-3.67 -2,-4 c 0,-0.552 0.448,-1 1,-1 0.552,0 1,0.448 1,1 1.104,0 2,0.896 2,2 0,1.104 -0.896,2 -2,2" style="fill:#d1d3d4;fill-opacity:1;fill-rule:nonzero;stroke:none"/></g><g id="g96" transform="translate(30,37)"><path id="path98" d="m 0,0 c -1.104,0 -2,-0.896 -2,-2 0,-0.457 0.159,-0.873 0.417,-1.209 C -1.83,-3.392 -2,-3.67 -2,-4 c 0,-0.552 0.447,-1 1,-1 0.553,0 1,0.448 1,1 1.104,0 2,0.896 2,2 0,1.104 -0.896,2 -2,2" style="fill:#d1d3d4;fill-opacity:1;fill-rule:nonzero;stroke:none"/></g></g></g></g></svg>