<svg xmlns="http://www.w3.org/2000/svg" xmlns:svg="http://www.w3.org/2000/svg" style="enable-background:new 0 0 47.5 47.5" id="svg2" version="1.1" viewBox="0 0 47.5 47.5" xml:space="preserve"><defs id="defs6"><clipPath id="clipPath18"><path id="path20" d="M 0,38 38,38 38,0 0,0 0,38 z"/></clipPath></defs><g id="g12" transform="matrix(1.25,0,0,-1.25,0,47.5)"><g id="g14"><g id="g16" clip-path="url(#clipPath18)"><g id="g22" transform="translate(14,31)"><path id="path24" d="m 0,0 c 0,-3.313 -2.687,-6 -6,-6 -3.313,0 -6,2.687 -6,6 0,3.313 2.687,6 6,6 3.313,0 6,-2.687 6,-6" style="fill:#ffcc4d;fill-opacity:1;fill-rule:nonzero;stroke:none"/></g><g id="g26" transform="translate(25,7)"><path id="path28" d="m 0,0 c 0,-3.313 -2.687,-6 -6,-6 -3.313,0 -6,2.687 -6,6 0,3.313 2.687,6 6,6 3.313,0 6,-2.687 6,-6" style="fill:#ffcc4d;fill-opacity:1;fill-rule:nonzero;stroke:none"/></g><g id="g30" transform="translate(23,7)"><path id="path32" d="m 0,0 c 0,-2.209 -1.791,-4 -4,-4 -2.209,0 -4,1.791 -4,4 0,2.209 1.791,4 4,4 2.209,0 4,-1.791 4,-4" style="fill:#dd2e44;fill-opacity:1;fill-rule:nonzero;stroke:none"/></g><g id="g34" transform="translate(36,31)"><path id="path36" d="m 0,0 c 0,-3.313 -2.687,-6 -6,-6 -3.313,0 -6,2.687 -6,6 0,3.313 2.687,6 6,6 3.313,0 6,-2.687 6,-6" style="fill:#ffcc4d;fill-opacity:1;fill-rule:nonzero;stroke:none"/></g><g id="g38" transform="translate(12,31)"><path id="path40" d="m 0,0 c 0,-2.209 -1.791,-4 -4,-4 -2.209,0 -4,1.791 -4,4 0,2.209 1.791,4 4,4 2.209,0 4,-1.791 4,-4" style="fill:#e6aaaa;fill-opacity:1;fill-rule:nonzero;stroke:none"/></g><g id="g42" transform="translate(34,31)"><path id="path44" d="m 0,0 c 0,-2.209 -1.791,-4 -4,-4 -2.209,0 -4,1.791 -4,4 0,2.209 1.791,4 4,4 2.209,0 4,-1.791 4,-4" style="fill:#e6aaaa;fill-opacity:1;fill-rule:nonzero;stroke:none"/></g><g id="g46" transform="translate(35,15)"><path id="path48" d="m 0,0 c 0,-7 -4.923,-7 -4.923,-7 l -22.154,0 c 0,0 -4.923,0 -4.923,7 0,0 1.231,22 16,22 C -1.23,22 0,0 0,0" style="fill:#ffcc4d;fill-opacity:1;fill-rule:nonzero;stroke:none"/></g><g id="g50" transform="translate(12,20)"><path id="path52" d="M 0,0 C 0,0 0,2 2,2 4,2 4,0 4,0 l 0,-2 c 0,0 0,-2 -2,-2 -2,0 -2,2 -2,2 l 0,2 z" style="fill:#272b2b;fill-opacity:1;fill-rule:nonzero;stroke:none"/></g><g id="g54" transform="translate(22,20)"><path id="path56" d="M 0,0 C 0,0 0,2 2,2 4,2 4,0 4,0 l 0,-2 c 0,0 0,-2 -2,-2 -2,0 -2,2 -2,2 l 0,2 z" style="fill:#272b2b;fill-opacity:1;fill-rule:nonzero;stroke:none"/></g><g id="g58" transform="translate(24.6777,14)"><path id="path60" d="M 0,0 C -2.402,0 -4.501,-0.953 -5.678,-2.378 -6.855,-0.953 -8.955,0 -11.356,0 c -10.322,0 -10.279,-0.421 -10.322,-3.182 -0.087,-5.61 6.631,-6.9 10.322,-6.818 2.401,0.053 4.501,0.989 5.678,2.397 C -4.501,-9.011 -2.401,-9.947 0,-10 3.691,-10.082 10.409,-8.792 10.321,-3.182 10.278,-0.421 10.321,0 0,0" style="fill:#fff;fill-opacity:1;fill-rule:nonzero;stroke:none"/></g><g id="g62" transform="translate(34.6602,11.7578)"><path id="path64" d="m 0,0 c 0.204,-0.279 0.333,-0.588 0.339,-0.939 0.03,-1.906 -0.745,-3.303 -1.915,-4.328 L -6.661,-5.758 0,0 z" style="fill:#272b2b;fill-opacity:1;fill-rule:nonzero;stroke:none"/></g><g id="g66" transform="translate(16,12)"><path id="path68" d="M 0,0 C -1,-1 2,-4 3,-4 4,-4 7,-1 6,0 5,1 1,1 0,0" style="fill:#272b2b;fill-opacity:1;fill-rule:nonzero;stroke:none"/></g><g id="g70" transform="translate(11,34)"><path id="path72" d="m 0,0 c 2.667,-2 8,-4 8,-4 0,0 5.333,2 8,4 L 8,-1 0,0 z" style="fill:#272b2b;fill-opacity:1;fill-rule:nonzero;stroke:none"/></g><g id="g74" transform="translate(19,35)"><path id="path76" d="M 0,0 C 0,0 1.652,0.62 3.576,1.514 2.48,1.822 1.295,2 0,2 -1.295,2 -2.48,1.822 -3.576,1.514 -1.652,0.62 0,0 0,0" style="fill:#272b2b;fill-opacity:1;fill-rule:nonzero;stroke:none"/></g><g id="g78" transform="translate(12,28)"><path id="path80" d="m 0,0 c 3,-2 7,-4 7,-4 0,0 4,2 7,4 L 7,-1 0,0 z" style="fill:#272b2b;fill-opacity:1;fill-rule:nonzero;stroke:none"/></g><g id="g82" transform="translate(32.6445,25.7153)"><path id="path84" d="M 0,0 -4.645,-3.715 1.361,-4.466 C 1.027,-3.064 0.584,-1.537 0,0" style="fill:#272b2b;fill-opacity:1;fill-rule:nonzero;stroke:none"/></g><g id="g86" transform="translate(34.5557,18.5557)"><path id="path88" d="m 0,0 -5.556,-5.556 5.835,0 c 0.102,0.595 0.165,1.251 0.165,2 0,0 -0.081,1.43 -0.444,3.556" style="fill:#272b2b;fill-opacity:1;fill-rule:nonzero;stroke:none"/></g><g id="g90" transform="translate(3.4443,18.5557)"><path id="path92" d="m 0,0 c -0.363,-2.126 -0.444,-3.556 -0.444,-3.556 0,-0.748 0.063,-1.405 0.165,-2 l 5.835,0 L 0,0 z" style="fill:#272b2b;fill-opacity:1;fill-rule:nonzero;stroke:none"/></g><g id="g94" transform="translate(3.3389,11.7578)"><path id="path96" d="m 0,0 c -0.204,-0.279 -0.333,-0.588 -0.339,-0.939 -0.03,-1.906 0.745,-3.303 1.916,-4.328 L 6.661,-5.758 0,0 z" style="fill:#272b2b;fill-opacity:1;fill-rule:nonzero;stroke:none"/></g><g id="g98" transform="translate(10,22)"><path id="path100" d="M 0,0 -4.644,3.715 C -5.229,2.178 -5.672,0.651 -6.005,-0.75 L 0,0 z" style="fill:#272b2b;fill-opacity:1;fill-rule:nonzero;stroke:none"/></g></g></g></g></svg>