<svg xmlns="http://www.w3.org/2000/svg" xmlns:svg="http://www.w3.org/2000/svg" style="enable-background:new 0 0 47.5 47.5" id="svg2" version="1.1" viewBox="0 0 47.5 47.5" xml:space="preserve"><defs id="defs6"><clipPath id="clipPath18"><path id="path20" d="M 0,38 38,38 38,0 0,0 0,38 z"/></clipPath></defs><g id="g12" transform="matrix(1.25,0,0,-1.25,0,47.5)"><g id="g14"><g id="g16" clip-path="url(#clipPath18)"><g id="g22" transform="translate(34,20)"><path id="path24" d="m 0,0 c 0.461,-0.184 0.902,-3 -1,-3 -6,0 -11,-11 -20,-11 -9,0 -11,12.5 -11,15 0,2.5 4.82,10 12,10 7.18,0 15,-9 20,-11" style="fill:#d99e82;fill-opacity:1;fill-rule:nonzero;stroke:none"/></g><g id="g26" transform="translate(4,18)"><path id="path28" d="M 0,0 C 0,-0.553 -0.671,-1 -1.5,-1 -2.329,-1 -3,-0.553 -3,0 -3,0.553 -3,2 -1.5,1 -0.811,0.54 0,0.553 0,0" style="fill:#d99e82;fill-opacity:1;fill-rule:nonzero;stroke:none"/></g><g id="g30" transform="translate(34,20)"><path id="path32" d="m 0,0 c 0.461,-0.184 0.876,-0.687 -1,-1 -6,-1 -10.045,0.896 -19,0 -10,-1 -12,-1 -12,2 0,2.5 4.82,10 12,10 7.18,0 15,-9 20,-11" style="fill:#c1694f;fill-opacity:1;fill-rule:nonzero;stroke:none"/></g><g id="g34" transform="translate(31,19.5)"><path id="path36" d="M 0,0 C 0,-2.485 3.343,-4.5 5,-4.5 6.657,-4.5 5,-2.485 5,0 5,2.485 6.657,4.5 5,4.5 3.343,4.5 0,2.485 0,0" style="fill:#d99e82;fill-opacity:1;fill-rule:nonzero;stroke:none"/></g><g id="g38" transform="translate(9,24)"><path id="path40" d="m 0,0 c 0,-0.552 -0.448,-1 -1,-1 -0.552,0 -1,0.448 -1,1 0,0.552 0.448,1 1,1 0.552,0 1,-0.448 1,-1" style="fill:#292f33;fill-opacity:1;fill-rule:nonzero;stroke:none"/></g><g id="g42" transform="translate(20.1602,12)"><path id="path44" d="m 0,0 c 0,0 2.84,-4 4.84,-4 2,0 0,5 0,5 L 2,1 C -1,1 0,0 0,0" style="fill:#d99e82;fill-opacity:1;fill-rule:nonzero;stroke:none"/></g><g id="g46" transform="translate(22.3506,28.0771)"><path id="path48" d="m 0,0 c 0,0 2.86,2.817 4.649,1.923 4.075,-2.036 -2,-4 -2,-4 L 1.057,-1.971 C -1.937,-1.771 0,0 0,0" style="fill:#c1694f;fill-opacity:1;fill-rule:nonzero;stroke:none"/></g><g id="g50" transform="translate(19,12)"><path id="path52" d="m 0,0 c 0,-1.104 -0.896,-2 -2,-2 -1.104,0 -2,0.896 -2,2 0,1.104 0.896,2 2,2 1.104,0 2,-0.896 2,-2" style="fill:#c1694f;fill-opacity:1;fill-rule:nonzero;stroke:none"/></g><g id="g54" transform="translate(22,16)"><path id="path56" d="m 0,0 c 0,-0.553 -0.447,-1 -1,-1 -0.553,0 -1,0.447 -1,1 0,0.553 0.447,1 1,1 0.553,0 1,-0.447 1,-1" style="fill:#c1694f;fill-opacity:1;fill-rule:nonzero;stroke:none"/></g><g id="g58" transform="translate(27,16.5)"><path id="path60" d="M 0,0 C 0,-0.828 -0.672,-1.5 -1.5,-1.5 -2.328,-1.5 -3,-0.828 -3,0 -3,0.828 -2.328,1.5 -1.5,1.5 -0.672,1.5 0,0.828 0,0" style="fill:#c1694f;fill-opacity:1;fill-rule:nonzero;stroke:none"/></g><g id="g62" transform="translate(19,22.5)"><path id="path64" d="M 0,0 C 0,-0.829 -0.671,-1.5 -1.5,-1.5 -2.329,-1.5 -3,-0.829 -3,0 -3,0.829 -2.329,1.5 -1.5,1.5 -0.671,1.5 0,0.829 0,0" style="fill:#662113;fill-opacity:1;fill-rule:nonzero;stroke:none"/></g><g id="g66" transform="translate(26,21.5)"><path id="path68" d="M 0,0 C 0,-0.829 -0.672,-1.5 -1.5,-1.5 -2.328,-1.5 -3,-0.829 -3,0 -3,0.829 -2.328,1.5 -1.5,1.5 -0.672,1.5 0,0.829 0,0" style="fill:#662113;fill-opacity:1;fill-rule:nonzero;stroke:none"/></g><g id="g70" transform="translate(22,26)"><path id="path72" d="m 0,0 c 0,-0.552 -0.447,-1 -1,-1 -0.553,0 -1,0.448 -1,1 0,0.552 0.447,1 1,1 0.553,0 1,-0.448 1,-1" style="fill:#662113;fill-opacity:1;fill-rule:nonzero;stroke:none"/></g><g id="g74" transform="translate(4,20)"><path id="path76" d="M 0,0 C 0,-0.552 1,-2 -1.5,-1 -2.27,-0.692 -3,-0.552 -3,0 -3,0.552 -2.329,1 -1.5,1 -0.671,1 0,0.552 0,0" style="fill:#c1694f;fill-opacity:1;fill-rule:nonzero;stroke:none"/></g></g></g></g></svg>