<svg xmlns="http://www.w3.org/2000/svg" xmlns:svg="http://www.w3.org/2000/svg" style="enable-background:new 0 0 47.5 47.5" id="svg2" version="1.1" viewBox="0 0 47.5 47.5" xml:space="preserve"><defs id="defs6"><clipPath id="clipPath18"><path id="path20" d="M 0,38 38,38 38,0 0,0 0,38 z"/></clipPath></defs><g id="g12" transform="matrix(1.25,0,0,-1.25,0,47.5)"><g id="g14"><g id="g16" clip-path="url(#clipPath18)"><g id="g22" transform="translate(18,27.5)"><path id="path24" d="m 0,0 c 0,-4.695 -3.805,-8.5 -8.5,-8.5 -4.695,0 -8.5,3.805 -8.5,8.5 0,4.695 3.805,8.5 8.5,8.5 C -3.805,8.5 0,4.695 0,0" style="fill:#99aab5;fill-opacity:1;fill-rule:nonzero;stroke:none"/></g><g id="g26" transform="translate(37,27.5)"><path id="path28" d="m 0,0 c 0,-4.695 -3.806,-8.5 -8.5,-8.5 -4.694,0 -8.5,3.805 -8.5,8.5 0,4.695 3.806,8.5 8.5,8.5 C -3.806,8.5 0,4.695 0,0" style="fill:#99aab5;fill-opacity:1;fill-rule:nonzero;stroke:none"/></g><g id="g30" transform="translate(14.8125,26.9688)"><path id="path32" d="m 0,0 c 0,-3.228 -2.617,-5.844 -5.844,-5.844 -3.227,0 -5.844,2.616 -5.844,5.844 0,3.227 2.617,5.844 5.844,5.844 C -2.617,5.844 0,3.227 0,0" style="fill:#f4abba;fill-opacity:1;fill-rule:nonzero;stroke:none"/></g><g id="g34" transform="translate(34.875,26.9688)"><path id="path36" d="m 0,0 c 0,-3.228 -2.617,-5.844 -5.844,-5.844 -3.226,0 -5.844,2.616 -5.844,5.844 0,3.227 2.618,5.844 5.844,5.844 C -2.617,5.844 0,3.227 0,0" style="fill:#f4abba;fill-opacity:1;fill-rule:nonzero;stroke:none"/></g><g id="g38" transform="translate(31,19)"><path id="path40" d="m 0,0 c 0,-7.18 -8,-15 -12,-15 -4,0 -12,7.82 -12,15 0,7.18 7,9 12,9 C -7,9 0,7.18 0,0" style="fill:#99aab5;fill-opacity:1;fill-rule:nonzero;stroke:none"/></g><g id="g42" transform="translate(21.9053,7.3516)"><path id="path44" d="m 0,0 c 0,-1.604 -2.012,-3.352 -2.905,-3.352 -0.894,0 -2.906,1.748 -2.906,3.352 0,1.605 1.788,1.956 2.906,1.956 C -1.788,1.956 0,1.605 0,0" style="fill:#f4abba;fill-opacity:1;fill-rule:nonzero;stroke:none"/></g><g id="g46" transform="translate(35.999,4.8398)"><path id="path48" d="M 0,0 C -0.175,0 -0.353,0.046 -0.514,0.143 -5.142,2.92 -11.792,2.02 -11.858,2.01 c -0.56,-0.079 -1.053,0.303 -1.13,0.849 -0.078,0.547 0.301,1.053 0.847,1.131 C -11.84,4.032 -4.729,5.004 0.516,1.857 0.989,1.573 1.143,0.959 0.858,0.485 0.671,0.173 0.34,0 0,0" style="fill:#66757f;fill-opacity:1;fill-rule:nonzero;stroke:none"/></g><g id="g50" transform="translate(33.001,1.8398)"><path id="path52" d="m 0,0 c -0.305,0 -0.604,0.138 -0.801,0.4 -2.728,3.637 -8.308,4.604 -8.364,4.614 -0.545,0.09 -0.913,0.606 -0.822,1.15 0.09,0.545 0.606,0.92 1.15,0.822 C -8.575,6.942 -2.404,5.871 0.799,1.6 1.131,1.158 1.041,0.531 0.599,0.2 0.419,0.065 0.209,0 0,0" style="fill:#66757f;fill-opacity:1;fill-rule:nonzero;stroke:none"/></g><g id="g54" transform="translate(2.001,4.8398)"><path id="path56" d="M 0,0 C -0.34,0 -0.671,0.173 -0.858,0.485 -1.143,0.959 -0.989,1.573 -0.516,1.857 4.729,5.004 11.839,4.032 12.141,3.99 12.687,3.912 13.066,3.406 12.989,2.859 12.911,2.313 12.407,1.93 11.858,2.01 11.792,2.019 5.141,2.919 0.514,0.143 0.353,0.046 0.175,0 0,0" style="fill:#66757f;fill-opacity:1;fill-rule:nonzero;stroke:none"/></g><g id="g58" transform="translate(4.999,1.8398)"><path id="path60" d="M 0,0 C -0.208,0 -0.419,0.065 -0.599,0.2 -1.041,0.531 -1.13,1.158 -0.799,1.6 2.404,5.871 8.576,6.942 8.836,6.986 9.385,7.083 9.896,6.71 9.987,6.165 10.078,5.621 9.71,5.105 9.167,5.014 9.11,5.004 3.518,4.022 0.801,0.4 0.604,0.138 0.304,0 0,0" style="fill:#66757f;fill-opacity:1;fill-rule:nonzero;stroke:none"/></g><g id="g62" transform="translate(13,16)"><path id="path64" d="M 0,0 C 0,0 0,2 2,2 4,2 4,0 4,0 l 0,-2 c 0,0 0,-2 -2,-2 -2,0 -2,2 -2,2 l 0,2 z" style="fill:#272b2b;fill-opacity:1;fill-rule:nonzero;stroke:none"/></g><g id="g66" transform="translate(21,16)"><path id="path68" d="M 0,0 C 0,0 0,2 2,2 4,2 4,0 4,0 l 0,-2 c 0,0 0,-2 -2,-2 -2,0 -2,2 -2,2 l 0,2 z" style="fill:#272b2b;fill-opacity:1;fill-rule:nonzero;stroke:none"/></g></g></g></g></svg>