<svg xmlns="http://www.w3.org/2000/svg" xmlns:svg="http://www.w3.org/2000/svg" style="enable-background:new 0 0 47.5 47.5" id="svg2" version="1.1" viewBox="0 0 47.5 47.5" xml:space="preserve"><defs id="defs6"><clipPath id="clipPath18"><path id="path20" d="M 0,38 38,38 38,0 0,0 0,38 z"/></clipPath></defs><g id="g12" transform="matrix(1.25,0,0,-1.25,0,47.5)"><g id="g14"><g id="g16" clip-path="url(#clipPath18)"><g id="g22" transform="translate(36,19)"><path id="path24" d="m 0,0 c 0,-6.075 -4.925,-11 -11,-11 l -12,0 c -6.075,0 -11,4.925 -11,11 0,6.075 4.925,11 11,11 l 12,0 C -4.925,11 0,6.075 0,0" style="fill:#e6aaaa;fill-opacity:1;fill-rule:nonzero;stroke:none"/></g><g id="g26" transform="translate(15,19)"><path id="path28" d="m 0,0 c 0,-3.313 -1.791,-6 -4,-6 -2.209,0 -4,2.687 -4,6 0,3.313 1.791,6 4,6 2.209,0 4,-2.687 4,-6" style="fill:#662113;fill-opacity:1;fill-rule:nonzero;stroke:none"/></g><g id="g30" transform="translate(31,19)"><path id="path32" d="m 0,0 c 0,-3.313 -1.791,-6 -4,-6 -2.209,0 -4,2.687 -4,6 0,3.313 1.791,6 4,6 2.209,0 4,-2.687 4,-6" style="fill:#662113;fill-opacity:1;fill-rule:nonzero;stroke:none"/></g></g></g></g></svg>