<svg xmlns="http://www.w3.org/2000/svg" xmlns:svg="http://www.w3.org/2000/svg" style="enable-background:new 0 0 47.5 47.5" id="svg2" version="1.1" viewBox="0 0 47.5 47.5" xml:space="preserve"><defs id="defs6"><clipPath id="clipPath18"><path id="path20" d="M 0,38 38,38 38,0 0,0 0,38 z"/></clipPath></defs><g id="g12" transform="matrix(1.25,0,0,-1.25,0,47.5)"><g id="g14"><g id="g16" clip-path="url(#clipPath18)"><g id="g22" transform="translate(37,29.5)"><path id="path24" d="m 0,0 c 0,-4.5 -8.059,-11.5 -18,-11.5 -9.941,0 -18,7 -18,11.5 0,1.5 3,-1.5 18,-1.5 15,0 18,3 18,1.5" style="fill:#662113;fill-opacity:1;fill-rule:nonzero;stroke:none"/></g><g id="g26" transform="translate(19,26)"><path id="path28" d="m 0,0 c -6,0 -11,1 -11,1 l 0,-12 c 0,-6.075 4.925,-11 11,-11 6.075,0 11,4.925 11,11 L 11,1 C 11,1 6,0 0,0" style="fill:#ea596e;fill-opacity:1;fill-rule:nonzero;stroke:none"/></g><g id="g30" transform="translate(20,8)"><path id="path32" d="m 0,0 c 0,-0.553 -0.448,-1 -1,-1 -0.552,0 -1,0.447 -1,1 l 0,16 c 0,0.552 0.448,1 1,1 0.552,0 1,-0.448 1,-1 L 0,0 z" style="fill:#dd2e44;fill-opacity:1;fill-rule:nonzero;stroke:none"/></g></g></g></g></svg>