<svg xmlns="http://www.w3.org/2000/svg" xmlns:svg="http://www.w3.org/2000/svg" style="enable-background:new 0 0 47.5 47.5" id="svg2" version="1.1" viewBox="0 0 47.5 47.5" xml:space="preserve"><defs id="defs6"><clipPath id="clipPath18"><path id="path20" d="M 0,38 38,38 38,0 0,0 0,38 z"/></clipPath></defs><g id="g12" transform="matrix(1.25,0,0,-1.25,0,47.5)"><g id="g14"><g id="g16" clip-path="url(#clipPath18)"><g id="g22" transform="translate(37,14)"><path id="path24" d="m 0,0 c 0,-2.071 -8.059,-5 -18,-5 -9.941,0 -18,2.929 -18,5 0,2.071 8.059,5 18,5 C -8.059,5 0,2.071 0,0" style="fill:#ffd983;fill-opacity:1;fill-rule:nonzero;stroke:none"/></g><g id="g26" transform="translate(30,20)"><path id="path28" d="m 0,0 c 0,-1.566 -4.925,-6 -11,-6 -6.075,0 -10.957,4.434 -10.957,6 0,7 6.957,10 10.957,10 C -7,10 0,7 0,0" style="fill:#ffd983;fill-opacity:1;fill-rule:nonzero;stroke:none"/></g><g id="g30" transform="translate(30,16)"><path id="path32" d="m 0,0 c -5,-3 -17,-3 -22,0 0,0.492 0.043,3.535 0.043,4 C -16,1 -6,1 0,4 -0.003,3.535 0,0.492 0,0" style="fill:#9266cc;fill-opacity:1;fill-rule:nonzero;stroke:none"/></g><g id="g34" transform="translate(20,13)"><path id="path36" d="m 0,0 c 0,-1.104 -0.448,-2 -1,-2 -0.553,0 -1,0.896 -1,2 0,1.104 0.447,2 1,2 0.552,0 1,-0.896 1,-2" style="fill:#fff;fill-opacity:1;fill-rule:nonzero;stroke:none"/></g><g id="g38" transform="translate(20,19)"><path id="path40" d="m 0,0 c 0,-1.104 -0.448,-2 -1,-2 -0.553,0 -1,0.896 -1,2 0,1.104 0.447,2 1,2 0.552,0 1,-0.896 1,-2" style="fill:#fff;fill-opacity:1;fill-rule:nonzero;stroke:none"/></g><g id="g42" transform="translate(17.5859,13.1719)"><path id="path44" d="m 0,0 c -0.781,-0.781 -1.731,-1.098 -2.122,-0.707 -0.39,0.391 -0.073,1.34 0.707,2.121 0.782,0.781 1.731,1.098 2.122,0.707 C 1.098,1.73 0.781,0.78 0,0" style="fill:#fff;fill-opacity:1;fill-rule:nonzero;stroke:none"/></g><g id="g46" transform="translate(21.8281,17.4141)"><path id="path48" d="m 0,0 c -0.78,-0.781 -1.73,-1.098 -2.121,-0.707 -0.391,0.391 -0.074,1.34 0.707,2.122 0.781,0.78 1.73,1.097 2.121,0.707 C 1.098,1.731 0.781,0.781 0,0" style="fill:#fff;fill-opacity:1;fill-rule:nonzero;stroke:none"/></g><g id="g50" transform="translate(16.0005,15)"><path id="path52" d="M 0,0 C -1.105,0 -2,0.448 -2,1 -2,1.553 -1.105,2 0,2 1.104,2 2,1.553 2,1 2,0.447 1.104,0 0,0" style="fill:#fff;fill-opacity:1;fill-rule:nonzero;stroke:none"/></g><g id="g54" transform="translate(22,15)"><path id="path56" d="M 0,0 C -1.104,-0.001 -2,0.447 -2,1 -2,1.553 -1.104,2 0,2 1.104,2 2,1.553 2,1 2,0.448 1.104,0 0,0" style="fill:#fff;fill-opacity:1;fill-rule:nonzero;stroke:none"/></g><g id="g58" transform="translate(16.1719,17.4131)"><path id="path60" d="M 0,0 C -0.782,0.782 -1.098,1.732 -0.708,2.122 -0.317,2.513 0.633,2.196 1.414,1.415 2.195,0.633 2.512,-0.315 2.121,-0.706 1.73,-1.098 0.78,-0.78 0,0" style="fill:#fff;fill-opacity:1;fill-rule:nonzero;stroke:none"/></g><g id="g62" transform="translate(20.4141,13.1709)"><path id="path64" d="M 0,0 C -0.782,0.78 -1.098,1.73 -0.707,2.121 -0.316,2.513 0.633,2.195 1.414,1.414 2.195,0.634 2.512,-0.316 2.121,-0.707 1.731,-1.097 0.781,-0.781 0,0" style="fill:#fff;fill-opacity:1;fill-rule:nonzero;stroke:none"/></g><g id="g66" transform="translate(21,16)"><path id="path68" d="m 0,0 c 0,-1.104 -0.896,-2 -2,-2 -1.105,0 -2,0.896 -2,2 0,1.104 0.895,2 2,2 1.104,0 2,-0.896 2,-2" style="fill:#ffac33;fill-opacity:1;fill-rule:nonzero;stroke:none"/></g></g></g></g></svg>