<svg xmlns="http://www.w3.org/2000/svg" xmlns:svg="http://www.w3.org/2000/svg" style="enable-background:new 0 0 47.5 47.5" id="svg2" version="1.1" viewBox="0 0 47.5 47.5" xml:space="preserve"><defs id="defs6"><clipPath id="clipPath22"><path id="path24" d="M 0,38 38,38 38,0 0,0 0,38 z"/></clipPath></defs><g id="g12" transform="matrix(1.25,0,0,-1.25,0,47.5)"><g id="g14" transform="translate(8,2)"><path id="path16" d="m 0,0 -3,0 1,9.712 3,0 L 0,0 z" style="fill:#d79e84;fill-opacity:1;fill-rule:nonzero;stroke:none"/></g><g id="g18"><g id="g20" clip-path="url(#clipPath22)"><g id="g26" transform="translate(13.8755,3.208)"><path id="path28" d="m 0,0 -1.833,1.333 c 0,0 3.166,3.012 2.531,3.994 -0.636,0.982 -3.782,1.688 -3.782,1.688 l 1.918,2.306 c 0,0 3.958,-1.904 4.77,-3.333 C 4.43,4.537 0,0 0,0" style="fill:#d79e84;fill-opacity:1;fill-rule:nonzero;stroke:none"/></g><g id="g30" transform="translate(4,1)"><path id="path32" d="M 0,0 0,1 C 0,1 0,2 2,2 4,2 4,1 4,1 L 4,0 0,0 z" style="fill:#292f33;fill-opacity:1;fill-rule:nonzero;stroke:none"/></g><g id="g34" transform="translate(14.5532,1.5166)"><path id="path36" d="m 0,0 0.421,0.908 c 0,0 0.419,0.907 -1.396,1.747 C -2.788,3.496 -3.208,2.589 -3.208,2.589 L -3.628,1.682 0,0 z" style="fill:#292f33;fill-opacity:1;fill-rule:nonzero;stroke:none"/></g><g id="g38" transform="translate(5,10.7119)"><path id="path40" d="m 0,0 c -0.256,0 -0.512,0.098 -0.707,0.293 l -3,3 c -0.36,0.36 -0.392,0.934 -0.074,1.332 l 4,3.288 C 0.564,8.345 1.194,8.414 1.625,8.069 2.056,7.724 2.126,7.095 1.781,6.663 L -1.66,4.074 0.707,1.707 C 1.098,1.316 1.098,0.684 0.707,0.293 0.512,0.098 0.256,0 0,0" style="fill:#d79e84;fill-opacity:1;fill-rule:nonzero;stroke:none"/></g><g id="g42" transform="translate(15,10.7119)"><path id="path44" d="m 0,0 c -0.256,0 -0.512,0.098 -0.707,0.293 -0.391,0.391 -0.391,1.023 0,1.414 L 1.66,4.074 -1.781,6.663 c -0.345,0.432 -0.275,1.061 0.156,1.406 0.431,0.345 1.061,0.276 1.406,-0.156 l 4,-3.288 C 4.1,4.227 4.067,3.653 3.707,3.293 l -3,-3 C 0.512,0.098 0.256,0 0,0" style="fill:#d79e84;fill-opacity:1;fill-rule:nonzero;stroke:none"/></g><g id="g46" transform="translate(16,18)"><path id="path48" d="m 0,0 c 0,1.104 -0.896,2 -2,2 l -2,0 -4,0 -2,0 c -1.104,0 -2,-0.896 -2,-2 l 0,-1 2,0 0,-1.288 0,-1 0,-3 3,-2 2,0 3,2 0,3 0,1 0,1.288 2,0 0,1 z" style="fill:#292f33;fill-opacity:1;fill-rule:nonzero;stroke:none"/></g><g id="g50" transform="translate(17,27.999)"><path id="path52" d="m 0,0 c 0,3.314 -2.687,6.001 -6,6.001 -1.264,0 -2.435,-0.393 -3.402,-1.061 -0.197,0.03 -0.393,0.061 -0.598,0.061 -2.209,0 -4,-1.791 -4,-4 l 0,-6 4.686,0 c 0.949,-0.631 2.088,-1 3.314,-1 1.226,0 2.364,0.369 3.314,1 L 0,-4.999 0,0 z" style="fill:#ffd983;fill-opacity:1;fill-rule:nonzero;stroke:none"/></g><g id="g54" transform="translate(12,20)"><path id="path56" d="m 0,0 0,3 -4,0 0,-3 -1,0 0,-1 c 0,0 0,-3 3,-3 3,0 3,3 3,3 L 1,0 0,0 z" style="fill:#d79e84;fill-opacity:1;fill-rule:nonzero;stroke:none"/></g><g id="g58" transform="translate(12,23)"><path id="path60" d="M 0,0 -4,-0.019 -4,-4 c 0,0 2,-1 4,0 l 0,4 z" style="fill:#bf6952;fill-opacity:1;fill-rule:nonzero;stroke:none"/></g><g id="g62" transform="translate(15,31)"><path id="path64" d="m 0,0 -10,0 0,-6 0,0 c 0,-2.763 2.238,-5 5,-5 2.761,0 5,2.237 5,5 l 0,0 0,6 z" style="fill:#d79e84;fill-opacity:1;fill-rule:nonzero;stroke:none"/></g><g id="g66" transform="translate(8,31)"><path id="path68" d="M 0,0 C 0,0 0,-4 8,-4 L 8,0 0,0 z" style="fill:#ffd983;fill-opacity:1;fill-rule:nonzero;stroke:none"/></g><g id="g70" transform="translate(8,31)"><path id="path72" d="m 0,0 c 0,0 0,-4 -4,-4 l 0,4 4,0 z" style="fill:#ffd983;fill-opacity:1;fill-rule:nonzero;stroke:none"/></g><g id="g74" transform="translate(12,22)"><path id="path76" d="m 0,0 -2,0 -2,0 c 0,0 0,-1 2,-1 2,0 2,1 2,1" style="fill:#c1694f;fill-opacity:1;fill-rule:nonzero;stroke:none"/></g><g id="g78" transform="translate(8,25.5)"><path id="path80" d="M 0,0 C 0,-0.276 -0.224,-0.5 -0.5,-0.5 -0.776,-0.5 -1,-0.276 -1,0 -1,0.276 -0.776,0.5 -0.5,0.5 -0.224,0.5 0,0.276 0,0" style="fill:#664500;fill-opacity:1;fill-rule:nonzero;stroke:none"/></g><g id="g82" transform="translate(13,25.5)"><path id="path84" d="M 0,0 C 0,-0.276 -0.224,-0.5 -0.5,-0.5 -0.776,-0.5 -1,-0.276 -1,0 -1,0.276 -0.776,0.5 -0.5,0.5 -0.224,0.5 0,0.276 0,0" style="fill:#664500;fill-opacity:1;fill-rule:nonzero;stroke:none"/></g><g id="g86" transform="translate(9,24)"><path id="path88" d="M 0,0 1,0 2,0 C 2,0 2,-1 1,-1 0,-1 0,0 0,0" style="fill:#c1694f;fill-opacity:1;fill-rule:nonzero;stroke:none"/></g><g id="g90" transform="translate(4.6875,35.875)"><path id="path92" d="M 0,0 C 2.625,0.219 3.75,-2.875 3,-4.25 1.031,-4.25 -0.937,-2.438 0,0" style="fill:#292f33;fill-opacity:1;fill-rule:nonzero;stroke:none"/></g><g id="g94" transform="translate(14.6748,35.8125)"><path id="path96" d="m 0,0 c -2.625,0.219 -3.75,-2.875 -3,-4.25 1.969,0 3.937,1.812 3,4.25" style="fill:#292f33;fill-opacity:1;fill-rule:nonzero;stroke:none"/></g><g id="g98" transform="translate(7.3125,32.75)"><path id="path100" d="M 0,0 C 1.812,1.437 4.344,1.062 5.156,-0.156 5.187,-0.469 4.786,-1.334 4.469,-1.187 3.656,-0.812 2.281,-0.25 0.406,-1.125 0.312,-1.062 -0.035,-0.027 0,0" style="fill:#292f33;fill-opacity:1;fill-rule:nonzero;stroke:none"/></g><g id="g102" transform="translate(24,2)"><path id="path104" d="m 0,0 -3,0 1,9.712 3,0 L 0,0 z" style="fill:#d79e84;fill-opacity:1;fill-rule:nonzero;stroke:none"/></g><g id="g106" transform="translate(29.875,3.208)"><path id="path108" d="m 0,0 -1.833,1.333 c 0,0 3.167,3.012 2.531,3.994 -0.636,0.982 -3.782,1.688 -3.782,1.688 l 1.918,2.306 c 0,0 3.958,-1.904 4.77,-3.333 C 4.43,4.537 0,0 0,0" style="fill:#d79e84;fill-opacity:1;fill-rule:nonzero;stroke:none"/></g><g id="g110" transform="translate(30.5527,1.5166)"><path id="path112" d="m 0,0 0.422,0.908 c 0,0 0.418,0.907 -1.397,1.747 C -2.787,3.496 -3.207,2.589 -3.207,2.589 L -3.627,1.682 0,0 z" style="fill:#292f33;fill-opacity:1;fill-rule:nonzero;stroke:none"/></g><g id="g114" transform="translate(20,1)"><path id="path116" d="M 0,0 0,1 C 0,1 0,2 2,2 4,2 4,1 4,1 L 4,0 0,0 z" style="fill:#292f33;fill-opacity:1;fill-rule:nonzero;stroke:none"/></g><g id="g118" transform="translate(21,10.7119)"><path id="path120" d="m 0,0 c -0.256,0 -0.512,0.098 -0.707,0.293 l -3,3 c -0.36,0.36 -0.392,0.934 -0.074,1.332 l 4,3.288 C 0.564,8.345 1.194,8.414 1.625,8.069 2.057,7.724 2.126,7.095 1.781,6.663 L -1.66,4.074 0.707,1.707 C 1.098,1.316 1.098,0.684 0.707,0.293 0.512,0.098 0.256,0 0,0" style="fill:#d79e84;fill-opacity:1;fill-rule:nonzero;stroke:none"/></g><g id="g122" transform="translate(31,10.7119)"><path id="path124" d="m 0,0 c -0.256,0 -0.512,0.098 -0.707,0.293 -0.391,0.391 -0.391,1.023 0,1.414 L 1.66,4.074 -1.781,6.663 c -0.345,0.432 -0.276,1.061 0.156,1.406 0.431,0.345 1.061,0.276 1.406,-0.156 l 4,-3.288 C 4.1,4.227 4.067,3.653 3.707,3.293 l -3,-3 C 0.512,0.098 0.256,0 0,0" style="fill:#d79e84;fill-opacity:1;fill-rule:nonzero;stroke:none"/></g><g id="g126" transform="translate(32,18)"><path id="path128" d="m 0,0 c 0,1.104 -0.896,2 -2,2 l -2,0 -4,0 -2,0 c -1.104,0 -2,-0.896 -2,-2 l 0,-1 2,0 0,-1.288 0,-1 0,-3 3,-2 2,0 3,2 0,3 0,1 0,1.288 2,0 0,1 z" style="fill:#292f33;fill-opacity:1;fill-rule:nonzero;stroke:none"/></g><g id="g130" transform="translate(33,27.999)"><path id="path132" d="m 0,0 c 0,3.314 -2.687,6.001 -6,6.001 -1.264,0 -2.436,-0.393 -3.402,-1.061 -0.197,0.03 -0.393,0.061 -0.598,0.061 -2.209,0 -4,-1.791 -4,-4 l 0,-6 4.686,0 c 0.949,-0.631 2.087,-1 3.314,-1 1.226,0 2.364,0.369 3.314,1 L 0,-4.999 0,0 z" style="fill:#ffd983;fill-opacity:1;fill-rule:nonzero;stroke:none"/></g><g id="g134" transform="translate(28,20)"><path id="path136" d="m 0,0 0,3 -4,0 0,-3 -1,0 0,-1 c 0,0 0,-3 3,-3 3,0 3,3 3,3 L 1,0 0,0 z" style="fill:#d79e84;fill-opacity:1;fill-rule:nonzero;stroke:none"/></g><g id="g138" transform="translate(28,23)"><path id="path140" d="M 0,0 -4,-0.019 -4,-4 c 0,0 2,-1 4,0 l 0,4 z" style="fill:#bf6952;fill-opacity:1;fill-rule:nonzero;stroke:none"/></g><g id="g142" transform="translate(31,31)"><path id="path144" d="m 0,0 -10,0 0,-6 0,0 c 0,-2.763 2.238,-5 5,-5 2.762,0 5,2.237 5,5 l 0,0 0,6 z" style="fill:#d79e84;fill-opacity:1;fill-rule:nonzero;stroke:none"/></g><g id="g146" transform="translate(24,31)"><path id="path148" d="M 0,0 C 0,0 0,-4 8,-4 L 8,0 0,0 z" style="fill:#ffd983;fill-opacity:1;fill-rule:nonzero;stroke:none"/></g><g id="g150" transform="translate(24,31)"><path id="path152" d="m 0,0 c 0,0 0,-4 -4,-4 l 0,4 4,0 z" style="fill:#ffd983;fill-opacity:1;fill-rule:nonzero;stroke:none"/></g><g id="g154" transform="translate(28,22)"><path id="path156" d="m 0,0 -2,0 -2,0 c 0,0 0,-1 2,-1 2,0 2,1 2,1" style="fill:#c1694f;fill-opacity:1;fill-rule:nonzero;stroke:none"/></g><g id="g158" transform="translate(24,25.5)"><path id="path160" d="M 0,0 C 0,-0.276 -0.224,-0.5 -0.5,-0.5 -0.776,-0.5 -1,-0.276 -1,0 -1,0.276 -0.776,0.5 -0.5,0.5 -0.224,0.5 0,0.276 0,0" style="fill:#664500;fill-opacity:1;fill-rule:nonzero;stroke:none"/></g><g id="g162" transform="translate(29,25.5)"><path id="path164" d="M 0,0 C 0,-0.276 -0.224,-0.5 -0.5,-0.5 -0.776,-0.5 -1,-0.276 -1,0 -1,0.276 -0.776,0.5 -0.5,0.5 -0.224,0.5 0,0.276 0,0" style="fill:#664500;fill-opacity:1;fill-rule:nonzero;stroke:none"/></g><g id="g166" transform="translate(25,24)"><path id="path168" d="M 0,0 1,0 2,0 C 2,0 2,-1 1,-1 0,-1 0,0 0,0" style="fill:#c1694f;fill-opacity:1;fill-rule:nonzero;stroke:none"/></g><g id="g170" transform="translate(20.7813,35.875)"><path id="path172" d="M 0,0 C 2.625,0.219 3.75,-2.875 3,-4.25 1.031,-4.25 -0.937,-2.438 0,0" style="fill:#292f33;fill-opacity:1;fill-rule:nonzero;stroke:none"/></g><g id="g174" transform="translate(30.7686,35.8125)"><path id="path176" d="m 0,0 c -2.625,0.219 -3.75,-2.875 -3,-4.25 1.969,0 3.937,1.812 3,4.25" style="fill:#292f33;fill-opacity:1;fill-rule:nonzero;stroke:none"/></g><g id="g178" transform="translate(23.4063,32.75)"><path id="path180" d="M 0,0 C 1.812,1.437 4.344,1.062 5.156,-0.156 5.187,-0.469 4.786,-1.334 4.469,-1.187 3.656,-0.812 2.281,-0.25 0.406,-1.125 0.312,-1.062 -0.035,-0.027 0,0" style="fill:#292f33;fill-opacity:1;fill-rule:nonzero;stroke:none"/></g></g></g></g></svg>