<svg xmlns="http://www.w3.org/2000/svg" xmlns:svg="http://www.w3.org/2000/svg" style="enable-background:new 0 0 47.5 47.5" id="svg2" version="1.1" viewBox="0 0 47.5 47.5" xml:space="preserve"><defs id="defs6"><clipPath id="clipPath18"><path id="path20" d="M 0,38 38,38 38,0 0,0 0,38 z"/></clipPath></defs><g id="g12" transform="matrix(1.25,0,0,-1.25,0,47.5)"><g id="g14"><g id="g16" clip-path="url(#clipPath18)"><g id="g22" transform="translate(30.96,13.9131)"><path id="path24" d="m 0,0 c 4.04,-3.913 4.083,-10.935 3.062,-10.935 -1.022,0 -4.116,1.852 -6.069,3.937 -1.953,2.085 -1.75,6.779 -1.75,6.779 l 1.586,4.32 C -3.171,4.101 -4.04,3.913 0,0" style="fill:#662113;fill-opacity:1;fill-rule:nonzero;stroke:none"/></g><g id="g26" transform="translate(27.96,13.9131)"><path id="path28" d="m 0,0 c 4.04,-3.913 4.083,-10.935 3.062,-10.935 -1.022,0 -4.116,1.852 -6.069,3.937 -1.953,2.085 -1.75,6.779 -1.75,6.779 l 1.586,4.32 C -3.171,4.101 -4.04,3.913 0,0" style="fill:#662113;fill-opacity:1;fill-rule:nonzero;stroke:none"/></g><g id="g30" transform="translate(4,3)"><path id="path32" d="m 0,0 c -1,0 -1,7 3,11 4,4 3,4 3,4 L 8,11 C 8,11 8,6 6,4 4,2 1,0 0,0" style="fill:#662113;fill-opacity:1;fill-rule:nonzero;stroke:none"/></g><g id="g34" transform="translate(7,3)"><path id="path36" d="m 0,0 c -1,0 -1,7 3,11 4,4 3,4 3,4 L 8,11 C 8,11 8,6 6,4 4,2 1,0 0,0" style="fill:#662113;fill-opacity:1;fill-rule:nonzero;stroke:none"/></g><g id="g38" transform="translate(7.9141,18.647)"><path id="path40" d="M 0,0 C -0.571,2.134 -2.116,3.575 -3.45,3.217 -4.784,2.86 -5.4,0.84 -4.829,-1.293 -4.258,-3.428 -2.713,-4.868 -1.379,-4.51 -0.045,-4.153 0.572,-2.133 0,0" style="fill:#d99e82;fill-opacity:1;fill-rule:nonzero;stroke:none"/></g><g id="g42" transform="translate(34.915,17.3525)"><path id="path44" d="M 0,0 C 0.571,2.134 -0.046,4.154 -1.38,4.512 -2.713,4.868 -4.258,3.429 -4.829,1.294 -5.401,-0.84 -4.784,-2.859 -3.45,-3.217 -2.116,-3.574 -0.571,-2.134 0,0" style="fill:#d99e82;fill-opacity:1;fill-rule:nonzero;stroke:none"/></g><g id="g46" transform="translate(32,18)"><path id="path48" d="m 0,0 c 0,9.389 -5.82,16 -13,16 -7.18,0 -13,-6.611 -13,-16 0,-9.389 5.82,-15 13,-15 7.18,0 13,5.611 13,15" style="fill:#d99e82;fill-opacity:1;fill-rule:nonzero;stroke:none"/></g><g id="g50" transform="translate(19,9.3486)"><path id="path52" d="M 0,0 C -2.42,0 -4.274,0.687 -4.352,0.715 -4.869,0.909 -5.13,1.486 -4.936,2.003 -4.742,2.521 -4.167,2.782 -3.65,2.588 -3.634,2.582 -2.041,2 0,2 2.041,2 3.635,2.582 3.65,2.588 4.166,2.782 4.744,2.517 4.936,2.001 5.129,1.484 4.868,0.909 4.352,0.715 4.274,0.687 2.421,0 0,0" style="fill:#dd2e44;fill-opacity:1;fill-rule:nonzero;stroke:none"/></g><g id="g54" transform="translate(20,14)"><path id="path56" d="m 0,0 -2,0 c -0.552,0 -1,0.447 -1,1 0,0.553 0.448,1 1,1 L 0,2 C 0.553,2 1,1.553 1,1 1,0.447 0.553,0 0,0" style="fill:#c1694f;fill-opacity:1;fill-rule:nonzero;stroke:none"/></g><g id="g58" transform="translate(13,17)"><path id="path60" d="m 0,0 c -0.552,0 -1,0.447 -1,1 l 0,2 C -1,3.552 -0.552,4 0,4 0.552,4 1,3.552 1,3 L 1,1 C 1,0.447 0.552,0 0,0" style="fill:#662113;fill-opacity:1;fill-rule:nonzero;stroke:none"/></g><g id="g62" transform="translate(25,17)"><path id="path64" d="m 0,0 c -0.553,0 -1,0.447 -1,1 l 0,2 C -1,3.552 -0.553,4 0,4 0.553,4 1,3.552 1,3 L 1,1 C 1,0.447 0.553,0 0,0" style="fill:#662113;fill-opacity:1;fill-rule:nonzero;stroke:none"/></g><g id="g66" transform="translate(19,34)"><path id="path68" d="m 0,0 0,-5 c 0,0 -1,-4 -6,-4 -5,0 -7,-5.999 -7,-9 0,0 -2.648,5.231 -1,11 2,7 7,9 10,9 2,0 4,-2 4,-2" style="fill:#662113;fill-opacity:1;fill-rule:nonzero;stroke:none"/></g><g id="g70" transform="translate(19,34)"><path id="path72" d="m 0,0 0,-5 c 0,0 0.786,-4 5.786,-4 5,0 7.214,-5.999 7.214,-9 0,0 2.648,5.231 1,11 C 12,0 7,2 4,2 2,2 0,0 0,0" style="fill:#662113;fill-opacity:1;fill-rule:nonzero;stroke:none"/></g></g></g></g></svg>