<svg xmlns="http://www.w3.org/2000/svg" xmlns:svg="http://www.w3.org/2000/svg" style="enable-background:new 0 0 47.5 47.5" id="svg2" version="1.1" viewBox="0 0 47.5 47.5" xml:space="preserve"><defs id="defs6"><clipPath id="clipPath18"><path id="path20" d="M 0,38 38,38 38,0 0,0 0,38 z"/></clipPath></defs><g id="g12" transform="matrix(1.25,0,0,-1.25,0,47.5)"><g id="g14"><g id="g16" clip-path="url(#clipPath18)"><g id="g22" transform="translate(11.9995,37)"><path id="path24" d="M 0,0 C -1.264,0 -2.435,-0.393 -3.402,-1.061 -3.598,-1.031 -3.795,-1 -4,-1 -6.208,-1 -8,-2.791 -8,-5 l 0,-6 c 0,-3.866 3.134,-7 7,-7 3.867,0 7,3.134 7,7 l 0,4.999 C 6,-2.687 3.314,0 0,0" style="fill:#642116;fill-opacity:1;fill-rule:nonzero;stroke:none"/></g><path id="path26" d="m 10,2 -3,0 0,8 3,0 0,-8 z" style="fill:#d79e84;fill-opacity:1;fill-rule:nonzero;stroke:none"/><path id="path28" d="m 15,2 -3,0 0,8 3,0 0,-8 z" style="fill:#d79e84;fill-opacity:1;fill-rule:nonzero;stroke:none"/><g id="g30" transform="translate(6,1)"><path id="path32" d="M 0,0 0,1 C 0,1 0,2 2,2 4,2 4,1 4,1 L 4,0 0,0 z" style="fill:#292f33;fill-opacity:1;fill-rule:nonzero;stroke:none"/></g><g id="g34" transform="translate(12,1)"><path id="path36" d="M 0,0 0,1 C 0,1 0,2 2,2 4,2 4,1 4,1 L 4,0 0,0 z" style="fill:#292f33;fill-opacity:1;fill-rule:nonzero;stroke:none"/></g><g id="g38" transform="translate(1.999,11)"><path id="path40" d="m 0,0 c -0.164,0 -0.331,0.04 -0.485,0.126 -0.482,0.269 -0.657,0.877 -0.388,1.359 l 5,9.001 c 0.268,0.482 0.876,0.657 1.36,0.388 0.482,-0.268 0.657,-0.877 0.388,-1.36 l -5,-8.999 C 0.692,0.186 0.352,0 0,0" style="fill:#d79e84;fill-opacity:1;fill-rule:nonzero;stroke:none"/></g><g id="g42" transform="translate(20.001,11)"><path id="path44" d="m 0,0 c -0.352,0 -0.692,0.186 -0.875,0.515 l -5,8.999 c -0.269,0.483 -0.094,1.092 0.388,1.36 0.484,0.269 1.092,0.094 1.36,-0.388 l 5,-9.001 C 1.142,1.003 0.968,0.395 0.484,0.126 0.331,0.04 0.164,0 0,0" style="fill:#d79e84;fill-opacity:1;fill-rule:nonzero;stroke:none"/></g><g id="g46" transform="translate(5.0005,10)"><path id="path48" d="m 0,0 12,0 -2,6 0,4 2,0 0,1 c 0,1.104 -0.896,2 -2,2 L 8,13 4,13 2,13 C 0.895,13 0,12.104 0,11 L 0,10 2,10 2,6 0,0 z" style="fill:#e75a70;fill-opacity:1;fill-rule:nonzero;stroke:none"/></g><path id="path50" d="m 15,16 -8,0 0,2 8,0 0,-2 z" style="fill:#da2f47;fill-opacity:1;fill-rule:nonzero;stroke:none"/><g id="g52" transform="translate(9,26)"><path id="path54" d="m 0,0 0,-4 c 0,-1.104 0.896,-2 2,-2 1.104,0 2,0.896 2,2 L 4,0 0,0 z" style="fill:#d79e84;fill-opacity:1;fill-rule:nonzero;stroke:none"/></g><g id="g56" transform="translate(13,26)"><path id="path58" d="M 0,0 -4,-0.019 -4,-4 c 0,0 2,-1 4,0 l 0,4 z" style="fill:#bf6952;fill-opacity:1;fill-rule:nonzero;stroke:none"/></g><g id="g60" transform="translate(16,34)"><path id="path62" d="m 0,0 -10,0 0,-6 0,0 c 0,-2.763 2.238,-5 5,-5 2.761,0 5,2.237 5,5 l 0,0 0,6 z" style="fill:#d79e84;fill-opacity:1;fill-rule:nonzero;stroke:none"/></g><g id="g64" transform="translate(9,34)"><path id="path66" d="M 0,0 C 0,0 0,-4 8,-4 L 8,0 0,0 z" style="fill:#642116;fill-opacity:1;fill-rule:nonzero;stroke:none"/></g><g id="g68" transform="translate(9,34)"><path id="path70" d="m 0,0 c 0,0 0,-4 -4,-4 l 0,4 4,0 z" style="fill:#642116;fill-opacity:1;fill-rule:nonzero;stroke:none"/></g><g id="g72" transform="translate(13,25)"><path id="path74" d="m 0,0 -2,0 -2,0 c 0,0 0,-1 2,-1 2,0 2,1 2,1" style="fill:#c1694f;fill-opacity:1;fill-rule:nonzero;stroke:none"/></g><g id="g76" transform="translate(9,28.5)"><path id="path78" d="M 0,0 C 0,-0.276 -0.224,-0.5 -0.5,-0.5 -0.776,-0.5 -1,-0.276 -1,0 -1,0.276 -0.776,0.5 -0.5,0.5 -0.224,0.5 0,0.276 0,0" style="fill:#664500;fill-opacity:1;fill-rule:nonzero;stroke:none"/></g><g id="g80" transform="translate(14,28.5)"><path id="path82" d="M 0,0 C 0,-0.276 -0.224,-0.5 -0.5,-0.5 -0.776,-0.5 -1,-0.276 -1,0 -1,0.276 -0.776,0.5 -0.5,0.5 -0.224,0.5 0,0.276 0,0" style="fill:#664500;fill-opacity:1;fill-rule:nonzero;stroke:none"/></g><g id="g84" transform="translate(10,27)"><path id="path86" d="M 0,0 1,0 2,0 C 2,0 2,-1 1,-1 0,-1 0,0 0,0" style="fill:#c1694f;fill-opacity:1;fill-rule:nonzero;stroke:none"/></g><g id="g88" transform="translate(34,30.999)"><path id="path90" d="m 0,0 c 0,3.314 -2.687,6.001 -6,6.001 -1.264,0 -2.436,-0.393 -3.402,-1.061 -0.197,0.03 -0.393,0.061 -0.598,0.061 -2.209,0 -4,-1.791 -4,-4 l 0,-6 4.686,0 c 0.949,-0.631 2.087,-1 3.314,-1 1.226,0 2.364,0.369 3.314,1 L 0,-4.999 0,0 z" style="fill:#642116;fill-opacity:1;fill-rule:nonzero;stroke:none"/></g><path id="path92" d="m 26,2 -3,0 0,8 3,0 0,-8 z" style="fill:#d79e84;fill-opacity:1;fill-rule:nonzero;stroke:none"/><path id="path94" d="m 31,2 -3,0 0,8 3,0 0,-8 z" style="fill:#d79e84;fill-opacity:1;fill-rule:nonzero;stroke:none"/><g id="g96" transform="translate(22,1)"><path id="path98" d="M 0,0 0,1 C 0,1 0,2 2,2 4,2 4,1 4,1 L 4,0 0,0 z" style="fill:#292f33;fill-opacity:1;fill-rule:nonzero;stroke:none"/></g><g id="g100" transform="translate(28,1)"><path id="path102" d="M 0,0 0,1 C 0,1 0,2 2,2 4,2 4,1 4,1 L 4,0 0,0 z" style="fill:#292f33;fill-opacity:1;fill-rule:nonzero;stroke:none"/></g><g id="g104" transform="translate(17.999,11)"><path id="path106" d="m 0,0 c -0.164,0 -0.331,0.04 -0.485,0.126 -0.482,0.269 -0.657,0.877 -0.388,1.359 l 5,9.001 c 0.268,0.482 0.878,0.657 1.359,0.388 0.484,-0.268 0.658,-0.877 0.389,-1.36 l -5,-8.999 C 0.692,0.186 0.352,0 0,0" style="fill:#d79e84;fill-opacity:1;fill-rule:nonzero;stroke:none"/></g><g id="g108" transform="translate(36.001,11)"><path id="path110" d="m 0,0 c -0.352,0 -0.692,0.186 -0.875,0.515 l -5,8.999 c -0.269,0.483 -0.095,1.092 0.389,1.36 0.482,0.269 1.091,0.094 1.359,-0.388 l 5,-9.001 C 1.142,1.003 0.968,0.395 0.484,0.126 0.331,0.04 0.164,0 0,0" style="fill:#d79e84;fill-opacity:1;fill-rule:nonzero;stroke:none"/></g><g id="g112" transform="translate(33,20)"><path id="path114" d="m 0,0 0,1 c 0,1.104 -0.896,2 -2,2 l -2,0 -4,0 -2,0 c -1.104,0 -2,-0.896 -2,-2 l 0,-1 2,0 0,-4 -2,-6 12,0 -2,6 0,4 2,0 z" style="fill:#9268ca;fill-opacity:1;fill-rule:nonzero;stroke:none"/></g><path id="path116" d="m 31,16 -8,0 0,2 8,0 0,-2 z" style="fill:#aa8ed6;fill-opacity:1;fill-rule:nonzero;stroke:none"/><g id="g118" transform="translate(25,26)"><path id="path120" d="m 0,0 0,-4 c 0,-1.104 0.896,-2 2,-2 1.104,0 2,0.896 2,2 L 4,0 0,0 z" style="fill:#d79e84;fill-opacity:1;fill-rule:nonzero;stroke:none"/></g><g id="g122" transform="translate(29,26)"><path id="path124" d="M 0,0 -4,-0.019 -4,-4 c 0,0 2,-1 4,0 l 0,4 z" style="fill:#bf6952;fill-opacity:1;fill-rule:nonzero;stroke:none"/></g><g id="g126" transform="translate(32,34)"><path id="path128" d="m 0,0 -10,0 0,-6 0,0 c 0,-2.763 2.238,-5 5,-5 2.762,0 5,2.237 5,5 l 0,0 0,6 z" style="fill:#d79e84;fill-opacity:1;fill-rule:nonzero;stroke:none"/></g><g id="g130" transform="translate(25,34)"><path id="path132" d="M 0,0 C 0,0 0,-4 8,-4 L 8,0 0,0 z" style="fill:#642116;fill-opacity:1;fill-rule:nonzero;stroke:none"/></g><g id="g134" transform="translate(25,34)"><path id="path136" d="m 0,0 c 0,0 0,-4 -4,-4 l 0,4 4,0 z" style="fill:#642116;fill-opacity:1;fill-rule:nonzero;stroke:none"/></g><g id="g138" transform="translate(29,25)"><path id="path140" d="m 0,0 -2,0 -2,0 c 0,0 0,-1 2,-1 2,0 2,1 2,1" style="fill:#c1694f;fill-opacity:1;fill-rule:nonzero;stroke:none"/></g><g id="g142" transform="translate(25,28.5)"><path id="path144" d="M 0,0 C 0,-0.276 -0.224,-0.5 -0.5,-0.5 -0.776,-0.5 -1,-0.276 -1,0 -1,0.276 -0.776,0.5 -0.5,0.5 -0.224,0.5 0,0.276 0,0" style="fill:#664500;fill-opacity:1;fill-rule:nonzero;stroke:none"/></g><g id="g146" transform="translate(30,28.5)"><path id="path148" d="M 0,0 C 0,-0.276 -0.224,-0.5 -0.5,-0.5 -0.776,-0.5 -1,-0.276 -1,0 -1,0.276 -0.776,0.5 -0.5,0.5 -0.224,0.5 0,0.276 0,0" style="fill:#664500;fill-opacity:1;fill-rule:nonzero;stroke:none"/></g><g id="g150" transform="translate(26,27)"><path id="path152" d="M 0,0 1,0 2,0 C 2,0 2,-1 1,-1 0,-1 0,0 0,0" style="fill:#c1694f;fill-opacity:1;fill-rule:nonzero;stroke:none"/></g></g></g></g></svg>