<svg xmlns="http://www.w3.org/2000/svg" xmlns:svg="http://www.w3.org/2000/svg" id="svg2" width="47.5" height="47.5" version="1.1" xml:space="preserve"><metadata id="metadata8"/><defs id="defs6"><clipPath id="clipPath16"><path id="path18" d="M 0,38 38,38 38,0 0,0 0,38 z"/></clipPath></defs><g id="g10" transform="matrix(1.25,0,0,-1.25,0,47.5)" style="display:none"><g id="g12"><g id="g14" clip-path="url(#clipPath16)"><g id="g20" transform="translate(37,19)"><path id="path22" d="m 0,0 c 0,-9.941 -8.059,-18 -18,-18 -9.941,0 -18,8.059 -18,18 0,9.941 8.059,18 18,18 C -8.059,18 0,9.941 0,0" style="fill:#aa8ed6;fill-opacity:1;fill-rule:nonzero;stroke:none"/></g><g id="g24" transform="translate(11,33)"><path id="path26" d="M 0,0 C -2.58,0 -5.631,2.466 -6.586,3.414 -7.157,3.986 -8.019,4.158 -8.765,3.848 -9.513,3.538 -10,2.809 -10,2 c 0,-3.459 1.672,-10 8,-10 0.757,0 1.45,0.428 1.789,1.105 l 2,4 c 0.31,0.621 0.277,1.357 -0.088,1.946 C 1.337,-0.359 0.693,0 0,0" style="fill:#aa8ed6;fill-opacity:1;fill-rule:nonzero;stroke:none"/></g><g id="g28" transform="translate(35.7656,36.8477)"><path id="path30" d="m 0,0 c -0.75,0.311 -1.607,0.139 -2.18,-0.434 -0.885,-0.885 -3.997,-3.414 -6.586,-3.414 -0.693,0 -1.337,-0.359 -1.701,-0.948 -0.364,-0.59 -0.397,-1.326 -0.088,-1.946 l 2,-4 c 0.339,-0.677 1.032,-1.106 1.789,-1.106 6.329,0 8,6.541 8,10 C 1.234,-1.039 0.747,-0.31 0,0" style="fill:#aa8ed6;fill-opacity:1;fill-rule:nonzero;stroke:none"/></g><g id="g32" transform="translate(15.9985,18.9995)"><path id="path34" d="m 0,0 c -0.301,0 -0.606,0.068 -0.893,0.211 l -6,3 c -0.988,0.495 -1.388,1.696 -0.895,2.684 0.495,0.988 1.696,1.389 2.684,0.895 l 6,-3 C 1.884,3.295 2.284,2.094 1.791,1.106 1.44,0.405 0.733,0 0,0" style="fill:#553986;fill-opacity:1;fill-rule:nonzero;stroke:none"/></g><g id="g36" transform="translate(22,7)"><path id="path38" d="m 0,0 -6,0 c -1.104,0 -2,0.896 -2,2 0,1.104 0.896,2 2,2 L 0,4 C 1.104,4 2,3.104 2,2 2,0.896 1.104,0 0,0" style="fill:#553986;fill-opacity:1;fill-rule:nonzero;stroke:none"/></g><g id="g40" transform="translate(22.002,18.9995)"><path id="path42" d="m 0,0 c -0.734,0 -1.44,0.405 -1.791,1.106 -0.494,0.988 -0.094,2.189 0.895,2.684 l 6,3 C 6.093,7.286 7.294,6.881 7.787,5.895 8.281,4.907 7.881,3.706 6.893,3.211 l -6,-3 C 0.605,0.068 0.3,0 0,0" style="fill:#553986;fill-opacity:1;fill-rule:nonzero;stroke:none"/></g><g id="g44" transform="translate(21,19)"><path id="path46" d="M 0,0 C 0,0 0,2 2,2 4,2 4,0 4,0 l 0,-2 c 0,0 0,-2 -2,-2 -2,0 -2,2 -2,2 l 0,2 z" style="fill:#553986;fill-opacity:1;fill-rule:nonzero;stroke:none"/></g><g id="g48" transform="translate(13,19)"><path id="path50" d="M 0,0 C 0,0 0,2 2,2 4,2 4,0 4,0 l 0,-2 c 0,0 0,-2 -2,-2 -2,0 -2,2 -2,2 l 0,2 z" style="fill:#553986;fill-opacity:1;fill-rule:nonzero;stroke:none"/></g></g></g></g><g id="g3027" transform="matrix(1.25,0,0,-1.25,0,47.5)"><g id="g3029"><g id="g3031" clip-path="url(#clipPath16)"><g id="g3033" transform="translate(37,19)"><path id="path3035" d="m 0,0 c 0,-9.941 -8.059,-18 -18,-18 -9.941,0 -18,8.059 -18,18 0,9.941 8.059,18 18,18 C -8.059,18 0,9.941 0,0" style="fill:#da2f47;fill-opacity:1;fill-rule:nonzero;stroke:none"/></g><g id="g3037" transform="translate(11,33)"><path id="path3039" d="m 0,0.6440678 c -2.58,0 -5.631,2.466 -6.586,3.414 -0.571,0.572 -1.433,0.744 -2.179,0.434 -0.748,-0.31 -1.235,-1.039 -1.235,-1.848 0,-3.459 1.672,-10 8,-10 0.757,0 1.45,0.428 1.789,1.105 l 2,4 c 0.31,0.621 0.277,1.357 -0.088,1.946 -0.364,0.59 -1.008,0.949 -1.701,0.949" style="fill:#000;fill-opacity:1;fill-rule:nonzero;stroke:none"/></g><g id="g3041" transform="translate(35.7656,36.8477)"><path id="path3043" d="m 0,0.6440678 c -0.75,0.311 -1.607,0.139 -2.18,-0.434 -0.885,-0.885 -3.997,-3.414 -6.586,-3.414 -0.693,0 -1.337,-0.359 -1.701,-0.948 -0.364,-0.59 -0.397,-1.326 -0.088,-1.946 l 2,-3.9999998 c 0.339,-0.677 1.032,-1.106 1.789,-1.106 6.329,0 8,6.5409998 8,9.9999998 0,0.809 -0.487,1.538 -1.234,1.848" style="fill:#000;fill-opacity:1;fill-rule:nonzero;stroke:none"/></g><g id="g3045" transform="translate(15.9985,18.9995)"><path id="path3047" d="m 0,-1.6 c -0.301,0 -0.606,0.068 -0.893,0.211 l -6,3 c -0.988,0.495 -1.388,1.696 -0.895,2.684 0.495,0.988 1.696,1.389 2.684,0.895 l 6,-3 C 1.884,1.695 2.284,0.494 1.791,-0.494 1.44,-1.195 0.733,-1.6 0,-1.6" style="fill:#000;fill-opacity:1;fill-rule:nonzero;stroke:none"/><path id="path3023" d="m 1.6,-19.2 c -0.301,0 -0.606,0.068 -0.893,0.211 l -6,3 c -0.988,0.495 -1.388,1.696 -0.895,2.684 0.495,0.988 1.696,1.389 2.684,0.895 l 6,-3 c 0.988,-0.495 1.388,-1.696 0.895,-2.684 C 3.04,-18.795 2.333,-19.2 1.6,-19.2" style="fill:#000;fill-opacity:1;fill-rule:nonzero;stroke:none"/></g><g id="g3049" transform="translate(22,7)"><path id="path3051" d="m 0,0 -6,0 c -1.104,0 -2,0.896 -2,2 0,1.104 0.896,2 2,2 L 0,4 C 1.104,4 2,3.104 2,2 2,0.896 1.104,0 0,0" style="fill:#000;fill-opacity:1;fill-rule:nonzero;stroke:none"/><path id="path3021" d="M -0.27029465,-5.13609 -1.0815198,-7.1847829 c -0.1441071,-0.3639317 -0.8960001,-0.682897 -2.0000001,-0.682897 -1.104,0 -1.8665875,0.3170748 -2,0.6828976 l -0.7400652,2.0292872 c -0.1334124,0.3658228 1.6360652,0.7023027 2.7400652,0.7023027 1.104,0 2.82545725,-0.296236 2.82545725,-0.6731944" style="fill:#000;fill-opacity:1;fill-rule:nonzero;stroke:none"/></g><g id="g3053" transform="translate(22.002,18.9995)"><path id="path3055" d="m 0,-1.6 c -0.734,0 -1.44,0.405 -1.791,1.106 -0.494,0.988 -0.094,2.189 0.895,2.684 l 6,3 C 6.093,5.686 7.294,5.281 7.787,4.295 8.281,3.307 7.881,2.106 6.893,1.611 l -6,-3 C 0.605,-1.532 0.3,-1.6 0,-1.6" style="fill:#000;fill-opacity:1;fill-rule:nonzero;stroke:none"/><path id="path3025" d="m -1.6,-19.2 c -0.734,0 -1.44,0.405 -1.791,1.106 -0.494,0.988 -0.094,2.189 0.895,2.684 l 6,3 c 0.989,0.496 2.19,0.091 2.683,-0.895 0.494,-0.988 0.094,-2.189 -0.894,-2.684 l -6,-3 C -0.995,-19.132 -1.3,-19.2 -1.6,-19.2" style="fill:#000;fill-opacity:1;fill-rule:nonzero;stroke:none"/></g><g id="g3057" transform="translate(21,19)"><path id="path3059" d="m 0,-1.6 c 0,0 0,2 2,2 2,0 2,-2 2,-2 l 0,-2 c 0,0 0,-2 -2,-2 -2,0 -2,2 -2,2 l 0,2 z" style="fill:#000;fill-opacity:1;fill-rule:nonzero;stroke:none"/></g><g id="g3061" transform="translate(13,19)"><path id="path3063" d="m 0,-1.6 c 0,0 0,2 2,2 2,0 2,-2 2,-2 l 0,-2 c 0,0 0,-2 -2,-2 -2,0 -2,2 -2,2 l 0,2 z" style="fill:#000;fill-opacity:1;fill-rule:nonzero;stroke:none"/></g></g></g></g></svg>