<svg xmlns="http://www.w3.org/2000/svg" xmlns:svg="http://www.w3.org/2000/svg" style="enable-background:new 0 0 47.5 47.5" id="svg2" version="1.1" viewBox="0 0 47.5 47.5" xml:space="preserve"><defs id="defs6"><clipPath id="clipPath18"><path id="path20" d="M 0,38 38,38 38,0 0,0 0,38 z"/></clipPath></defs><g id="g12" transform="matrix(1.25,0,0,-1.25,0,47.5)"><g id="g14"><g id="g16" clip-path="url(#clipPath18)"><g id="g22" transform="translate(28,1)"><path id="path24" d="M 0,0 0,4 C 0,4 0,8 4,8 8,8 8,4 8,4 L 8,0 0,0 z" style="fill:#d99e82;fill-opacity:1;fill-rule:nonzero;stroke:none"/></g><g id="g26" transform="translate(19,1)"><path id="path28" d="m 0,0 0,9 c 0,0 0,4 4,4 4,0 4,-4 4,-4 L 8,0 0,0 z" style="fill:#d99e82;fill-opacity:1;fill-rule:nonzero;stroke:none"/></g><g id="g30" transform="translate(10,1)"><path id="path32" d="m 0,0 0,12 c 0,0 0,4 4,4 4,0 4,-4 4,-4 L 8,0 0,0 z" style="fill:#d99e82;fill-opacity:1;fill-rule:nonzero;stroke:none"/></g><g id="g34" transform="translate(1,1)"><path id="path36" d="m 0,0 0,9 c 0,0 0,4 4,4 4,0 4,-4 4,-4 L 8,0 0,0 z" style="fill:#d99e82;fill-opacity:1;fill-rule:nonzero;stroke:none"/></g><g id="g38" transform="translate(17.0005,13)"><path id="path40" d="m 0,0 c 0,1.657 0,8 -3,8 -3,0 -3,-6.343 -3,-8 0,-1.657 1.343,-3 3,-3 1.657,0 3,1.343 3,3" style="fill:#dd2e44;fill-opacity:1;fill-rule:nonzero;stroke:none"/></g><g id="g42" transform="translate(8.0005,10)"><path id="path44" d="m 0,0 c 0,1.657 0,8 -3,8 -3,0 -3,-6.343 -3,-8 0,-1.657 1.343,-3 3,-3 1.657,0 3,1.343 3,3" style="fill:#dd2e44;fill-opacity:1;fill-rule:nonzero;stroke:none"/></g><g id="g46" transform="translate(26,10)"><path id="path48" d="m 0,0 c 0,1.657 0,8 -3,8 -3,0 -3,-6.343 -3,-8 0,-1.657 1.344,-3 3,-3 1.657,0 3,1.343 3,3" style="fill:#dd2e44;fill-opacity:1;fill-rule:nonzero;stroke:none"/></g><g id="g50" transform="translate(35,5)"><path id="path52" d="m 0,0 c 0,1.657 0,8 -3,8 -3,0 -3,-6.343 -3,-8 0,-1.657 1.344,-3 3,-3 1.657,0 3,1.343 3,3" style="fill:#dd2e44;fill-opacity:1;fill-rule:nonzero;stroke:none"/></g><g id="g54" transform="translate(14,21)"><path id="path56" d="m 0,0 0,-4 2,0 c 0,0 2,0 6,4 L 6,2 C 6,2 4,0 0,0" style="fill:#dd2e44;fill-opacity:1;fill-rule:nonzero;stroke:none"/></g><g id="g58" transform="translate(20,23)"><path id="path60" d="M 0,0 8,8 10,6 2,-2 0,0 z" style="fill:#8899a6;fill-opacity:1;fill-rule:nonzero;stroke:none"/></g><g id="g62" transform="translate(28,31)"><path id="path64" d="M 0,0 C 0,0 -2,2 0,4 L 2,6 9,6 9,1 6,-2 C 4,-4 2,-2 2,-2 L 0,0 z" style="fill:#8899a6;fill-opacity:1;fill-rule:nonzero;stroke:none"/></g></g></g></g></svg>