<svg xmlns="http://www.w3.org/2000/svg" xmlns:svg="http://www.w3.org/2000/svg" style="enable-background:new 0 0 47.5 47.5" id="svg2" version="1.1" viewBox="0 0 47.5 47.5" xml:space="preserve"><defs id="defs6"><clipPath id="clipPath18"><path id="path20" d="M 0,38 38,38 38,0 0,0 0,38 z"/></clipPath></defs><g id="g12" transform="matrix(1.25,0,0,-1.25,0,47.5)"><g id="g14"><g id="g16" clip-path="url(#clipPath18)"><g id="g22" transform="translate(31,16)"><path id="path24" d="m 0,0 c 0,8.284 -5.373,15 -12,15 -6.627,0 -12,-6.716 -12,-15 0,-8.284 5.373,-15 12,-15 6.627,0 12,6.716 12,15" style="fill:#58595b;fill-opacity:1;fill-rule:nonzero;stroke:none"/></g><g id="g26" transform="translate(29,16)"><path id="path28" d="m 0,0 c 0,7.029 -4.478,12.727 -10,12.727 -5.523,0 -10,-5.698 -10,-12.727 0,-7.029 4.477,-12.728 10,-12.728 5.522,0 10,5.699 10,12.728" style="fill:#d99e82;fill-opacity:1;fill-rule:nonzero;stroke:none"/></g><g id="g30" transform="translate(15,10)"><path id="path32" d="m 0,0 c -0.552,0 -1,0.447 -1,1 l 0,2 C -1,3.553 -0.552,4 0,4 0.552,4 1,3.553 1,3 L 1,1 C 1,0.447 0.552,0 0,0" style="fill:#662113;fill-opacity:1;fill-rule:nonzero;stroke:none"/></g><g id="g34" transform="translate(23,10)"><path id="path36" d="m 0,0 c -0.553,0 -1,0.447 -1,1 l 0,2 C -1,3.553 -0.553,4 0,4 0.553,4 1,3.553 1,3 L 1,1 C 1,0.447 0.553,0 0,0" style="fill:#662113;fill-opacity:1;fill-rule:nonzero;stroke:none"/></g><g id="g38" transform="translate(21,5)"><path id="path40" d="m 0,0 -4,0 c -0.552,0 -1,0.447 -1,1 0,0.553 0.448,1 1,1 L 0,2 C 0.553,2 1,1.553 1,1 1,0.447 0.553,0 0,0" style="fill:#c1694f;fill-opacity:1;fill-rule:nonzero;stroke:none"/></g><g id="g42" transform="translate(31,32)"><path id="path44" d="m 0,0 c 0,3 -2.134,5 -5,5 l -14,0 c -3,0 -5,-2 -5,-5 l 0,-15 c 0,-2.209 1.791,-4 4,-4 l 16,0 c 2.209,0 4,1.791 4,4 L 0,0 z" style="fill:#000;fill-opacity:1;fill-rule:nonzero;stroke:none"/></g><g id="g46" transform="translate(20,10)"><path id="path48" d="m 0,0 c 0,-0.553 -0.448,-1 -1,-1 -0.552,0 -1,0.447 -1,1 0,0.553 0.448,1 1,1 0.552,0 1,-0.447 1,-1" style="fill:#c1694f;fill-opacity:1;fill-rule:nonzero;stroke:none"/></g></g></g></g></svg>