<svg xmlns="http://www.w3.org/2000/svg" xmlns:svg="http://www.w3.org/2000/svg" style="enable-background:new 0 0 47.5 47.5" id="svg2" version="1.1" viewBox="0 0 47.5 47.5" xml:space="preserve"><g id="g12" transform="matrix(1.25,0,0,-1.25,0,47.5)"><g id="g14" transform="translate(14,34)"><path id="path16" d="m 0,0 -6,0 -7,-9 10,0 3,9 z" style="fill:#bdddf4;fill-opacity:1;fill-rule:nonzero;stroke:none"/></g><g id="g18" transform="translate(37,25)"><path id="path20" d="m 0,0 -7,9 -6,0 3,-9 10,0 z" style="fill:#5dadec;fill-opacity:1;fill-rule:nonzero;stroke:none"/></g><g id="g22" transform="translate(27,25)"><path id="path24" d="M 0,0 10,0 -8,-21 0,0 z" style="fill:#4289c1;fill-opacity:1;fill-rule:nonzero;stroke:none"/></g><g id="g26" transform="translate(11,25)"><path id="path28" d="M 0,0 -10,0 8,-21 0,0 z" style="fill:#8ccaf7;fill-opacity:1;fill-rule:nonzero;stroke:none"/></g><g id="g30" transform="translate(14,34)"><path id="path32" d="M 0,0 -3,-9 13,-9 10,0 0,0 z" style="fill:#8ccaf7;fill-opacity:1;fill-rule:nonzero;stroke:none"/></g><g id="g34" transform="translate(19,4)"><path id="path36" d="M 0,0 -8,21 8,21 0,0 z" style="fill:#5dadec;fill-opacity:1;fill-rule:nonzero;stroke:none"/></g></g></svg>