<svg xmlns="http://www.w3.org/2000/svg" xmlns:svg="http://www.w3.org/2000/svg" style="enable-background:new 0 0 47.5 47.5" id="svg2" version="1.1" viewBox="0 0 47.5 47.5" xml:space="preserve"><defs id="defs6"><clipPath id="clipPath18"><path id="path20" d="M 0,38 38,38 38,0 0,0 0,38 z"/></clipPath><clipPath id="clipPath32"><path id="path34" d="m 12,4 14,0 0,21.001 -14,0 L 12,4 z"/></clipPath><clipPath id="clipPath64"><path id="path66" d="M 0,38 38,38 38,0 0,0 0,38 z"/></clipPath></defs><g id="g12" transform="matrix(1.25,0,0,-1.25,0,47.5)"><g id="g14"><g id="g16" clip-path="url(#clipPath18)"><g id="g22" transform="translate(25,31)"><path id="path24" d="m 0,0 c 0,-3.313 -2.687,-6 -6,-6 -3.313,0 -6,2.687 -6,6 0,3.313 2.687,6 6,6 3.313,0 6,-2.687 6,-6" style="fill:#ccd6dd;fill-opacity:1;fill-rule:nonzero;stroke:none"/></g><path id="path26" d="M 26,4 12,4 12,25 26,25 26,4 z" style="fill:#ccd6dd;fill-opacity:1;fill-rule:nonzero;stroke:none"/></g></g><g id="g28"><g id="g30" clip-path="url(#clipPath32)"><g id="g36" transform="translate(34.1914,15.4902)"><path id="path38" d="m 0,0 -23.368,11.399 1.755,3.596 L 1.754,3.595 0,0 z" style="fill:#dd2e44;fill-opacity:1;fill-rule:nonzero;stroke:none"/></g><g id="g40" transform="translate(27.1758,1.1094)"><path id="path42" d="m 0,0 -23.367,11.4 1.753,3.595 L 1.754,3.596 0,0 z" style="fill:#dd2e44;fill-opacity:1;fill-rule:nonzero;stroke:none"/></g><g id="g44" transform="translate(32.4375,11.8945)"><path id="path46" d="m 0,0 -23.367,11.401 1.753,3.594 L 1.754,3.596 0,0 z" style="fill:#fff;fill-opacity:1;fill-rule:nonzero;stroke:none"/></g><g id="g48" transform="translate(28.9297,4.7051)"><path id="path50" d="m 0,0 -23.368,11.399 1.755,3.596 L 1.754,3.595 0,0 z" style="fill:#fff;fill-opacity:1;fill-rule:nonzero;stroke:none"/></g><g id="g52" transform="translate(25.4219,-2.4854)"><path id="path54" d="m 0,0 -23.367,11.4 1.754,3.595 L 1.754,3.595 0,0 z" style="fill:#fff;fill-opacity:1;fill-rule:nonzero;stroke:none"/></g><g id="g56" transform="translate(30.6836,8.2998)"><path id="path58" d="m 0,0 -23.367,11.4 1.754,3.596 L 1.754,3.595 0,0 z" style="fill:#55acee;fill-opacity:1;fill-rule:nonzero;stroke:none"/></g></g></g><g id="g60"><g id="g62" clip-path="url(#clipPath64)"><g id="g68" transform="translate(28,26)"><path id="path70" d="m 0,0 c 0,-1.104 -0.896,-2 -2,-2 l -14,0 c -1.104,0 -2,0.896 -2,2 0,1.104 0.896,2 2,2 L -2,2 C -0.896,2 0,1.104 0,0" style="fill:#99aab5;fill-opacity:1;fill-rule:nonzero;stroke:none"/></g><g id="g72" transform="translate(28,3)"><path id="path74" d="m 0,0 c 0,-1.104 -0.896,-2 -2,-2 l -14,0 c -1.104,0 -2,0.896 -2,2 0,1.104 0.896,2 2,2 L -2,2 C -0.896,2 0,1.104 0,0" style="fill:#99aab5;fill-opacity:1;fill-rule:nonzero;stroke:none"/></g></g></g></g></svg>