<svg xmlns="http://www.w3.org/2000/svg" xmlns:svg="http://www.w3.org/2000/svg" style="enable-background:new 0 0 47.5 47.5" id="svg2" version="1.1" viewBox="0 0 47.5 47.5" xml:space="preserve"><defs id="defs6"><clipPath id="clipPath18"><path id="path20" d="M 0,38 38,38 38,0 0,0 0,38 z"/></clipPath></defs><g id="g12" transform="matrix(1.25,0,0,-1.25,0,47.5)"><g id="g14"><g id="g16" clip-path="url(#clipPath18)"><g id="g22" transform="translate(19,5)"><path id="path24" d="m 0,0 c -4.418,0 -8,3.582 -8,8 0,4.418 3.582,8 8,8 C 4.418,16 8,12.418 8,8 8,3.582 4.418,0 0,0 M 0,20 C -6.627,20 -12,14.627 -12,8 -12,1.373 -6.627,-4 0,-4 6.627,-4 12,1.373 12,8 12,14.627 6.627,20 0,20" style="fill:#9aaab4;fill-opacity:1;fill-rule:nonzero;stroke:none"/></g><g id="g26" transform="translate(30,32)"><path id="path28" d="m 0,0 -4,5 -7,0 -7,0 -4,-5 11,-9 11,9 z" style="fill:#5dadec;fill-opacity:1;fill-rule:nonzero;stroke:none"/></g><g id="g30" transform="translate(30,32)"><path id="path32" d="m 0,0 -4,5 -7,0 -7,0 -4,-5 11,0 11,0 z" style="fill:#8ccaf7;fill-opacity:1;fill-rule:nonzero;stroke:none"/></g><g id="g34" transform="translate(30,32)"><path id="path36" d="m 0,0 -4,5 -6,0 -1,0 0,-5 1,0 10,0 z" style="fill:#5dadec;fill-opacity:1;fill-rule:nonzero;stroke:none"/></g><g id="g38" transform="translate(19,32)"><path id="path40" d="M 0,0 11,0 0,-9 0,0 z" style="fill:#8ccaf7;fill-opacity:1;fill-rule:nonzero;stroke:none"/></g><g id="g42" transform="translate(26,24)"><path id="path44" d="m 0,0 c 0,-1.657 -1.343,-3 -3,-3 l -8,0 c -1.657,0 -3,1.343 -3,3 0,1.657 1.343,3 3,3 l 8,0 C -1.343,3 0,1.657 0,0" style="fill:#9aaab4;fill-opacity:1;fill-rule:nonzero;stroke:none"/></g></g></g></g></svg>