<svg xmlns="http://www.w3.org/2000/svg" xmlns:svg="http://www.w3.org/2000/svg" style="enable-background:new 0 0 47.5 47.5" id="svg2" version="1.1" viewBox="0 0 47.5 47.5" xml:space="preserve"><defs id="defs6"><clipPath id="clipPath18"><path id="path20" d="M 1,1 37,1 37,37 1,37 1,1 z"/></clipPath><clipPath id="clipPath48"><path id="path50" d="M 0,38 38,38 38,0 0,0 0,38 z"/></clipPath><clipPath id="clipPath64"><path id="path66" d="M 1,1 37,1 37,37 1,37 1,1 z"/></clipPath><clipPath id="clipPath94"><path id="path96" d="M 0,38 38,38 38,0 0,0 0,38 z"/></clipPath><clipPath id="clipPath110"><path id="path112" d="M 0,38 38,38 38,0 0,0 0,38 z"/></clipPath></defs><g id="g12" transform="matrix(1.25,0,0,-1.25,0,47.5)"><g id="g14"><g id="g16" clip-path="url(#clipPath18)"><g id="g22" transform="translate(4,37)"><path id="path24" d="M 0,0 C -1.721,0 -3.343,-0.406 -4.793,-1.111 -5.186,-1.042 -5.588,-1 -6,-1 c -3.866,0 -7,-3.134 -7,-7 l 0,-12 0.018,0 c 0.183,-6.467 5.471,-11.656 11.982,-11.656 6.511,0 11.799,5.189 11.982,11.656 l 0.018,0 0,9 C 11,-4.925 6.075,0 0,0" style="fill:#642116;fill-opacity:1;fill-rule:nonzero;stroke:none"/></g><g id="g26" transform="translate(12,10)"><path id="path28" d="m 0,0 -1,0 -16,0 -1,0 c -2.209,0 -4,-1.791 -4,-4 l 0,-5 5,0 16,0 5,0 0,5 C 4,-1.791 2.209,0 0,0" style="fill:#9268ca;fill-opacity:1;fill-rule:nonzero;stroke:none"/></g><path id="path30" d="m 12,1 -1,0 0,4 1,0 0,-4 z" style="fill:#7450a8;fill-opacity:1;fill-rule:nonzero;stroke:none"/><g id="g32" transform="translate(5.9995,9.0049)"><path id="path34" d="m 0,0 0,4.995 -6,0 0,-5 0,0 c 0,-1.657 1.344,-3 3,-3 1.658,0 3,1.343 3,3 0,0.002 0,0.003 0,0.005" style="fill:#d79e84;fill-opacity:1;fill-rule:nonzero;stroke:none"/></g><g id="g36" transform="translate(-1,32)"><path id="path38" d="m 0,0 -5,0 0,-12 c 0,-4.971 4.029,-9 9,-9 4.971,0 9,4.029 9,9 l 0,5.019 C 1.89,-6.605 0,0 0,0" style="fill:#d79e84;fill-opacity:1;fill-rule:nonzero;stroke:none"/></g><g id="g40" transform="translate(7,15)"><path id="path42" d="m 0,0 -4,0 -4,0 c 0,0 1,-2 4,-2 3,0 4,2 4,2" style="fill:#bb1a34;fill-opacity:1;fill-rule:nonzero;stroke:none"/></g></g></g><g id="g44"><g id="g46" clip-path="url(#clipPath48)"><g id="g52" transform="translate(7,21)"><path id="path54" d="m 0,0 c -0.552,0 -1,0.448 -1,1 l 0,1 C -1,2.552 -0.552,3 0,3 0.552,3 1,2.552 1,2 L 1,1 C 1,0.448 0.552,0 0,0" style="fill:#292f33;fill-opacity:1;fill-rule:nonzero;stroke:none"/></g><g id="g56" transform="translate(4,17.5)"><path id="path58" d="M 0,0 -2,0 C -2.276,0 -2.5,0.224 -2.5,0.5 -2.5,0.776 -2.276,1 -2,1 L 0,1 C 0.276,1 0.5,0.776 0.5,0.5 0.5,0.224 0.276,0 0,0" style="fill:#bf6952;fill-opacity:1;fill-rule:nonzero;stroke:none"/></g></g></g><g id="g60"><g id="g62" clip-path="url(#clipPath64)"><g id="g68" transform="translate(45,26)"><path id="path70" d="m 0,0 c 0,-6.075 -4.925,-11 -11,-11 -6.075,0 -11,4.925 -11,11 0,6.075 4.925,11 11,11 C -4.925,11 0,6.075 0,0" style="fill:#292f33;fill-opacity:1;fill-rule:nonzero;stroke:none"/></g><g id="g72" transform="translate(38,10)"><path id="path74" d="M 0,0 0,5 -6,5 -6,0 -8,0 -8,-8 2,-8 2,0 0,0 z" style="fill:#d79e84;fill-opacity:1;fill-rule:nonzero;stroke:none"/></g><g id="g76" transform="translate(43,32)"><path id="path78" d="m 0,0 0,-7 c -8.453,0 -11.94,3.471 -13.266,5.524 -0.42,-1.803 -1.437,-4.699 -3.734,-5.368 L -17,-12 c 0,-4.971 4.029,-9 9,-9 4.971,0 9,4.029 9,9 L 1,0 0,0 z" style="fill:#d79e84;fill-opacity:1;fill-rule:nonzero;stroke:none"/></g><g id="g80" transform="translate(26,10)"><path id="path82" d="M 0,0 6,0 9,-5 12,0.094 18,0 c 2.209,0 4,-1.791 4,-4 l 0,-5 -5,0 -16,0 -5,0 0,5 c 0,2.209 1.791,4 4,4" style="fill:#4289c1;fill-opacity:1;fill-rule:nonzero;stroke:none"/></g><path id="path84" d="m 26,1 1,0 0,4 -1,0 0,-4 z" style="fill:#2a6797;fill-opacity:1;fill-rule:nonzero;stroke:none"/><g id="g86" transform="translate(31,15)"><path id="path88" d="M 0,0 4,0 8,0 C 8,0 7,-2 4,-2 1,-2 0,0 0,0" style="fill:#bf6952;fill-opacity:1;fill-rule:nonzero;stroke:none"/></g></g></g><g id="g90"><g id="g92" clip-path="url(#clipPath94)"><g id="g98" transform="translate(31,21)"><path id="path100" d="m 0,0 c -0.553,0 -1,0.448 -1,1 l 0,1 C -1,2.552 -0.553,3 0,3 0.553,3 1,2.552 1,2 L 1,1 C 1,0.448 0.553,0 0,0" style="fill:#2a6797;fill-opacity:1;fill-rule:nonzero;stroke:none"/></g><g id="g102" transform="translate(36,17.5)"><path id="path104" d="M 0,0 -2,0 C -2.276,0 -2.5,0.224 -2.5,0.5 -2.5,0.776 -2.276,1 -2,1 L 0,1 C 0.276,1 0.5,0.776 0.5,0.5 0.5,0.224 0.276,0 0,0" style="fill:#bf6952;fill-opacity:1;fill-rule:nonzero;stroke:none"/></g></g></g><g id="g106"><g id="g108" clip-path="url(#clipPath110)"><g id="g114" transform="translate(27.0771,32.2891)"><path id="path116" d="m 0,0 c 0,2.602 -2.109,4.711 -4.711,4.711 -1.579,0 -2.973,-0.78 -3.828,-1.972 -0.856,1.192 -2.249,1.972 -3.827,1.972 -2.602,0 -4.711,-2.109 -4.711,-4.711 0,-0.369 0.047,-0.727 0.127,-1.07 0.654,-4.065 5.173,-8.353 8.411,-9.53 3.238,1.177 7.758,5.465 8.412,9.529 C -0.047,-0.727 0,-0.369 0,0" style="fill:#e75a70;fill-opacity:1;fill-rule:nonzero;stroke:none"/></g></g></g></g></svg>