<svg xmlns="http://www.w3.org/2000/svg" xmlns:svg="http://www.w3.org/2000/svg" style="enable-background:new 0 0 47.5 47.5" id="svg2" version="1.1" viewBox="0 0 47.5 47.5" xml:space="preserve"><defs id="defs6"><clipPath id="clipPath18"><path id="path20" d="M 0,38 38,38 38,0 0,0 0,38 z"/></clipPath><clipPath id="clipPath42"><path id="path44" d="M 8.237,26.364 2.006,20.132 c -0.626,-0.625 -0.626,-1.639 0,-2.265 l 0,0 6.231,-6.231 c 0.626,-0.625 1.64,-0.625 2.266,0 l 0,0 6.231,6.231 c 0.626,0.626 0.626,1.64 0,2.265 l 0,0 -6.231,6.232 C 10.19,26.677 9.78,26.833 9.37,26.833 l 0,0 c -0.41,0 -0.82,-0.156 -1.133,-0.469"/></clipPath><clipPath id="clipPath54"><path id="path56" d="m 17.867,16.735 -6.231,-6.232 c -0.626,-0.625 -0.626,-1.642 0,-2.265 l 0,0 6.231,-6.232 c 0.625,-0.625 1.641,-0.625 2.266,0 l 0,0 6.232,6.232 c 0.624,0.623 0.624,1.64 0,2.265 l 0,0 -6.232,6.232 C 19.82,17.046 19.41,17.202 19,17.202 l 0,0 c -0.41,0 -0.82,-0.156 -1.133,-0.467"/></clipPath><clipPath id="clipPath66"><path id="path68" d="m 27.497,26.364 -6.232,-6.232 c -0.624,-0.625 -0.624,-1.639 0,-2.265 l 0,0 6.232,-6.231 c 0.625,-0.625 1.641,-0.625 2.266,0 l 0,0 6.231,6.231 c 0.625,0.626 0.625,1.64 0,2.265 l 0,0 -6.231,6.232 c -0.312,0.313 -0.722,0.469 -1.133,0.469 l 0,0 c -0.41,0 -0.82,-0.156 -1.133,-0.469"/></clipPath><clipPath id="clipPath78"><path id="path80" d="m 17.867,35.994 -6.231,-6.231 c -0.626,-0.626 -0.626,-1.64 0,-2.266 l 0,0 6.231,-6.232 c 0.625,-0.625 1.641,-0.625 2.266,0 l 0,0 6.232,6.232 c 0.624,0.626 0.624,1.64 0,2.266 l 0,0 -6.232,6.231 C 19.82,36.307 19.41,36.464 19,36.464 l 0,0 c -0.41,0 -0.82,-0.157 -1.133,-0.47"/></clipPath><clipPath id="clipPath90"><path id="path92" d="M 0,38 38,38 38,0 0,0 0,38 z"/></clipPath></defs><g id="g12" transform="matrix(1.25,0,0,-1.25,0,47.5)"><g id="g14"><g id="g16" clip-path="url(#clipPath18)"><g id="g22" transform="translate(17.8672,21.2656)"><path id="path24" d="m 0,0 c 0.625,-0.626 1.64,-0.626 2.266,0 l 6.231,6.231 c 0.625,0.626 0.625,1.64 0,2.266 L 2.266,14.729 C 1.64,15.354 0.625,15.354 0,14.729 L -6.231,8.497 c -0.626,-0.626 -0.626,-1.64 0,-2.266 L 0,0 z" style="fill:#55acee;fill-opacity:1;fill-rule:nonzero;stroke:none"/></g><g id="g26" transform="translate(35.9941,20.1323)"><path id="path28" d="m 0,0 -6.231,6.231 c -0.624,0.626 -1.641,0.626 -2.266,0 L -14.729,0 c -0.625,-0.626 -0.625,-1.639 0,-2.265 l 6.232,-6.232 c 0.625,-0.625 1.642,-0.625 2.266,0 L 0,-2.265 C 0.625,-1.639 0.625,-0.626 0,0" style="fill:#55acee;fill-opacity:1;fill-rule:nonzero;stroke:none"/></g><g id="g30" transform="translate(20.1328,16.7344)"><path id="path32" d="m 0,0 c -0.625,0.624 -1.64,0.624 -2.266,0 l -6.231,-6.231 c -0.626,-0.625 -0.626,-1.642 0,-2.266 l 6.231,-6.232 c 0.626,-0.625 1.641,-0.625 2.266,0 l 6.231,6.232 c 0.625,0.624 0.625,1.641 0,2.266 L 0,0 z" style="fill:#55acee;fill-opacity:1;fill-rule:nonzero;stroke:none"/></g><g id="g34" transform="translate(16.7339,20.1323)"><path id="path36" d="m 0,0 -6.231,6.231 c -0.626,0.626 -1.64,0.626 -2.266,0 L -14.728,0 c -0.626,-0.626 -0.626,-1.639 0,-2.265 l 6.231,-6.232 c 0.626,-0.625 1.64,-0.625 2.266,0 L 0,-2.265 C 0.626,-1.639 0.626,-0.626 0,0" style="fill:#55acee;fill-opacity:1;fill-rule:nonzero;stroke:none"/></g></g></g><g id="g38"><g id="g40" clip-path="url(#clipPath42)"><g id="g46" transform="translate(26,19)"><path id="path48" d="m 0,0 c 0,-3.866 -3.134,-7 -7,-7 -3.866,0 -7,3.134 -7,7 0,3.866 3.134,7 7,7 3.866,0 7,-3.134 7,-7" style="fill:#3b88c3;fill-opacity:1;fill-rule:nonzero;stroke:none"/></g></g></g><g id="g50"><g id="g52" clip-path="url(#clipPath54)"><g id="g58" transform="translate(26,19)"><path id="path60" d="m 0,0 c 0,-3.866 -3.134,-7 -7,-7 -3.866,0 -7,3.134 -7,7 0,3.866 3.134,7 7,7 3.866,0 7,-3.134 7,-7" style="fill:#3b88c3;fill-opacity:1;fill-rule:nonzero;stroke:none"/></g></g></g><g id="g62"><g id="g64" clip-path="url(#clipPath66)"><g id="g70" transform="translate(26,19)"><path id="path72" d="m 0,0 c 0,-3.866 -3.134,-7 -7,-7 -3.866,0 -7,3.134 -7,7 0,3.866 3.134,7 7,7 3.866,0 7,-3.134 7,-7" style="fill:#3b88c3;fill-opacity:1;fill-rule:nonzero;stroke:none"/></g></g></g><g id="g74"><g id="g76" clip-path="url(#clipPath78)"><g id="g82" transform="translate(26,19)"><path id="path84" d="m 0,0 c 0,-3.866 -3.134,-7 -7,-7 -3.866,0 -7,3.134 -7,7 0,3.866 3.134,7 7,7 3.866,0 7,-3.134 7,-7" style="fill:#3b88c3;fill-opacity:1;fill-rule:nonzero;stroke:none"/></g></g></g><g id="g86"><g id="g88" clip-path="url(#clipPath90)"><g id="g94" transform="translate(24,19)"><path id="path96" d="m 0,0 c 0,-2.762 -2.238,-5 -5,-5 -2.761,0 -5,2.238 -5,5 0,2.761 2.239,5 5,5 2.762,0 5,-2.239 5,-5" style="fill:#bbddf5;fill-opacity:1;fill-rule:nonzero;stroke:none"/></g></g></g></g></svg>