<svg xmlns="http://www.w3.org/2000/svg" xmlns:svg="http://www.w3.org/2000/svg" style="enable-background:new 0 0 47.5 47.5" id="svg2" version="1.1" viewBox="0 0 47.5 47.5" xml:space="preserve"><defs id="defs6"><clipPath id="clipPath18"><path id="path20" d="M 0,38 38,38 38,0 0,0 0,38 z"/></clipPath></defs><g id="g12" transform="matrix(1.25,0,0,-1.25,0,47.5)"><g id="g14"><g id="g16" clip-path="url(#clipPath18)"><g id="g22" transform="translate(19,36)"><path id="path24" d="m 0,0 c -9.941,0 -18,-6.268 -18,-14 0,-4.368 2.574,-8.268 6.604,-10.835 -0.524,-2.309 -1.745,-5.734 -4.604,-9.165 5.758,0.96 9.439,3.761 11.716,6.416 C -2.908,-27.846 -1.479,-28 0,-28 c 9.941,0 18,6.268 18,14 C 18,-6.268 9.941,0 0,0" style="fill:#bdddf4;fill-opacity:1;fill-rule:nonzero;stroke:none"/></g><g id="g26" transform="translate(21,22)"><path id="path28" d="m 0,0 c 0,-1.104 -0.896,-2 -2,-2 -1.104,0 -2,0.896 -2,2 0,1.104 0.896,2 2,2 1.104,0 2,-0.896 2,-2" style="fill:#2a6797;fill-opacity:1;fill-rule:nonzero;stroke:none"/></g><g id="g30" transform="translate(29,22)"><path id="path32" d="m 0,0 c 0,-1.104 -0.896,-2 -2,-2 -1.104,0 -2,0.896 -2,2 0,1.104 0.896,2 2,2 1.104,0 2,-0.896 2,-2" style="fill:#2a6797;fill-opacity:1;fill-rule:nonzero;stroke:none"/></g><g id="g34" transform="translate(13,22)"><path id="path36" d="m 0,0 c 0,-1.104 -0.896,-2 -2,-2 -1.104,0 -2,0.896 -2,2 0,1.104 0.896,2 2,2 1.104,0 2,-0.896 2,-2" style="fill:#2a6797;fill-opacity:1;fill-rule:nonzero;stroke:none"/></g></g></g></g></svg>