<svg xmlns="http://www.w3.org/2000/svg" xmlns:svg="http://www.w3.org/2000/svg" style="enable-background:new 0 0 47.5 47.5" id="svg2" version="1.1" viewBox="0 0 47.5 47.5" xml:space="preserve"><defs id="defs6"><clipPath id="clipPath18"><path id="path20" d="M 0,38 38,38 38,0 0,0 0,38 z"/></clipPath><clipPath id="clipPath30"><path id="path32" d="M 3,19 C 3,10.164 10.164,3 19,3 l 0,0 c 8.836,0 16,7.164 16,16 l 0,0 c 0,8.836 -7.164,16 -16,16 l 0,0 C 10.164,35 3,27.836 3,19 m 11.235,0 c 0,2.632 2.133,4.764 4.765,4.764 l 0,0 c 2.631,0 4.765,-2.132 4.765,-4.764 l 0,0 c 0,-2.631 -2.134,-4.766 -4.765,-4.766 l 0,0 c -2.632,0 -4.765,2.135 -4.765,4.766"/></clipPath></defs><g id="g12" transform="matrix(1.25,0,0,-1.25,0,47.5)"><g id="g14"><g id="g16" clip-path="url(#clipPath18)"><g id="g22" transform="translate(19,22)"><path id="path24" d="m 0,0 c -1.657,0 -3,-1.343 -3,-3 0,-1.657 1.343,-3 3,-3 1.657,0 3,1.343 3,3 0,1.657 -1.343,3 -3,3 m 18,-3 c 0,-9.941 -8.059,-18 -18,-18 -9.941,0 -18,8.059 -18,18 0,9.941 8.059,18 18,18 9.941,0 18,-8.059 18,-18" style="fill:#8899a6;fill-opacity:1;fill-rule:nonzero;stroke:none"/></g></g></g><g id="g26"><g id="g28" clip-path="url(#clipPath30)"><g id="g34" transform="translate(19,19)"><path id="path36" d="m 0,0 -18,2 0,16 16,0 2,-18 z" style="fill:#ccd6dd;fill-opacity:1;fill-rule:nonzero;stroke:none"/></g><g id="g38" transform="translate(19,19)"><path id="path40" d="M 0,0 18,-2 18,-18 2,-18 0,0 z" style="fill:#ccd6dd;fill-opacity:1;fill-rule:nonzero;stroke:none"/></g><g id="g42" transform="translate(19.0005,18.9995)"><path id="path44" d="M 0,0 2.125,-19 18,-18 0,0 z" style="fill:#f5f8fa;fill-opacity:1;fill-rule:nonzero;stroke:none"/></g><g id="g46" transform="translate(19.0005,18.9995)"><path id="path48" d="M 0,0 -18,18 -2,19 0,0 z" style="fill:#f5f8fa;fill-opacity:1;fill-rule:nonzero;stroke:none"/></g></g></g></g></svg>