<svg xmlns="http://www.w3.org/2000/svg" xmlns:svg="http://www.w3.org/2000/svg" style="enable-background:new 0 0 47.5 47.5" id="svg2" version="1.1" viewBox="0 0 47.5 47.5" xml:space="preserve"><defs id="defs6"><clipPath id="clipPath18"><path id="path20" d="M 0,38 38,38 38,0 0,0 0,38 z"/></clipPath></defs><g id="g12" transform="matrix(1.25,0,0,-1.25,0,47.5)"><g id="g14"><g id="g16" clip-path="url(#clipPath18)"><g id="g22" transform="translate(37,11)"><path id="path24" d="m 0,0 c 0,-2.209 -1.791,-4 -4,-4 l -24,0 c -2.209,0 -4,1.791 -4,4 l 0,19.687 c 0,2.209 5.791,6.313 8,6.313 l 18.625,0 C -2.281,26 0,23.687 0,20.625 L 0,0 z" style="fill:#f4900c;fill-opacity:1;fill-rule:nonzero;stroke:none"/></g><g id="g26" transform="translate(35,7)"><path id="path28" d="m 0,0 c 0,-2.209 -1.791,-4 -4,-4 l -20,0 c -2.209,0 -4,1.791 -4,4 l 0,24 c 0,4.119 -0.021,4 5,4 l 19,0 c 2.209,0 4,-1.791 4,-4 L 0,0 z" style="fill:#ccd6dd;fill-opacity:1;fill-rule:nonzero;stroke:none"/></g><g id="g30" transform="translate(33,6)"><path id="path32" d="m 0,0 c 0,-1.657 -1.343,-3 -3,-3 l -22,0 c -1.657,0 -3,1.343 -3,3 l 0,24 c 0,1.657 1.343,3 3,3 l 22,0 c 1.657,0 3,-1.343 3,-3 L 0,0 z" style="fill:#e1e8ed;fill-opacity:1;fill-rule:nonzero;stroke:none"/></g><g id="g34" transform="translate(33,5)"><path id="path36" d="m 0,0 c 0,-2.209 -1.791,-4 -4,-4 l -19,0 c -2.209,0 -4,1.791 -4,4 l 0,22 c 0,2.209 1.791,4 4,4 l 19,0 c 2.209,0 4,-1.791 4,-4 L 0,0 z" style="fill:#ffac33;fill-opacity:1;fill-rule:nonzero;stroke:none"/></g><g id="g38" transform="translate(31,5)"><path id="path40" d="m 0,0 c 0,-2.209 -1.791,-4 -4,-4 l -17,0 c -2.209,0 -4,1.791 -4,4 l 0,20 c 0,2.209 1.791,4 4,4 l 17.335,0 C -1.456,24 0,22.544 0,20.335 L 0,0 z" style="fill:#ffcc4d;fill-opacity:1;fill-rule:nonzero;stroke:none"/></g><g id="g42" transform="translate(10,31)"><path id="path44" d="M 0,0 C -1.687,0 -1.731,1.922 -1,2.75 -0.168,3.691 1.125,4 3.438,4 L 5,4 5,6 2.281,6 C -1.687,6 -5,3.5 -5,0.625 L -5,-26 c 0,-2.209 1.791,-4 4,-4 l 2,0 0,30 -1,0 z" style="fill:#f4900c;fill-opacity:1;fill-rule:nonzero;stroke:none"/></g><g id="g46" transform="translate(9.5415,4.0215)"><path id="path48" d="m 0,0 c 0,-0.702 -0.667,-1.271 -1.49,-1.271 -0.822,0 -1.489,0.569 -1.489,1.271 0,0.701 0.667,1.271 1.489,1.271 C -0.667,1.271 0,0.701 0,0" style="fill:#662113;fill-opacity:1;fill-rule:nonzero;stroke:none"/></g><g id="g50" transform="translate(7.8936,4.7285)"><path id="path52" d="m 0,0 c -0.479,-0.055 -0.792,-0.374 -1.016,-0.729 -0.307,-0.485 -1.008,-1 -1.878,-1 -1.104,0 -2,0.671 -2,1.5 0,0.83 0.896,1.5 2,1.5 l 0,1.997 C -5.06,3.247 -6.81,1.692 -6.81,-0.229 c 0,-1.933 1.772,-3.5 3.958,-3.5 1.854,0 3.347,1.045 3.901,2.57 C 1.325,-0.4 0.58,0.064 0,0" style="fill:#66757f;fill-opacity:1;fill-rule:nonzero;stroke:none"/></g><g id="g54" transform="translate(9.5415,12.0215)"><path id="path56" d="m 0,0 c 0,-0.702 -0.667,-1.271 -1.49,-1.271 -0.822,0 -1.489,0.569 -1.489,1.271 0,0.701 0.667,1.271 1.489,1.271 C -0.667,1.271 0,0.701 0,0" style="fill:#662113;fill-opacity:1;fill-rule:nonzero;stroke:none"/></g><g id="g58" transform="translate(7.8936,12.7285)"><path id="path60" d="m 0,0 c -0.479,-0.055 -0.792,-0.374 -1.016,-0.729 -0.307,-0.485 -1.008,-1 -1.878,-1 -1.104,0 -2,0.671 -2,1.5 0,0.83 0.896,1.5 2,1.5 l 0,1.997 C -5.06,3.247 -6.81,1.692 -6.81,-0.229 c 0,-1.933 1.772,-3.5 3.958,-3.5 1.854,0 3.347,1.045 3.901,2.57 C 1.325,-0.4 0.58,0.064 0,0" style="fill:#66757f;fill-opacity:1;fill-rule:nonzero;stroke:none"/></g><g id="g62" transform="translate(9.5415,20.0215)"><path id="path64" d="m 0,0 c 0,-0.702 -0.667,-1.271 -1.49,-1.271 -0.822,0 -1.489,0.569 -1.489,1.271 0,0.701 0.667,1.271 1.489,1.271 C -0.667,1.271 0,0.701 0,0" style="fill:#662113;fill-opacity:1;fill-rule:nonzero;stroke:none"/></g><g id="g66" transform="translate(7.8936,20.7285)"><path id="path68" d="m 0,0 c -0.479,-0.055 -0.792,-0.374 -1.016,-0.729 -0.307,-0.485 -1.008,-1 -1.878,-1 -1.104,0 -2,0.671 -2,1.5 0,0.83 0.896,1.5 2,1.5 l 0,1.997 C -5.06,3.247 -6.81,1.692 -6.81,-0.229 c 0,-1.933 1.772,-3.5 3.958,-3.5 1.854,0 3.347,1.045 3.901,2.57 C 1.325,-0.4 0.58,0.064 0,0" style="fill:#66757f;fill-opacity:1;fill-rule:nonzero;stroke:none"/></g><g id="g70" transform="translate(9.5415,28.0215)"><path id="path72" d="m 0,0 c 0,-0.702 -0.667,-1.271 -1.49,-1.271 -0.822,0 -1.489,0.569 -1.489,1.271 0,0.701 0.667,1.271 1.489,1.271 C -0.667,1.271 0,0.701 0,0" style="fill:#662113;fill-opacity:1;fill-rule:nonzero;stroke:none"/></g><g id="g74" transform="translate(7.8936,28.7285)"><path id="path76" d="m 0,0 c -0.479,-0.055 -0.792,-0.374 -1.016,-0.729 -0.307,-0.485 -1.008,-1 -1.878,-1 -1.104,0 -2,0.671 -2,1.5 0,0.83 0.896,1.5 2,1.5 l 0,1.997 C -5.06,3.247 -6.81,1.692 -6.81,-0.229 c 0,-1.933 1.772,-3.5 3.958,-3.5 1.854,0 3.347,1.045 3.901,2.57 C 1.325,-0.4 0.58,0.064 0,0" style="fill:#66757f;fill-opacity:1;fill-rule:nonzero;stroke:none"/></g></g></g></g></svg>