<svg xmlns="http://www.w3.org/2000/svg" xmlns:svg="http://www.w3.org/2000/svg" style="enable-background:new 0 0 47.5 47.5" id="svg2" version="1.1" viewBox="0 0 47.5 47.5" xml:space="preserve"><defs id="defs6"><clipPath id="clipPath18"><path id="path20" d="M 0,38 38,38 38,0 0,0 0,38 z"/></clipPath><clipPath id="clipPath42"><path id="path44" d="m 12,30 0,-14 c 0,0 0,-2 2,-2 l 0,0 10,0 c 0,0 2,0 2,2 l 0,0 0,14 -14,0 z"/></clipPath><clipPath id="clipPath58"><path id="path60" d="M 0,38 38,38 38,0 0,0 0,38 z"/></clipPath></defs><g id="g12" transform="matrix(1.25,0,0,-1.25,0,47.5)"><g id="g14"><g id="g16" clip-path="url(#clipPath18)"><g id="g22" transform="translate(32,12)"><path id="path24" d="m 0,0 c 0,-2.209 -1.791,-4 -4,-4 l -18,0 c -2.209,0 -4,1.791 -4,4 l 0,21 c 0,2.209 1.791,4 4,4 l 18,0 c 2.209,0 4,-1.791 4,-4 L 0,0 z" style="fill:#dd2e44;fill-opacity:1;fill-rule:nonzero;stroke:none"/></g><g id="g26" transform="translate(8,27)"><path id="path28" d="m 0,0 0,4 c 0,0 0,2 2,2 l 18,0 c 0,0 2,0 2,-2 L 22,0 0,0 z" style="fill:#a0041e;fill-opacity:1;fill-rule:nonzero;stroke:none"/></g><g id="g30" transform="translate(28,25)"><path id="path32" d="m 0,0 -18,0 c 0,0 -2,0 -2,2 L -20,5 2,5 2,2 C 2,0 0,0 0,0" style="fill:#292f33;fill-opacity:1;fill-rule:nonzero;stroke:none"/></g><g id="g34" transform="translate(12,30)"><path id="path36" d="m 0,0 0,-14 c 0,0 0,-2 2,-2 l 10,0 c 0,0 2,0 2,2 L 14,0 0,0 z" style="fill:#e1e8ed;fill-opacity:1;fill-rule:nonzero;stroke:none"/></g></g></g><g id="g38"><g id="g40" clip-path="url(#clipPath42)"><g id="g46" transform="translate(25,13)"><path id="path48" d="m 0,0 -9,11 6,6 -11,0 0,-17 14,0 z" style="fill:#ccd6dd;fill-opacity:1;fill-rule:nonzero;stroke:none"/></g><g id="g50" transform="translate(24,13)"><path id="path52" d="m 0,0 c 0,0 -7,9 -8,10 -1,1 0,2 0,2 l 6,6 1,-1 L -7,11 1,1 0,0 z" style="fill:#66757f;fill-opacity:1;fill-rule:nonzero;stroke:none"/></g></g></g><g id="g54"><g id="g56" clip-path="url(#clipPath58)"><path id="path62" d="m 24,8 -9,0 0,-7 9,0 0,7 z" style="fill:#66757f;fill-opacity:1;fill-rule:nonzero;stroke:none"/></g></g></g></svg>