<svg xmlns="http://www.w3.org/2000/svg" xmlns:svg="http://www.w3.org/2000/svg" style="enable-background:new 0 0 47.5 47.5" id="svg2" version="1.1" viewBox="0 0 47.5 47.5" xml:space="preserve"><defs id="defs6"><clipPath id="clipPath18"><path id="path20" d="M 0,38 38,38 38,0 0,0 0,38 z"/></clipPath></defs><g id="g12" transform="matrix(1.25,0,0,-1.25,0,47.5)"><g id="g14"><g id="g16" clip-path="url(#clipPath18)"><g id="g22" transform="translate(9,20)"><path id="path24" d="m 0,0 -8,0 0,-15 c 0,-2.209 1.791,-4 4,-4 2.209,0 4,1.791 4,4 0,-2.209 1.791,-4 4,-4 l 20,0 c 2.209,0 4,1.791 4,4 L 28,0 0,0 z" style="fill:#292f33;fill-opacity:1;fill-rule:nonzero;stroke:none"/></g><g id="g26" transform="translate(33,27)"><path id="path28" d="m 0,0 -20,0 c -2.209,0 -4,-1.791 -4,-4 0,2.209 -1.791,4 -4,4 -2.209,0 -4,-1.791 -4,-4 l 0,-15 c 0,-2.209 1.791,-4 4,-4 2.209,0 4,1.791 4,4 0,-2.209 1.791,-4 4,-4 l 20,0 c 2.209,0 4,1.791 4,4 L 4,-4 C 4,-1.791 2.209,0 0,0" style="fill:#66757f;fill-opacity:1;fill-rule:nonzero;stroke:none"/></g><g id="g30" transform="translate(22,21)"><path id="path32" d="m 0,0 c 0,-1.104 -0.896,-2 -2,-2 l -7,0 c -1.104,0 -2,0.896 -2,2 l 0,2 c 0,1.104 0.896,2 2,2 l 7,0 C -0.896,4 0,3.104 0,2 L 0,0 z" style="fill:#c6e5b3;fill-opacity:1;fill-rule:nonzero;stroke:none"/></g><g id="g34" transform="translate(14,15.5)"><path id="path36" d="M 0,0 C 0,-0.828 -0.671,-1.5 -1.5,-1.5 -2.329,-1.5 -3,-0.828 -3,0 -3,0.828 -2.329,1.5 -1.5,1.5 -0.671,1.5 0,0.828 0,0" style="fill:#ccd6dd;fill-opacity:1;fill-rule:nonzero;stroke:none"/></g><g id="g38" transform="translate(18,15.5)"><path id="path40" d="M 0,0 C 0,-0.828 -0.671,-1.5 -1.5,-1.5 -2.329,-1.5 -3,-0.828 -3,0 -3,0.828 -2.329,1.5 -1.5,1.5 -0.671,1.5 0,0.828 0,0" style="fill:#ccd6dd;fill-opacity:1;fill-rule:nonzero;stroke:none"/></g><g id="g42" transform="translate(22,15.5)"><path id="path44" d="M 0,0 C 0,-0.828 -0.672,-1.5 -1.5,-1.5 -2.328,-1.5 -3,-0.828 -3,0 -3,0.828 -2.328,1.5 -1.5,1.5 -0.672,1.5 0,0.828 0,0" style="fill:#ccd6dd;fill-opacity:1;fill-rule:nonzero;stroke:none"/></g><g id="g46" transform="translate(14,11.5)"><path id="path48" d="M 0,0 C 0,-0.828 -0.671,-1.5 -1.5,-1.5 -2.329,-1.5 -3,-0.828 -3,0 -3,0.828 -2.329,1.5 -1.5,1.5 -0.671,1.5 0,0.828 0,0" style="fill:#ccd6dd;fill-opacity:1;fill-rule:nonzero;stroke:none"/></g><g id="g50" transform="translate(18,11.5)"><path id="path52" d="M 0,0 C 0,-0.828 -0.671,-1.5 -1.5,-1.5 -2.329,-1.5 -3,-0.828 -3,0 -3,0.828 -2.329,1.5 -1.5,1.5 -0.671,1.5 0,0.828 0,0" style="fill:#ccd6dd;fill-opacity:1;fill-rule:nonzero;stroke:none"/></g><g id="g54" transform="translate(22,11.5)"><path id="path56" d="M 0,0 C 0,-0.828 -0.672,-1.5 -1.5,-1.5 -2.328,-1.5 -3,-0.828 -3,0 -3,0.828 -2.328,1.5 -1.5,1.5 -0.672,1.5 0,0.828 0,0" style="fill:#ccd6dd;fill-opacity:1;fill-rule:nonzero;stroke:none"/></g><g id="g58" transform="translate(14,7.5)"><path id="path60" d="M 0,0 C 0,-0.828 -0.671,-1.5 -1.5,-1.5 -2.329,-1.5 -3,-0.828 -3,0 -3,0.828 -2.329,1.5 -1.5,1.5 -0.671,1.5 0,0.828 0,0" style="fill:#ccd6dd;fill-opacity:1;fill-rule:nonzero;stroke:none"/></g><g id="g62" transform="translate(18,7.5)"><path id="path64" d="M 0,0 C 0,-0.828 -0.671,-1.5 -1.5,-1.5 -2.329,-1.5 -3,-0.828 -3,0 -3,0.828 -2.329,1.5 -1.5,1.5 -0.671,1.5 0,0.828 0,0" style="fill:#ccd6dd;fill-opacity:1;fill-rule:nonzero;stroke:none"/></g><g id="g66" transform="translate(22,7.5)"><path id="path68" d="M 0,0 C 0,-0.828 -0.672,-1.5 -1.5,-1.5 -2.328,-1.5 -3,-0.828 -3,0 -3,0.828 -2.328,1.5 -1.5,1.5 -0.672,1.5 0,0.828 0,0" style="fill:#ccd6dd;fill-opacity:1;fill-rule:nonzero;stroke:none"/></g><g id="g70" transform="translate(35,16)"><path id="path72" d="m 0,0 c 0,-0.553 -0.447,-1 -1,-1 l -9,0 c -0.553,0 -1,0.447 -1,1 0,0.553 0.447,1 1,1 l 9,0 C -0.447,1 0,0.553 0,0" style="fill:#99aab5;fill-opacity:1;fill-rule:nonzero;stroke:none"/></g><g id="g74" transform="translate(35,13)"><path id="path76" d="m 0,0 c 0,-0.553 -0.447,-1 -1,-1 l -9,0 c -0.553,0 -1,0.447 -1,1 0,0.553 0.447,1 1,1 l 9,0 C -0.447,1 0,0.553 0,0" style="fill:#99aab5;fill-opacity:1;fill-rule:nonzero;stroke:none"/></g><g id="g78" transform="translate(35,10)"><path id="path80" d="m 0,0 c 0,-0.553 -0.447,-1 -1,-1 l -9,0 c -0.553,0 -1,0.447 -1,1 0,0.553 0.447,1 1,1 l 9,0 C -0.447,1 0,0.553 0,0" style="fill:#99aab5;fill-opacity:1;fill-rule:nonzero;stroke:none"/></g><g id="g82" transform="translate(35,7)"><path id="path84" d="m 0,0 c 0,-0.553 -0.447,-1 -1,-1 l -9,0 c -0.553,0 -1,0.447 -1,1 0,0.553 0.447,1 1,1 l 9,0 C -0.447,1 0,0.553 0,0" style="fill:#99aab5;fill-opacity:1;fill-rule:nonzero;stroke:none"/></g><g id="g86" transform="translate(28,22)"><path id="path88" d="m 0,0 c 0,-1.104 -0.896,-2 -2,-2 -1.104,0 -2,0.896 -2,2 0,1.104 0.896,2 2,2 1.104,0 2,-0.896 2,-2" style="fill:#ccd6dd;fill-opacity:1;fill-rule:nonzero;stroke:none"/></g><g id="g90" transform="translate(35,22)"><path id="path92" d="m 0,0 c 0,-1.104 -0.896,-2 -2,-2 -1.104,0 -2,0.896 -2,2 0,1.104 0.896,2 2,2 1.104,0 2,-0.896 2,-2" style="fill:#ccd6dd;fill-opacity:1;fill-rule:nonzero;stroke:none"/></g><g id="g94" transform="translate(33,27)"><path id="path96" d="m 0,0 -20,0 0,6 c 0,2.209 1.791,4 4,4 l 12,0 C -1.791,10 0,8.209 0,6 L 0,0 z" style="fill:#ccd6dd;fill-opacity:1;fill-rule:nonzero;stroke:none"/></g><g id="g98" transform="translate(31,33)"><path id="path100" d="m 0,0 c 0,-0.553 -0.447,-1 -1,-1 l -14,0 c -0.553,0 -1,0.447 -1,1 0,0.553 0.447,1 1,1 L -1,1 C -0.447,1 0,0.553 0,0" style="fill:#99aab5;fill-opacity:1;fill-rule:nonzero;stroke:none"/></g><g id="g102" transform="translate(23,30)"><path id="path104" d="m 0,0 c 0,-0.553 -0.447,-1 -1,-1 l -6,0 c -0.553,0 -1,0.447 -1,1 0,0.553 0.447,1 1,1 l 6,0 C -0.447,1 0,0.553 0,0" style="fill:#99aab5;fill-opacity:1;fill-rule:nonzero;stroke:none"/></g></g></g></g></svg>