<svg xmlns="http://www.w3.org/2000/svg" xmlns:svg="http://www.w3.org/2000/svg" style="enable-background:new 0 0 47.5 47.5" id="svg2" version="1.1" viewBox="0 0 47.5 47.5" xml:space="preserve"><defs id="defs6"><clipPath id="clipPath18"><path id="path20" d="M 0,38 38,38 38,0 0,0 0,38 z"/></clipPath></defs><g id="g12" transform="matrix(1.25,0,0,-1.25,0,47.5)"><g id="g14"><g id="g16" clip-path="url(#clipPath18)"><g id="g22" transform="translate(23,4)"><path id="path24" d="m 0,0 c 0,-2.209 -8,-2.209 -8,0 l 0,10 c 0,2.209 1.791,4 4,4 2.209,0 4,-1.791 4,-4 L 0,0 z" style="fill:#c1694f;fill-opacity:1;fill-rule:nonzero;stroke:none"/></g><g id="g26" transform="translate(27,34)"><path id="path28" d="m 0,0 -16,0 0,-20 8,0 8,0 8,0 0,12 C 8,-3.582 4.418,0 0,0" style="fill:#99aab5;fill-opacity:1;fill-rule:nonzero;stroke:none"/></g><g id="g30" transform="translate(11,34)"><path id="path32" d="m 0,0 c -4.418,0 -8,-3.582 -8,-8 l 0,-12 16,0 0,12 C 8,-3.582 4.418,0 0,0" style="fill:#292f33;fill-opacity:1;fill-rule:nonzero;stroke:none"/></g><g id="g34" transform="translate(10,34)"><path id="path36" d="m 0,0 c -3.866,0 -7,-3.582 -7,-8 l 0,-12 14,0 0,12 C 7,-3.582 3.866,0 0,0" style="fill:#99aab5;fill-opacity:1;fill-rule:nonzero;stroke:none"/></g><g id="g38" transform="translate(35,24)"><path id="path40" d="m 0,0 -2,0 -10,0 c -1.104,0 -2,-0.896 -2,-2 0,-1.104 0.896,-2 2,-2 l 8,0 0,-2 c 0,-1.104 0.896,-2 2,-2 l 2,0 c 1.104,0 2,0.896 2,2 l 0,4 C 2,-0.896 1.104,0 0,0" style="fill:#dd2e44;fill-opacity:1;fill-rule:nonzero;stroke:none"/></g></g></g></g></svg>