<svg xmlns="http://www.w3.org/2000/svg" xmlns:svg="http://www.w3.org/2000/svg" style="enable-background:new 0 0 47.5 47.5" id="svg2" version="1.1" viewBox="0 0 47.5 47.5" xml:space="preserve"><defs id="defs6"><clipPath id="clipPath18"><path id="path20" d="M 0,38 38,38 38,0 0,0 0,38 z"/></clipPath></defs><g id="g12" transform="matrix(1.25,0,0,-1.25,0,47.5)"><g id="g14"><g id="g16" clip-path="url(#clipPath18)"><g id="g22" transform="translate(3.6968,24.6113)"><path id="path24" d="m 0,0 c -0.391,-0.391 -0.391,-1.023 0,-1.414 0.391,-0.391 1.023,-0.391 1.414,0 l 9.192,9.192 c 0.391,0.39 0.391,1.023 0,1.414 -0.391,0.391 -1.023,0.391 -1.414,0 L 0,0 z" style="fill:#414042;fill-opacity:1;fill-rule:nonzero;stroke:none"/></g><g id="g26" transform="translate(37,5)"><path id="path28" d="m 0,0 c 0,-4 -4,-4 -4,-4 l -28,0 c 0,0 -4,0 -4,4 l 0,18 c 0,0 0,4 4,4 l 28,0 c 4,0 4,-4 4,-4 L 0,0 z" style="fill:#99aab5;fill-opacity:1;fill-rule:nonzero;stroke:none"/></g><g id="g30" transform="translate(16.5605,33.9395)"><path id="path32" d="m 0,0 c -0.391,-0.391 -1.023,-0.391 -1.414,0 l -0.707,0.707 c -0.391,0.391 -0.391,1.023 0,1.414 0.391,0.391 1.023,0.391 1.414,0 L 0,1.414 C 0.391,1.023 0.391,0.391 0,0" style="fill:#414042;fill-opacity:1;fill-rule:nonzero;stroke:none"/></g><g id="g34" transform="translate(34,18.5)"><path id="path36" d="m 0,0 c 0,-3.038 -2.462,-5.5 -5.5,-5.5 -3.038,0 -5.5,2.462 -5.5,5.5 0,3.038 2.462,5.5 5.5,5.5 C -2.462,5.5 0,3.038 0,0" style="fill:#292f33;fill-opacity:1;fill-rule:nonzero;stroke:none"/></g><g id="g38" transform="translate(32,7.5)"><path id="path40" d="M 0,0 C 0,-1.934 -1.566,-3.5 -3.5,-3.5 -5.434,-3.5 -7,-1.934 -7,0 -7,1.934 -5.434,3.5 -3.5,3.5 -1.566,3.5 0,1.934 0,0" style="fill:#292f33;fill-opacity:1;fill-rule:nonzero;stroke:none"/></g><g id="g42" transform="translate(32,18.5)"><path id="path44" d="M 0,0 C 0,-1.934 -1.566,-3.5 -3.5,-3.5 -5.434,-3.5 -7,-1.934 -7,0 -7,1.934 -5.434,3.5 -3.5,3.5 -1.566,3.5 0,1.934 0,0" style="fill:#66757f;fill-opacity:1;fill-rule:nonzero;stroke:none"/></g><g id="g46" transform="translate(30,7.5)"><path id="path48" d="M 0,0 C 0,-0.829 -0.671,-1.5 -1.5,-1.5 -2.329,-1.5 -3,-0.829 -3,0 -3,0.829 -2.329,1.5 -1.5,1.5 -0.671,1.5 0,0.829 0,0" style="fill:#66757f;fill-opacity:1;fill-rule:nonzero;stroke:none"/></g><g id="g50" transform="translate(13,11.5)"><path id="path52" d="M 0,0 C 0,-0.828 -0.671,-1.5 -1.5,-1.5 -2.329,-1.5 -3,-0.828 -3,0 -3,0.828 -2.329,1.5 -1.5,1.5 -0.671,1.5 0,0.828 0,0" style="fill:#292f33;fill-opacity:1;fill-rule:nonzero;stroke:none"/></g><g id="g54" transform="translate(8,11.5)"><path id="path56" d="M 0,0 C 0,-0.828 -0.671,-1.5 -1.5,-1.5 -2.329,-1.5 -3,-0.828 -3,0 -3,0.828 -2.329,1.5 -1.5,1.5 -0.671,1.5 0,0.828 0,0" style="fill:#292f33;fill-opacity:1;fill-rule:nonzero;stroke:none"/></g><g id="g58" transform="translate(13,16.5)"><path id="path60" d="M 0,0 C 0,-0.828 -0.671,-1.5 -1.5,-1.5 -2.329,-1.5 -3,-0.828 -3,0 -3,0.828 -2.329,1.5 -1.5,1.5 -0.671,1.5 0,0.828 0,0" style="fill:#292f33;fill-opacity:1;fill-rule:nonzero;stroke:none"/></g><g id="g62" transform="translate(18,16.5)"><path id="path64" d="M 0,0 C 0,-0.828 -0.671,-1.5 -1.5,-1.5 -2.329,-1.5 -3,-0.828 -3,0 -3,0.828 -2.329,1.5 -1.5,1.5 -0.671,1.5 0,0.828 0,0" style="fill:#292f33;fill-opacity:1;fill-rule:nonzero;stroke:none"/></g><g id="g66" transform="translate(18,11.5)"><path id="path68" d="M 0,0 C 0,-0.828 -0.671,-1.5 -1.5,-1.5 -2.329,-1.5 -3,-0.828 -3,0 -3,0.828 -2.329,1.5 -1.5,1.5 -0.671,1.5 0,0.828 0,0" style="fill:#292f33;fill-opacity:1;fill-rule:nonzero;stroke:none"/></g><g id="g70" transform="translate(18,6.5)"><path id="path72" d="M 0,0 C 0,-0.828 -0.671,-1.5 -1.5,-1.5 -2.329,-1.5 -3,-0.828 -3,0 -3,0.828 -2.329,1.5 -1.5,1.5 -0.671,1.5 0,0.828 0,0" style="fill:#292f33;fill-opacity:1;fill-rule:nonzero;stroke:none"/></g><g id="g74" transform="translate(8,6.5)"><path id="path76" d="M 0,0 C 0,-0.828 -0.671,-1.5 -1.5,-1.5 -2.329,-1.5 -3,-0.828 -3,0 -3,0.828 -2.329,1.5 -1.5,1.5 -0.671,1.5 0,0.828 0,0" style="fill:#292f33;fill-opacity:1;fill-rule:nonzero;stroke:none"/></g><g id="g78" transform="translate(8,16.5)"><path id="path80" d="M 0,0 C 0,-0.828 -0.671,-1.5 -1.5,-1.5 -2.329,-1.5 -3,-0.828 -3,0 -3,0.828 -2.329,1.5 -1.5,1.5 -0.671,1.5 0,0.828 0,0" style="fill:#292f33;fill-opacity:1;fill-rule:nonzero;stroke:none"/></g><g id="g82" transform="translate(13,21.5)"><path id="path84" d="M 0,0 C 0,-0.828 -0.671,-1.5 -1.5,-1.5 -2.329,-1.5 -3,-0.828 -3,0 -3,0.828 -2.329,1.5 -1.5,1.5 -0.671,1.5 0,0.828 0,0" style="fill:#292f33;fill-opacity:1;fill-rule:nonzero;stroke:none"/></g><g id="g86" transform="translate(18,21.5)"><path id="path88" d="M 0,0 C 0,-0.828 -0.671,-1.5 -1.5,-1.5 -2.329,-1.5 -3,-0.828 -3,0 -3,0.828 -2.329,1.5 -1.5,1.5 -0.671,1.5 0,0.828 0,0" style="fill:#292f33;fill-opacity:1;fill-rule:nonzero;stroke:none"/></g><g id="g90" transform="translate(8,21.5)"><path id="path92" d="M 0,0 C 0,-0.828 -0.671,-1.5 -1.5,-1.5 -2.329,-1.5 -3,-0.828 -3,0 -3,0.828 -2.329,1.5 -1.5,1.5 -0.671,1.5 0,0.828 0,0" style="fill:#292f33;fill-opacity:1;fill-rule:nonzero;stroke:none"/></g><g id="g94" transform="translate(13,6.5)"><path id="path96" d="M 0,0 C 0,-0.828 -0.671,-1.5 -1.5,-1.5 -2.329,-1.5 -3,-0.828 -3,0 -3,0.828 -2.329,1.5 -1.5,1.5 -0.671,1.5 0,0.828 0,0" style="fill:#292f33;fill-opacity:1;fill-rule:nonzero;stroke:none"/></g></g></g></g></svg>