<svg xmlns="http://www.w3.org/2000/svg" xmlns:svg="http://www.w3.org/2000/svg" style="enable-background:new 0 0 47.5 47.5" id="svg2" version="1.1" viewBox="0 0 47.5 47.5" xml:space="preserve"><defs id="defs6"><clipPath id="clipPath18"><path id="path20" d="M 0,38 38,38 38,0 0,0 0,38 z"/></clipPath><clipPath id="clipPath34"><path id="path36" d="M 5,25 C 4,25 3,23 3,20 l 0,0 c 0,-3 1,-5 2,-5 l 0,0 6,0 c 1,0 1,1 1,1 l 0,0 0,8 c 0,1 -1,1 -1,1 l 0,0 -6,0 z"/></clipPath><clipPath id="clipPath50"><path id="path52" d="M 0,38 38,38 38,0 0,0 0,38 z"/></clipPath><clipPath id="clipPath62"><path id="path64" d="m 27,25 c 0,0 -1,0 -1,-1 l 0,0 0,-8 c 0,0 0,-1 1,-1 l 0,0 6,0 c 1,0 2,2 2,5 l 0,0 c 0,3 -1,5 -2,5 l 0,0 -6,0 z"/></clipPath><clipPath id="clipPath78"><path id="path80" d="M 0,38 38,38 38,0 0,0 0,38 z"/></clipPath></defs><g id="g12" transform="matrix(1.25,0,0,-1.25,0,47.5)"><g id="g14"><g id="g16" clip-path="url(#clipPath18)"><g id="g22" transform="translate(37,12)"><path id="path24" d="m 0,0 c 0,0 0,-4 -4,-4 l -28,0 c 0,0 -4,0 -4,4 l 0,15 c 0,4 4,4 4,4 l 28,0 c 0,0 4,0 4,-4 L 0,0 z" style="fill:#292f33;fill-opacity:1;fill-rule:nonzero;stroke:none"/></g><g id="g26" transform="translate(5,25)"><path id="path28" d="m 0,0 6,0 c 0,0 1,0 1,-1 l 0,-8 c 0,0 0,-1 -1,-1 l -6,0 c -1,0 -2,2 -2,5 0,3 1,5 2,5" style="fill:#ccd6dd;fill-opacity:1;fill-rule:nonzero;stroke:none"/></g></g></g><g id="g30"><g id="g32" clip-path="url(#clipPath34)"><g id="g38" transform="translate(19,20)"><path id="path40" d="m 0,0 c 0,-3.865 -3.134,-7 -7,-7 -3.866,0 -7,3.135 -7,7 0,3.866 3.134,7 7,7 3.866,0 7,-3.134 7,-7" style="fill:#000;fill-opacity:1;fill-rule:nonzero;stroke:none"/></g><g id="g42" transform="translate(15,20)"><path id="path44" d="m 0,0 c 0,-1.657 -1.343,-3 -3,-3 -1.657,0 -3,1.343 -3,3 0,1.657 1.343,3 3,3 1.657,0 3,-1.343 3,-3" style="fill:#66757f;fill-opacity:1;fill-rule:nonzero;stroke:none"/></g></g></g><g id="g46"><g id="g48" clip-path="url(#clipPath50)"><g id="g54" transform="translate(33,25)"><path id="path56" d="m 0,0 -6,0 c 0,0 -1,0 -1,-1 l 0,-8 c 0,0 0,-1 1,-1 l 6,0 c 1,0 2,2 2,5 0,3 -1,5 -2,5" style="fill:#ccd6dd;fill-opacity:1;fill-rule:nonzero;stroke:none"/></g></g></g><g id="g58"><g id="g60" clip-path="url(#clipPath62)"><g id="g66" transform="translate(33,20)"><path id="path68" d="m 0,0 c 0,-3.867 -3.133,-7 -7,-7 -3.867,0 -7,3.133 -7,7 0,3.865 3.133,7 7,7 3.867,0 7,-3.135 7,-7" style="fill:#000;fill-opacity:1;fill-rule:nonzero;stroke:none"/></g><g id="g70" transform="translate(29,20)"><path id="path72" d="m 0,0 c 0,-1.657 -1.344,-3 -3,-3 -1.656,0 -3,1.343 -3,3 0,1.657 1.344,3 3,3 1.656,0 3,-1.343 3,-3" style="fill:#66757f;fill-opacity:1;fill-rule:nonzero;stroke:none"/></g></g></g><g id="g74"><g id="g76" clip-path="url(#clipPath78)"><g id="g82" transform="translate(14,23)"><path id="path84" d="m 0,0 c 0,0 0,1 1,1 l 8,0 c 0,0 1,0 1,-1 l 0,-6 c 0,0 0,-1 -1,-1 l -8,0 c 0,0 -1,0 -1,1 l 0,6 z" style="fill:#88c9f9;fill-opacity:1;fill-rule:nonzero;stroke:none"/></g><g id="g86" transform="translate(35,11)"><path id="path88" d="m 0,0 c 0,-0.553 -0.447,-1 -1,-1 l -30,0 c -0.552,0 -1,0.447 -1,1 0,0.553 0.448,1 1,1 L -1,1 C -0.447,1 0,0.553 0,0" style="fill:#000;fill-opacity:1;fill-rule:nonzero;stroke:none"/></g></g></g></g></svg>