<svg xmlns="http://www.w3.org/2000/svg" xmlns:svg="http://www.w3.org/2000/svg" style="enable-background:new 0 0 47.5 47.5" id="svg2" version="1.1" viewBox="0 0 47.5 47.5" xml:space="preserve"><defs id="defs6"><clipPath id="clipPath18"><path id="path20" d="M 0,38 38,38 38,0 0,0 0,38 z"/></clipPath></defs><g id="g12" transform="matrix(1.25,0,0,-1.25,0,47.5)"><g id="g14"><g id="g16" clip-path="url(#clipPath18)"><g id="g22" transform="translate(36,19)"><path id="path24" d="m 0,0 c 0,9.389 -7.611,17 -17,17 -9.388,0 -16.999,-7.611 -16.999,-17 0,-9.389 7.611,-17 16.999,-17 9.389,0 17,7.611 17,17" style="fill:#000;fill-opacity:1;fill-rule:nonzero;stroke:none"/></g><g id="g26" transform="translate(14.0005,6)"><path id="path28" d="m 0,0 c 0,0 -3,0 -3,3 -10e-4,2 0,20 0,20 0,0 0,3 3,3 l 10,0 c 0,0 3,0 3,-3 L 13,3 C 13,3 13,0 10,0 L 0,0 z" style="fill:#fff;fill-opacity:1;fill-rule:nonzero;stroke:none"/></g><path id="path30" d="m 13,10 12,0 0,18 -12,0 0,-18 z" style="fill:#000;fill-opacity:1;fill-rule:nonzero;stroke:none"/><g id="g32" transform="translate(30.6797,8.0879)"><path id="path34" d="m 0,0 -22.591,22.591 c 2.86,2.673 6.689,4.321 10.911,4.321 8.837,0 16,-7.163 16,-16 C 4.32,6.689 2.672,2.859 0,0 m -11.68,-5.088 c -8.836,0 -15.999,7.163 -15.999,16 0,3.713 1.276,7.121 3.397,9.835 L -1.845,-1.69 C -4.56,-3.813 -7.967,-5.088 -11.68,-5.088 m 10e-4,34 c -9.941,0 -18,-8.059 -18,-18 0,-9.941 8.059,-18 18,-18 9.941,0 17.999,8.059 17.999,18 0,9.941 -8.058,18 -17.999,18" style="fill:#dd2e44;fill-opacity:1;fill-rule:nonzero;stroke:none"/></g></g></g></g></svg>