<svg xmlns="http://www.w3.org/2000/svg" xmlns:svg="http://www.w3.org/2000/svg" style="enable-background:new 0 0 47.5 47.5" id="svg2" version="1.1" viewBox="0 0 47.5 47.5" xml:space="preserve"><defs id="defs6"><clipPath id="clipPath18"><path id="path20" d="M 0,38 38,38 38,0 0,0 0,38 z"/></clipPath></defs><g id="g12" transform="matrix(1.25,0,0,-1.25,0,47.5)"><g id="g14"><g id="g16" clip-path="url(#clipPath18)"><g id="g22" transform="translate(34,1)"><path id="path24" d="m 0,0 -29,0 c 4,0 3,9 3,9 0,2.209 1.791,15 4,15 l 21,0 c 0,0 4,0 4,-4 L 3,3 C 3,3 3,0 0,0" style="fill:#99aab5;fill-opacity:1;fill-rule:nonzero;stroke:none"/></g><g id="g26" transform="translate(31,4)"><path id="path28" d="m 0,0 c 0,-3 3,-3 3,-3 l -30,0 c 0,0 -3,0 -3,4 l 0,28 c 0,2.209 1.791,4 4,4 l 22,0 c 2.209,0 4,-1.791 4,-4 L 0,0 z" style="fill:#ccd6dd;fill-opacity:1;fill-rule:nonzero;stroke:none"/></g><g id="g30" transform="translate(28,17)"><path id="path32" d="m 0,0 c 0,-0.553 -0.447,-1 -1,-1 l -8,0 c -0.552,0 -1,0.447 -1,1 0,0.553 0.448,1 1,1 l 8,0 C -0.447,1 0,0.553 0,0" style="fill:#99aab5;fill-opacity:1;fill-rule:nonzero;stroke:none"/></g><g id="g34" transform="translate(28,21)"><path id="path36" d="m 0,0 c 0,-0.553 -0.447,-1 -1,-1 l -8,0 c -0.552,0 -1,0.447 -1,1 0,0.553 0.448,1 1,1 l 8,0 C -0.447,1 0,0.553 0,0" style="fill:#99aab5;fill-opacity:1;fill-rule:nonzero;stroke:none"/></g><g id="g38" transform="translate(28,25)"><path id="path40" d="m 0,0 c 0,-0.553 -0.447,-1 -1,-1 l -8,0 c -0.552,0 -1,0.447 -1,1 0,0.553 0.448,1 1,1 l 8,0 C -0.447,1 0,0.553 0,0" style="fill:#99aab5;fill-opacity:1;fill-rule:nonzero;stroke:none"/></g><g id="g42" transform="translate(28,13)"><path id="path44" d="m 0,0 c 0,-0.553 -0.447,-1 -1,-1 l -22,0 c -0.552,0 -1,0.447 -1,1 0,0.553 0.448,1 1,1 L -1,1 C -0.447,1 0,0.553 0,0" style="fill:#99aab5;fill-opacity:1;fill-rule:nonzero;stroke:none"/></g><g id="g46" transform="translate(28,9)"><path id="path48" d="m 0,0 c 0,-0.553 -0.447,-1 -1,-1 l -22,0 c -0.552,0 -1,0.447 -1,1 0,0.553 0.448,1 1,1 L -1,1 C -0.447,1 0,0.553 0,0" style="fill:#99aab5;fill-opacity:1;fill-rule:nonzero;stroke:none"/></g><g id="g50" transform="translate(28,5)"><path id="path52" d="m 0,0 c 0,-0.553 -0.447,-1 -1,-1 l -22,0 c -0.552,0 -1,0.447 -1,1 0,0.553 0.448,1 1,1 L -1,1 C -0.447,1 0,0.553 0,0" style="fill:#99aab5;fill-opacity:1;fill-rule:nonzero;stroke:none"/></g><g id="g54" transform="translate(26,28)"><path id="path56" d="M 0,0 C 0,0 2,0 2,2 L 2,4 C 2,4 2,6 0,6 l -20,0 c 0,0 -2,0 -2,-2 l 0,-2 c 0,0 0,-2 2,-2 L 0,0 z" style="fill:#99aab5;fill-opacity:1;fill-rule:nonzero;stroke:none"/></g><g id="g58" transform="translate(14,16)"><path id="path60" d="m 0,0 c 0,0 2,0 2,2 l 0,6 c 0,0 0,2 -2,2 l -8,0 c 0,0 -2,0 -2,-2 l 0,-6 c 0,0 0,-2 2,-2 l 8,0 z" style="fill:#55acee;fill-opacity:1;fill-rule:nonzero;stroke:none"/></g></g></g></g></svg>