<svg xmlns="http://www.w3.org/2000/svg" xmlns:svg="http://www.w3.org/2000/svg" style="enable-background:new 0 0 47.5 47.5" id="svg2" version="1.1" viewBox="0 0 47.5 47.5" xml:space="preserve"><defs id="defs6"><clipPath id="clipPath18"><path id="path20" d="M 0,38 38,38 38,0 0,0 0,38 z"/></clipPath></defs><g id="g12" transform="matrix(1.25,0,0,-1.25,0,47.5)"><g id="g14"><g id="g16" clip-path="url(#clipPath18)"><g id="g22" transform="translate(10,27)"><path id="path24" d="m 0,0 c 0,0 -2,0 -2,-2 l 0,-12 c 0,-2 2,-2 2,-2 l 6,0 8,-8 c 0,0 1,-1 2,-1 l 1,0 c 0,0 1,0 1,1 l 0,32 c 0,0 0,1 -1,1 L 16,9 C 15,9 14,8 14,8 L 6,0 0,0 z" style="fill:#8899a6;fill-opacity:1;fill-rule:nonzero;stroke:none"/></g><g id="g26" transform="translate(16,11)"><path id="path28" d="m 0,0 8,-8 c 0,0 1,-1 2,-1 l 1,0 c 0,0 1,0 1,1 l 0,32 c 0,0 0,1 -1,1 l -1,0 C 9,25 8,24 8,24 L 0,16 0,0 z" style="fill:#ccd6dd;fill-opacity:1;fill-rule:nonzero;stroke:none"/></g></g></g></g></svg>