<svg xmlns="http://www.w3.org/2000/svg" xmlns:svg="http://www.w3.org/2000/svg" style="enable-background:new 0 0 47.5 47.5" id="svg2" version="1.1" viewBox="0 0 47.5 47.5" xml:space="preserve"><defs id="defs6"><clipPath id="clipPath18"><path id="path20" d="M 0,38 38,38 38,0 0,0 0,38 z"/></clipPath><clipPath id="clipPath62"><path id="path64" d="M 24,24 14,14 c -1,-1 0,-2 0,-2 l 0,0 3,-3 c 1,-1 2,0 2,0 l 0,0 10,10 c 1,1 0,2 0,2 l 0,0 -3,3 c -0.333,0.334 -0.666,0.445 -0.963,0.445 l 0,0 C 24.445,24.445 24,24 24,24"/></clipPath><clipPath id="clipPath78"><path id="path80" d="M 0,38 38,38 38,0 0,0 0,38 z"/></clipPath><clipPath id="clipPath90"><path id="path92" d="M 12,36 2,26 C 1,25 2,24 2,24 l 0,0 3,-3 c 1,-1 2,0 2,0 l 0,0 10,10 c 1,1 0,2 0,2 l 0,0 -3,3 c -0.333,0.333 -0.667,0.444 -0.963,0.444 l 0,0 C 12.444,36.444 12,36 12,36"/></clipPath></defs><g id="g12" transform="matrix(1.25,0,0,-1.25,0,47.5)"><g id="g14"><g id="g16" clip-path="url(#clipPath18)"><g id="g22" transform="translate(36.3535,6.3535)"><path id="path24" d="m 0,0 -25.354,25.354 -4.707,-4.708 25.354,-25.353 c 0.061,-0.061 0.613,-0.591 1.391,-0.591 0.474,0 0.929,0.204 1.316,0.591 l 2,2 C 0.544,-2.163 0.993,-0.993 0,0" style="fill:#8899a6;fill-opacity:1;fill-rule:nonzero;stroke:none"/></g><g id="g26" transform="translate(31,2)"><path id="path28" d="m 0,0 c -0.104,0 -0.211,0.017 -0.316,0.052 -0.524,0.174 -0.807,0.74 -0.632,1.264 l 2,6 C 1.227,7.84 1.787,8.124 2.316,7.948 2.84,7.774 3.123,7.208 2.948,6.684 l -2,-6 C 0.809,0.265 0.419,0 0,0" style="fill:#66757f;fill-opacity:1;fill-rule:nonzero;stroke:none"/></g><g id="g30" transform="translate(28,5)"><path id="path32" d="m 0,0 c -0.104,0 -0.211,0.017 -0.316,0.052 -0.524,0.174 -0.807,0.74 -0.632,1.264 l 2,6 C 1.226,7.84 1.789,8.125 2.316,7.948 2.84,7.774 3.123,7.208 2.948,6.684 l -2,-6 C 0.809,0.265 0.419,0 0,0" style="fill:#66757f;fill-opacity:1;fill-rule:nonzero;stroke:none"/></g><g id="g34" transform="translate(25,8)"><path id="path36" d="m 0,0 c -0.104,0 -0.211,0.017 -0.316,0.052 -0.524,0.174 -0.807,0.74 -0.632,1.264 l 2,6 C 1.227,7.84 1.787,8.124 2.316,7.948 2.84,7.774 3.123,7.208 2.948,6.684 l -2,-6 C 0.809,0.265 0.419,0 0,0" style="fill:#66757f;fill-opacity:1;fill-rule:nonzero;stroke:none"/></g><g id="g38" transform="translate(22,11)"><path id="path40" d="m 0,0 c -0.104,0 -0.211,0.017 -0.316,0.052 -0.524,0.174 -0.807,0.74 -0.632,1.264 l 2,6 C 1.226,7.84 1.789,8.125 2.316,7.949 2.84,7.774 3.123,7.208 2.948,6.684 l -2,-6 C 0.809,0.265 0.419,0 0,0" style="fill:#66757f;fill-opacity:1;fill-rule:nonzero;stroke:none"/></g><g id="g42" transform="translate(17,16)"><path id="path44" d="m 0,0 c -0.104,0 -0.211,0.017 -0.316,0.052 -0.524,0.174 -0.808,0.74 -0.633,1.264 l 2,6 C 1.226,7.84 1.792,8.125 2.316,7.949 2.84,7.774 3.123,7.208 2.949,6.684 l -2,-6 C 0.809,0.265 0.419,0 0,0" style="fill:#66757f;fill-opacity:1;fill-rule:nonzero;stroke:none"/></g><g id="g46" transform="translate(14,18.9995)"><path id="path48" d="M 0,0 C -0.104,0 -0.211,0.017 -0.316,0.052 -0.84,0.227 -1.124,0.793 -0.949,1.317 l 2,6 C 1.226,7.84 1.791,8.126 2.316,7.949 2.84,7.774 3.124,7.208 2.949,6.684 l -2,-6 C 0.809,0.265 0.419,0 0,0" style="fill:#66757f;fill-opacity:1;fill-rule:nonzero;stroke:none"/></g><g id="g50" transform="translate(11,21.9995)"><path id="path52" d="M 0,0 C -0.104,0 -0.211,0.017 -0.316,0.052 -0.84,0.227 -1.124,0.793 -0.949,1.317 l 2,6 C 1.226,7.84 1.792,8.125 2.316,7.949 2.84,7.774 3.124,7.208 2.949,6.684 l -2,-6 C 0.809,0.265 0.419,0 0,0" style="fill:#66757f;fill-opacity:1;fill-rule:nonzero;stroke:none"/></g><g id="g54" transform="translate(14,12)"><path id="path56" d="m 0,0 c 0,0 -1,1 0,2 l 10,10 c 0,0 1,1 2,0 l 3,-3 c 0,0 1,-1 0,-2 L 5,-3 C 5,-3 4,-4 3,-3 L 0,0 z" style="fill:#ccd6dd;fill-opacity:1;fill-rule:nonzero;stroke:none"/></g></g></g><g id="g58"><g id="g60" clip-path="url(#clipPath62)"><g id="g66" transform="translate(15,17)"><path id="path68" d="M 0,0 7.5,-7.5 4,-11 -3.292,-3.708 0,0 z" style="fill:#8899a6;fill-opacity:1;fill-rule:nonzero;stroke:none"/></g><g id="g70" transform="translate(21,23)"><path id="path72" d="M 0,0 7,-7 10.5,-3.5 4.021,2.979 0,0 z" style="fill:#e1e8ed;fill-opacity:1;fill-rule:nonzero;stroke:none"/></g></g></g><g id="g74"><g id="g76" clip-path="url(#clipPath78)"><g id="g82" transform="translate(2,24)"><path id="path84" d="m 0,0 c 0,0 -1,1 0,2 l 10,10 c 0,0 1,1 2,0 l 3,-3 c 0,0 1,-1 0,-2 L 5,-3 C 5,-3 4,-4 3,-3 L 0,0 z" style="fill:#ccd6dd;fill-opacity:1;fill-rule:nonzero;stroke:none"/></g></g></g><g id="g86"><g id="g88" clip-path="url(#clipPath90)"><g id="g94" transform="translate(3,29)"><path id="path96" d="M 0,0 7.5,-7.5 4,-11 -3.292,-3.708 0,0 z" style="fill:#8899a6;fill-opacity:1;fill-rule:nonzero;stroke:none"/></g><g id="g98" transform="translate(9,35)"><path id="path100" d="M 0,0 7,-7 10.5,-3.5 4.021,2.979 0,0 z" style="fill:#e1e8ed;fill-opacity:1;fill-rule:nonzero;stroke:none"/></g></g></g></g></svg>