<svg xmlns="http://www.w3.org/2000/svg" xmlns:svg="http://www.w3.org/2000/svg" style="enable-background:new 0 0 47.5 47.5" id="svg2" version="1.1" viewBox="0 0 47.5 47.5" xml:space="preserve"><defs id="defs6"><clipPath id="clipPath18"><path id="path20" d="M 0,38 38,38 38,0 0,0 0,38 z"/></clipPath></defs><g id="g12" transform="matrix(1.25,0,0,-1.25,0,47.5)"><g id="g14"><g id="g16" clip-path="url(#clipPath18)"><g id="g22" transform="translate(37,5)"><path id="path24" d="m 0,0 c 0,-2.209 -1.791,-4 -4,-4 l -28,0 c -2.209,0 -4,1.791 -4,4 l 0,28 c 0,2.209 1.791,4 4,4 l 28,0 c 2.209,0 4,-1.791 4,-4 L 0,0 z" style="fill:#231f20;fill-opacity:1;fill-rule:nonzero;stroke:none"/></g><g id="g26" transform="translate(31,9)"><path id="path28" d="m 0,0 c 0,-1.104 -0.896,-2 -2,-2 l -20,0 c -1.104,0 -2,0.896 -2,2 l 0,20 c 0,1.104 0.896,2 2,2 l 20,0 c 1.104,0 2,-0.896 2,-2 L 0,0 z" style="fill:#e6e7e8;fill-opacity:1;fill-rule:nonzero;stroke:none"/></g></g></g></g></svg>