<svg xmlns="http://www.w3.org/2000/svg" xmlns:svg="http://www.w3.org/2000/svg" style="enable-background:new 0 0 47.5 47.5" id="svg2" version="1.1" viewBox="0 0 47.5 47.5" xml:space="preserve"><defs id="defs6"><clipPath id="clipPath18"><path id="path20" d="M 0,38 38,38 38,0 0,0 0,38 z"/></clipPath></defs><g id="g12" transform="matrix(1.25,0,0,-1.25,0,47.5)"><g id="g14"><g id="g16" clip-path="url(#clipPath18)"><g id="g22" transform="translate(1,19)"><path id="path24" d="m 0,0 c 0,-9.94 8.059,-18 18,-18 9.941,0 18,8.06 18,18 C 36,9.941 27.941,18 18,18 8.059,18 0,9.941 0,0" style="fill:#99aab5;fill-opacity:1;fill-rule:nonzero;stroke:none"/></g><g id="g26" transform="translate(5,19)"><path id="path28" d="m 0,0 c 0,-7.731 6.268,-14 14,-14 7.732,0 14,6.269 14,14 C 28,7.732 21.732,14 14,14 6.268,14 0,7.732 0,0" style="fill:#e1e8ed;fill-opacity:1;fill-rule:nonzero;stroke:none"/></g><g id="g30" transform="translate(18,19)"><path id="path32" d="m 0,0 c 0,-0.553 0.448,-1 1,-1 0.553,0 1,0.447 1,1 L 2,11 C 2,11.552 1.553,12 1,12 0.448,12 0,11.552 0,11 L 0,0 z" style="fill:#66757f;fill-opacity:1;fill-rule:nonzero;stroke:none"/></g><g id="g34" transform="translate(14,10.3389)"><path id="path36" d="m 0,0 c 0.479,-0.276 1.09,-0.112 1.367,0.366 l 4.5,7.795 C 6.143,8.639 5.979,9.25 5.5,9.526 5.022,9.803 4.411,9.639 4.135,9.161 l -4.5,-7.795 C -0.642,0.888 -0.478,0.276 0,0" style="fill:#66757f;fill-opacity:1;fill-rule:nonzero;stroke:none"/></g></g></g></g></svg>