<svg xmlns="http://www.w3.org/2000/svg" xmlns:svg="http://www.w3.org/2000/svg" style="enable-background:new 0 0 47.5 47.5" id="svg2" version="1.1" viewBox="0 0 47.5 47.5" xml:space="preserve"><defs id="defs6"><clipPath id="clipPath18"><path id="path20" d="M 0,38 38,38 38,0 0,0 0,38 z"/></clipPath></defs><g id="g12" transform="matrix(1.25,0,0,-1.25,0,47.5)"><g id="g14"><g id="g16" clip-path="url(#clipPath18)"><g id="g22" transform="translate(37,19)"><path id="path24" d="m 0,0 c 0,-9.94 -8.059,-18 -18,-18 -9.941,0 -18,8.06 -18,18 0,9.941 8.059,18 18,18 C -8.059,18 0,9.941 0,0" style="fill:#99aab5;fill-opacity:1;fill-rule:nonzero;stroke:none"/></g><g id="g26" transform="translate(33,19)"><path id="path28" d="m 0,0 c 0,-7.731 -6.268,-14 -14,-14 -7.732,0 -14,6.269 -14,14 0,7.732 6.268,14 14,14 C -6.268,14 0,7.732 0,0" style="fill:#e1e8ed;fill-opacity:1;fill-rule:nonzero;stroke:none"/></g><g id="g30" transform="translate(20,19)"><path id="path32" d="m 0,0 c 0,-0.553 -0.447,-1 -1,-1 -0.552,0 -1,0.447 -1,1 l 0,11 c 0,0.552 0.448,1 1,1 0.553,0 1,-0.448 1,-1 L 0,0 z" style="fill:#66757f;fill-opacity:1;fill-rule:nonzero;stroke:none"/></g><g id="g34" transform="translate(24.25,27.7627)"><path id="path36" d="m 0,0 c 0.479,-0.276 0.643,-0.888 0.367,-1.366 l -4.5,-7.795 c -0.276,-0.478 -0.888,-0.642 -1.367,-0.365 -0.478,0.276 -0.642,0.887 -0.365,1.365 l 4.5,7.795 C -1.089,0.112 -0.478,0.276 0,0" style="fill:#66757f;fill-opacity:1;fill-rule:nonzero;stroke:none"/></g></g></g></g></svg>