<svg xmlns="http://www.w3.org/2000/svg" xmlns:svg="http://www.w3.org/2000/svg" style="enable-background:new 0 0 47.5 47.5" id="svg2" version="1.1" viewBox="0 0 47.5 47.5" xml:space="preserve"><defs id="defs6"><clipPath id="clipPath18"><path id="path20" d="M 0,38 38,38 38,0 0,0 0,38 z"/></clipPath><clipPath id="clipPath30"><path id="path32" d="M 5,37 C 5,37 1,37 1,33 L 1,33 1,5 C 1,1 5,1 5,1 l 0,0 28,0 c 4,0 4,4 4,4 l 0,0 0,28 c 0,0 0,4 -4,4 l 0,0 -28,0 z"/></clipPath><clipPath id="clipPath42"><path id="path44" d="M 17,23 C 5,13 1,11 1,11 L 1,11 1,5 C 1,1 5,1 5,1 l 0,0 28,0 c 4,0 4,4 4,4 l 0,0 0,6 c 0,0 -5,2 -16,12 l 0,0 -4,0 z"/></clipPath></defs><g id="g12" transform="matrix(1.25,0,0,-1.25,0,47.5)"><g id="g14"><g id="g16" clip-path="url(#clipPath18)"><g id="g22" transform="translate(37,5)"><path id="path24" d="m 0,0 c 0,0 0,-4 -4,-4 l -28,0 c 0,0 -4,0 -4,4 l 0,28 c 0,4 4,4 4,4 l 28,0 c 4,0 4,-4 4,-4 L 0,0 z" style="fill:#88c9f9;fill-opacity:1;fill-rule:nonzero;stroke:none"/></g></g></g><g id="g26"><g id="g28" clip-path="url(#clipPath30)"><g id="g34" transform="translate(1,11)"><path id="path36" d="m 0,0 c 0,0 4,2 16,12 l 4,0 C 31,2 36,0 36,0 l 0,-10 -36,0 0,10 z" style="fill:#292f33;fill-opacity:1;fill-rule:nonzero;stroke:none"/></g></g></g><g id="g38"><g id="g40" clip-path="url(#clipPath42)"><g id="g46" transform="translate(16,24)"><path id="path48" d="m 0,0 -12,-10 c 0,0 2,1 4,1 2,0 2,-3 3,-3 1,0 2,2 4,2 1.383,0 1.372,-1 3,-1 1,0 2,1 3,1 1,0 2,-1 3,-1 1,0 2,2 4,2 l 5,0 c 1,0 0,1 0,1 L 5,0 0,0 z" style="fill:#fff;fill-opacity:1;fill-rule:nonzero;stroke:none"/></g></g></g></g></svg>