<svg xmlns="http://www.w3.org/2000/svg" xmlns:svg="http://www.w3.org/2000/svg" style="enable-background:new 0 0 47.5 47.5" id="svg2" version="1.1" viewBox="0 0 47.5 47.5" xml:space="preserve"><defs id="defs6"><clipPath id="clipPath18"><path id="path20" d="M 0,38 38,38 38,0 0,0 0,38 z"/></clipPath><clipPath id="clipPath42"><path id="path44" d="m 18,30 -1,-10 4,0 -1,10 -2,0 z"/></clipPath><clipPath id="clipPath52"><path id="path54" d="M 0,38 38,38 38,0 0,0 0,38 z"/></clipPath></defs><g id="g12" transform="matrix(1.25,0,0,-1.25,0,47.5)"><g id="g14"><g id="g16" clip-path="url(#clipPath18)"><g id="g22" transform="translate(37,5)"><path id="path24" d="m 0,0 c 0,0 0,-4 -4,-4 l -28,0 c 0,0 -4,0 -4,4 l 0,28 c 0,4 4,4 4,4 l 28,0 c 4,0 4,-4 4,-4 L 0,0 z" style="fill:#88c9f9;fill-opacity:1;fill-rule:nonzero;stroke:none"/></g><g id="g26" transform="translate(19,32)"><path id="path28" d="m 0,0 -1,0 0,-3 2,0 0,3 -1,0 z" style="fill:#fff;fill-opacity:1;fill-rule:nonzero;stroke:none"/></g><g id="g30" transform="translate(20,34)"><path id="path32" d="M 0,0 C 0,0 0,1 -1,1 -2,1 -2,0 -2,0 l 0,-2 2,0 0,2 z" style="fill:#dd2e44;fill-opacity:1;fill-rule:nonzero;stroke:none"/></g><g id="g34" transform="translate(18,30)"><path id="path36" d="M 0,0 -1,-10 3,-10 2,0 0,0 z" style="fill:#dd2e44;fill-opacity:1;fill-rule:nonzero;stroke:none"/></g></g></g><g id="g38"><g id="g40" clip-path="url(#clipPath42)"><path id="path46" d="m 16,24 6,0 0,3 -6,0 0,-3 z" style="fill:#fff;fill-opacity:1;fill-rule:nonzero;stroke:none"/></g></g><g id="g48"><g id="g50" clip-path="url(#clipPath52)"><path id="path56" d="m 15,17 8,0 0,4 -8,0 0,-4 z" style="fill:#fff;fill-opacity:1;fill-rule:nonzero;stroke:none"/><path id="path58" d="m 16,13 6,0 0,4 -6,0 0,-4 z" style="fill:#dd2e44;fill-opacity:1;fill-rule:nonzero;stroke:none"/><g id="g60" transform="translate(16,17)"><path id="path62" d="m 0,0 c 0,0 0,-11 -10,-16 l 3,0 c 0,0 7,3 9,16 L 0,0 z" style="fill:#dd2e44;fill-opacity:1;fill-rule:nonzero;stroke:none"/></g><g id="g64" transform="translate(22,17)"><path id="path66" d="m 0,0 c 0,0 0,-11 10,-16 l -3,0 c 0,0 -7,3 -9,16 l 2,0 z" style="fill:#dd2e44;fill-opacity:1;fill-rule:nonzero;stroke:none"/></g><path id="path68" d="m 20,1 -2,0 0,13 2,0 0,-13 z" style="fill:#dd2e44;fill-opacity:1;fill-rule:nonzero;stroke:none"/><g id="g70" transform="translate(9,1)"><path id="path72" d="M 0,0 C 0,0 5,3 10,3 15,3 20,0 20,0 l 0,1.884 C 20,1.884 15,5 10,5 5,5 0,1.884 0,1.884 L 0,0 z" style="fill:#dd2e44;fill-opacity:1;fill-rule:nonzero;stroke:none"/></g></g></g></g></svg>