<svg xmlns="http://www.w3.org/2000/svg" xmlns:svg="http://www.w3.org/2000/svg" id="svg3129" width="47.5" height="47.5" version="1.1" xml:space="preserve"><metadata id="metadata3135"/><defs id="defs3133"><linearGradient id="linearGradient5377"><stop id="stop5379" offset="0" style="stop-color:#020000;stop-opacity:1"/></linearGradient><clipPath id="clipPath3143"><path id="path3145" d="M 0,38 38,38 38,0 0,0 0,38 z"/></clipPath></defs><g id="g3137" transform="matrix(1.25,0,0,-1.25,0,47.5)" style="display:inline"><g id="g3139"><g id="g3141" clip-path="url(#clipPath3143)"><g id="g3147" transform="translate(37,19)"><path id="path3149" d="m 0,0 c 0,-9.941 -8.059,-18 -18,-18 -9.941,0 -18,8.059 -18,18 0,9.941 8.059,18 18,18 C -8.059,18 0,9.941 0,0" style="fill:#ffcc4d;fill-opacity:1;fill-rule:nonzero;stroke:none"/></g><g id="g3155" transform="translate(11,24)"><path id="path3157" d="M 0,0 C 0,0 0,2 2,2 4,2 4,0 4,0 l 0,-2 c 0,0 0,-2 -2,-2 -2,0 -2,2 -2,2 l 0,2 z" style="fill:#664500;fill-opacity:1;fill-rule:nonzero;stroke:none"/></g><g id="g3159" transform="translate(23,24)"><path id="path3161" d="M 0,0 C 0,0 0,2 2,2 4,2 4,0 4,0 l 0,-2 c 0,0 0,-2 -2,-2 -2,0 -2,2 -2,2 l 0,2 z" style="fill:#664500;fill-opacity:1;fill-rule:nonzero;stroke:none"/></g><g id="g3163" transform="translate(10,15)"><path id="path3165" d="m -1.0247056,0.56928088 c 0,0 3.3225925,-1.87814548 9.9677775,-1.87814548 6.6451851,0 9.9677771,1.87814548 9.9677771,1.87814548 0,0 -2.215061,-10.56528318 -9.9677771,-10.56528318 -7.7527158,0 -9.9677775,10.56528318 -9.9677775,10.56528318" style="fill:#fff;fill-opacity:1;fill-rule:nonzero;stroke:none"/><path id="path5383" d="m -1.0247056,0.56928088 c 0,0 3.3358667,-1.87814548 10.0076002,-1.87814548 6.6717334,0 10.0075994,1.87814548 10.0075994,1.87814548 0,0 -2.22391,-10.56528318 -10.0075994,-10.56528318 -7.783689,0 -10.0076002,10.56528318 -10.0076002,10.56528318" style="fill:#fff;fill-opacity:1;fill-rule:nonzero;stroke:none"/></g></g></g></g><g id="g5385" transform="matrix(1.25,0,0,-1.25,0,47.5)" style="display:inline"><g id="g5387"><g id="g5389" clip-path="url(#clipPath3143)"><g id="g5397" transform="translate(11,24)"><path id="path5399" d="M 0,0 C 0,0 0,2 2,2 4,2 4,0 4,0 l 0,-2 c 0,0 0,-2 -2,-2 -2,0 -2,2 -2,2 l 0,2 z" style="fill:#664500;fill-opacity:1;fill-rule:nonzero;stroke:none"/></g><g id="g5401" transform="translate(23,24)"><path id="path5403" d="M 0,0 C 0,0 0,2 2,2 4,2 4,0 4,0 l 0,-2 c 0,0 0,-2 -2,-2 -2,0 -2,2 -2,2 l 0,2 z" style="fill:#664500;fill-opacity:1;fill-rule:nonzero;stroke:none"/></g><g id="g5405" transform="translate(10,15)"><path id="path5407" d="m -1.0247056,0.56928088 c 0,0 3.3225925,-1.87814548 9.9677775,-1.87814548 6.6451851,0 9.9677771,1.87814548 9.9677771,1.87814548 0,0 -2.215061,-10.56528318 -9.9677771,-10.56528318 -7.7527158,0 -9.9677775,10.56528318 -9.9677775,10.56528318" style="fill:#fff;fill-opacity:1;fill-rule:nonzero;stroke:none"/><path id="path5409" d="m -2.956909,2.1794504 c 0,0 4.0062627,-2.16437849 12.0187882,-2.16437849 8.0125248,0 12.0187838,2.16437849 12.0187838,2.16437849 0,0 -2.67084,-12.1754527 -12.0187838,-12.1754527 -9.34794657,0 -12.0187882,12.1754527 -12.0187882,12.1754527" style="fill:#664500;fill-opacity:1;fill-rule:nonzero;stroke:none"/><path id="path5411" d="m -1.4668034,0.77055209 c 0,0 3.5165029,-1.73502897 10.5495083,-1.73502897 7.0330041,0 10.5495051,1.73502897 10.5495051,1.73502897 0,0 -2.344334,-9.76019849 -10.5495051,-9.76019849 -8.20517324,0 -10.5495083,9.76019849 -10.5495083,9.76019849" style="fill:#fff;fill-opacity:1;fill-rule:nonzero;stroke:none"/></g></g></g></g></svg>