<svg xmlns="http://www.w3.org/2000/svg" xmlns:svg="http://www.w3.org/2000/svg" style="enable-background:new 0 0 47.5 47.5" id="svg2" version="1.1" viewBox="0 0 47.5 47.5" xml:space="preserve"><defs id="defs6"><clipPath id="clipPath18"><path id="path20" d="M 0,38 38,38 38,0 0,0 0,38 z"/></clipPath></defs><g id="g12" transform="matrix(1.25,0,0,-1.25,0,47.5)"><g id="g14"><g id="g16" clip-path="url(#clipPath18)"><g id="g22" transform="translate(37,19)"><path id="path24" d="m 0,0 c 0,-9.941 -8.059,-18 -18,-18 -9.941,0 -18,8.059 -18,18 0,9.941 8.059,18 18,18 C -8.059,18 0,9.941 0,0" style="fill:#ffcc4d;fill-opacity:1;fill-rule:nonzero;stroke:none"/></g><g id="g26" transform="translate(13,19)"><path id="path28" d="m 0,0 c 0,-2.762 -2.239,-5 -5,-5 -2.761,0 -5,2.238 -5,5 0,2.761 2.239,5 5,5 2.761,0 5,-2.239 5,-5" style="fill:#ff7892;fill-opacity:1;fill-rule:nonzero;stroke:none"/></g><g id="g30" transform="translate(35,19)"><path id="path32" d="m 0,0 c 0,-2.762 -2.238,-5 -5,-5 -2.762,0 -5,2.238 -5,5 0,2.761 2.238,5 5,5 2.762,0 5,-2.239 5,-5" style="fill:#ff7892;fill-opacity:1;fill-rule:nonzero;stroke:none"/></g><g id="g34" transform="translate(28.335,15.3711)"><path id="path36" d="m 0,0 c -0.178,0.161 -0.444,0.171 -0.635,0.029 -0.039,-0.029 -3.922,-2.9 -8.7,-2.9 -4.766,0 -8.662,2.871 -8.7,2.9 -0.191,0.142 -0.457,0.13 -0.635,-0.029 -0.177,-0.16 -0.217,-0.424 -0.094,-0.628 0.129,-0.215 3.217,-5.243 9.429,-5.243 6.212,0 9.301,5.028 9.429,5.243 C 0.217,-0.423 0.178,-0.16 0,0" style="fill:#664500;fill-opacity:1;fill-rule:nonzero;stroke:none"/></g><g id="g38" transform="translate(8.999,22)"><path id="path40" d="M 0,0 C -0.15,0 -0.303,0.034 -0.446,0.105 -0.94,0.353 -1.141,0.954 -0.894,1.447 -0.841,1.552 0.425,4 4.001,4 7.578,4 8.843,1.551 8.896,1.447 9.143,0.953 8.942,0.353 8.448,0.105 7.957,-0.139 7.363,0.057 7.112,0.542 7.069,0.621 6.282,2 4.001,2 1.684,2 0.902,0.567 0.896,0.553 0.72,0.202 0.367,0 0,0" style="fill:#664500;fill-opacity:1;fill-rule:nonzero;stroke:none"/></g><g id="g42" transform="translate(29.001,22)"><path id="path44" d="M 0,0 C -0.367,0 -0.72,0.202 -0.896,0.553 -0.921,0.599 -1.702,2 -4.001,2 -6.3,2 -7.081,0.599 -7.113,0.54 -7.373,0.059 -7.973,-0.13 -8.458,0.12 -8.943,0.372 -9.14,0.958 -8.896,1.447 -8.844,1.551 -7.578,4 -4.001,4 -0.424,4 0.842,1.551 0.894,1.447 1.141,0.953 0.94,0.353 0.446,0.105 0.303,0.034 0.15,0 0,0" style="fill:#664500;fill-opacity:1;fill-rule:nonzero;stroke:none"/></g></g></g></g></svg>