<svg xmlns="http://www.w3.org/2000/svg" xmlns:svg="http://www.w3.org/2000/svg" id="svg7392" width="47.5" height="47.5" version="1.1" xml:space="preserve"><metadata id="metadata7398"/><defs id="defs7396"><clipPath id="clipPath7406"><path id="path7408" d="M 0,38 38,38 38,0 0,0 0,38 z"/></clipPath></defs><g id="layer1"><path id="path3149" d="m 46.25,23.75 c 0,12.42625 -10.07375,22.5 -22.5,22.5 -12.42625,0 -22.5,-10.07375 -22.5,-22.5 0,-12.42625 10.07375,-22.5 22.5,-22.5 12.42625,0 22.5,10.07375 22.5,22.5" style="fill:#ffcc4d;fill-opacity:1;fill-rule:nonzero;stroke:none;display:inline"/></g><g id="g7400" transform="matrix(1.25,0,0,-1.25,0,47.5)" style="display:inline"><g id="g7402" transform="matrix(1.3309711,0,0,1,-6.0467761,0)"><g id="g7404" clip-path="url(#clipPath7406)"><g id="g7428" transform="translate(17,18)"><path id="path7430" d="M 0,0 C -0.419,0 -0.809,0.265 -0.949,0.684 -1.152,1.283 -1.966,3 -3,3 -4.062,3 -4.888,1.173 -5.051,0.684 -5.226,0.16 -5.79,-0.124 -6.316,0.052 -6.84,0.226 -7.124,0.792 -6.949,1.316 -6.823,1.693 -5.645,5 -3,5 -0.355,5 0.823,1.693 0.949,1.316 1.124,0.792 0.84,0.226 0.316,0.052 0.211,0.017 0.104,0 0,0" style="fill:#664500;fill-opacity:1;fill-rule:nonzero;stroke:none"/></g><g id="g7432" transform="translate(27,18)"><path id="path7434" d="M 0,0 C -0.419,0 -0.809,0.265 -0.948,0.684 -1.151,1.283 -1.967,3 -3,3 -4.062,3 -4.889,1.173 -5.052,0.684 -5.227,0.16 -5.788,-0.124 -6.316,0.052 -6.84,0.226 -7.123,0.792 -6.948,1.316 -6.823,1.693 -5.645,5 -3,5 -0.355,5 0.823,1.693 0.948,1.316 1.123,0.792 0.84,0.226 0.316,0.052 0.211,0.017 0.104,0 0,0" style="fill:#664500;fill-opacity:1;fill-rule:nonzero;stroke:none"/></g></g></g><path id="path5409" d="m 6.9812139,15.920253 c 0,0 4.0062631,-2.164378 12.0187881,-2.164378 8.012525,0 12.018784,2.164378 12.018784,2.164378 0,0 -2.67084,-12.175453 -12.018784,-12.175453 -9.3479461,0 -12.0187881,12.175453 -12.0187881,12.175453" style="fill:#664500;fill-opacity:1;fill-rule:nonzero;stroke:none;display:inline"/><path id="path5411" d="m 8.4713199,14.511355 c 0,0 3.5165031,-1.735029 10.5495081,-1.735029 7.033004,0 10.549505,1.735029 10.549505,1.735029 0,0 -2.344334,-9.760199 -10.549505,-9.760199 -8.205173,0 -10.5495081,9.760199 -10.5495081,9.760199" style="fill:#fff;fill-opacity:1;fill-rule:nonzero;stroke:none;display:inline"/></g></svg>