<svg xmlns="http://www.w3.org/2000/svg" xmlns:svg="http://www.w3.org/2000/svg" style="enable-background:new 0 0 47.5 47.5" id="svg2" version="1.1" viewBox="0 0 47.5 47.5" xml:space="preserve"><defs id="defs6"><clipPath id="clipPath18"><path id="path20" d="M 0,38 38,38 38,0 0,0 0,38 z"/></clipPath></defs><g id="g12" transform="matrix(1.25,0,0,-1.25,0,47.5)"><g id="g14"><g id="g16" clip-path="url(#clipPath18)"><g id="g22" transform="translate(37,19)"><path id="path24" d="m 0,0 c 0,-9.941 -8.059,-18 -18,-18 -9.94,0 -18,8.059 -18,18 0,9.94 8.06,18 18,18 C -8.059,18 0,9.94 0,0" style="fill:#ffcc4d;fill-opacity:1;fill-rule:nonzero;stroke:none"/></g><g id="g26" transform="translate(19,26)"><path id="path28" d="M 0,0 C 8.749,0 16.033,-4.509 17.656,-10.484 17.878,-9.356 18,-8.192 18,-7 18,2.94 9.941,11 0,11 -9.94,11 -18,2.94 -18,-7 c 0,-1.192 0.123,-2.356 0.344,-3.484 C -16.033,-4.509 -8.748,0 0,0" style="fill:#bdddf4;fill-opacity:1;fill-rule:nonzero;stroke:none"/></g><g id="g30" transform="translate(15,20.5)"><path id="path32" d="M 0,0 C 0,-1.934 -1.119,-3.5 -2.5,-3.5 -3.881,-3.5 -5,-1.934 -5,0 -5,1.933 -3.881,3.5 -2.5,3.5 -1.119,3.5 0,1.933 0,0" style="fill:#664500;fill-opacity:1;fill-rule:nonzero;stroke:none"/></g><g id="g34" transform="translate(28,20.5)"><path id="path36" d="M 0,0 C 0,-1.934 -1.119,-3.5 -2.5,-3.5 -3.881,-3.5 -5,-1.934 -5,0 -5,1.933 -3.881,3.5 -2.5,3.5 -1.119,3.5 0,1.933 0,0" style="fill:#664500;fill-opacity:1;fill-rule:nonzero;stroke:none"/></g><g id="g38" transform="translate(24.4854,9.1211)"><path id="path40" d="m 0,0 c -0.012,0.044 -1.146,4.379 -5.485,4.379 -4.34,0 -5.474,-4.335 -5.485,-4.379 -0.053,-0.213 0.044,-0.431 0.232,-0.544 0.187,-0.112 0.433,-0.086 0.596,0.06 0.01,0.007 1.014,0.863 4.657,0.863 3.589,0 4.617,-0.83 4.656,-0.863 0.095,-0.09 0.219,-0.137 0.344,-0.137 0.084,0 0.169,0.021 0.246,0.064 C -0.043,-0.445 0.055,-0.218 0,0" style="fill:#664500;fill-opacity:1;fill-rule:nonzero;stroke:none"/></g><g id="g42" transform="translate(15,6)"><path id="path44" d="m 0,0 c 0,-2.762 -2.238,-5 -5,-5 -2.762,0 -5,2.238 -5,5 0,2.762 4,10 5,10 1,0 5,-7.238 5,-10" style="fill:#5dadec;fill-opacity:1;fill-rule:nonzero;stroke:none"/></g><g id="g46" transform="translate(31,25)"><path id="path48" d="m 0,0 c -5.554,0 -7.802,4.367 -7.895,4.553 -0.247,0.494 -0.046,1.094 0.448,1.342 0.492,0.246 1.092,0.047 1.34,-0.444 C -6.033,5.306 -4.287,2 0,2 0.553,2 1,1.552 1,1 1,0.448 0.553,0 0,0" style="fill:#664500;fill-opacity:1;fill-rule:nonzero;stroke:none"/></g><g id="g50" transform="translate(7,25)"><path id="path52" d="m 0,0 c -0.552,0 -1,0.448 -1,1 0,0.552 0.448,1 1,1 5.083,0 5.996,3.12 6.033,3.253 0.145,0.528 0.69,0.848 1.219,0.709 C 7.782,5.823 8.103,5.289 7.97,4.757 7.921,4.563 6.704,0 0,0" style="fill:#664500;fill-opacity:1;fill-rule:nonzero;stroke:none"/></g></g></g></g></svg>