<svg xmlns="http://www.w3.org/2000/svg" xmlns:svg="http://www.w3.org/2000/svg" style="enable-background:new 0 0 47.5 47.5" id="svg2" version="1.1" viewBox="0 0 47.5 47.5" xml:space="preserve"><defs id="defs6"><clipPath id="clipPath18"><path id="path20" d="M 0,38 38,38 38,0 0,0 0,38 z"/></clipPath></defs><g id="g12" transform="matrix(1.25,0,0,-1.25,0,47.5)"><g id="g14"><g id="g16" clip-path="url(#clipPath18)"><g id="g22" transform="translate(31,15)"><path id="path24" d="m 0,0 c -3,0 -7,-8 -7,-10 0,-3 2,-4 2,-4 l 11,0 0,10 C 6,-4 2,0 0,0" style="fill:#2a6797;fill-opacity:1;fill-rule:nonzero;stroke:none"/></g><g id="g26" transform="translate(7,15)"><path id="path28" d="m 0,0 c 3,0 7,-8 7,-10 0,-3 -2,-4 -2,-4 l -11,0 0,10 c 0,0 4,4 6,4" style="fill:#2a6797;fill-opacity:1;fill-rule:nonzero;stroke:none"/></g><g id="g30" transform="translate(26,26)"><path id="path32" d="M 0,0 C 0,1.104 -0.896,2 -2,2 -3.104,2 -4,1.104 -4,0 l 0,7.277 c 0.596,0.347 1,0.985 1,1.723 0,1.104 -0.896,2 -2,2 -1.104,0 -2,-0.896 -2,-2 0,1.104 -0.896,2 -2,2 -1.104,0 -2,-0.896 -2,-2 0,-0.738 0.405,-1.376 1,-1.723 L -10,0 c 0,1.104 -0.896,2 -2,2 -1.104,0 -2,-0.896 -2,-2 l -1,-11.526 0,-4.474 5,0 0,-1 6,0 0,1 5,0 0,4.474 L 0,0 z" style="fill:#c1694f;fill-opacity:1;fill-rule:nonzero;stroke:none"/></g><g id="g34" transform="translate(25,21)"><path id="path36" d="m 0,0 -1,12 c 0,1.104 -0.896,2 -2,2 -1.104,0 -2,-0.896 -2,-2 l 0,-20 c 0,-6 6,-9 6,-9 0,0 6,4 6,9 L 0,0 z" style="fill:#d79e84;fill-opacity:1;fill-rule:nonzero;stroke:none"/></g><g id="g38" transform="translate(16,35)"><path id="path40" d="m 0,0 c -1.104,0 -2,-0.896 -2,-2 l -1,-12 -7,-8 c 0,-5 6,-9 6,-9 0,0 6,3 6,9 L 2,-2 C 2,-0.896 1.104,0 0,0" style="fill:#d79e84;fill-opacity:1;fill-rule:nonzero;stroke:none"/></g><g id="g42" transform="translate(12,30)"><path id="path44" d="M 0,0 -6,3 -7,1 -1,-1 0,0 z" style="fill:#fdcb58;fill-opacity:1;fill-rule:nonzero;stroke:none"/></g><g id="g46" transform="translate(26,30)"><path id="path48" d="M 0,0 6,3 7,1 1,-1 0,0 z" style="fill:#fdcb58;fill-opacity:1;fill-rule:nonzero;stroke:none"/></g><g id="g50" transform="translate(10,26)"><path id="path52" d="m 0,0 -6,1 -1,-2 7,0 0,1 z" style="fill:#fdcb58;fill-opacity:1;fill-rule:nonzero;stroke:none"/></g><g id="g54" transform="translate(28,26)"><path id="path56" d="M 0,0 6,1 7,-1 0,-1 0,0 z" style="fill:#fdcb58;fill-opacity:1;fill-rule:nonzero;stroke:none"/></g></g></g></g></svg>