<svg xmlns="http://www.w3.org/2000/svg" xmlns:svg="http://www.w3.org/2000/svg" style="enable-background:new 0 0 47.5 47.5" id="svg2" version="1.1" viewBox="0 0 47.5 47.5" xml:space="preserve"><defs id="defs6"><clipPath id="clipPath22"><path id="path24" d="M 0,38 38,38 38,0 0,0 0,38 z"/></clipPath></defs><g id="g12" transform="matrix(1.25,0,0,-1.25,0,47.5)"><path id="path14" d="M 37,3 1,3 1,1 37,1 37,3 z" style="fill:#939598;fill-opacity:1;fill-rule:nonzero;stroke:none"/><path id="path16" d="M 36,5 7,5 7,10 36,10 36,5 z" style="fill:#231f20;fill-opacity:1;fill-rule:nonzero;stroke:none"/><g id="g18"><g id="g20" clip-path="url(#clipPath22)"><g id="g26" transform="translate(4.999,5)"><path id="path28" d="M 0,0 C 0,1.656 1.343,3 3,3 4.657,3 6,1.656 6,0 6,-1.656 4.657,-3 3,-3 1.343,-3 0,-1.656 0,0" style="fill:#58595b;fill-opacity:1;fill-rule:nonzero;stroke:none"/></g><g id="g30" transform="translate(10.999,5)"><path id="path32" d="M 0,0 C 0,1.657 1.343,3 3,3 4.657,3 6,1.657 6,0 6,-1.657 4.657,-3 3,-3 1.343,-3 0,-1.657 0,0" style="fill:#58595b;fill-opacity:1;fill-rule:nonzero;stroke:none"/></g><g id="g34" transform="translate(6.499,5)"><path id="path36" d="M 0,0 C 0,0.829 0.672,1.5 1.5,1.5 2.328,1.5 3,0.829 3,0 3,-0.829 2.328,-1.5 1.5,-1.5 0.672,-1.5 0,-0.829 0,0" style="fill:#a0041e;fill-opacity:1;fill-rule:nonzero;stroke:none"/></g><g id="g38" transform="translate(12.499,5)"><path id="path40" d="M 0,0 C 0,0.83 0.671,1.5 1.5,1.5 2.329,1.5 3,0.83 3,0 3,-0.83 2.329,-1.5 1.5,-1.5 0.671,-1.5 0,-0.83 0,0" style="fill:#a0041e;fill-opacity:1;fill-rule:nonzero;stroke:none"/></g><g id="g42" transform="translate(6,4)"><path id="path44" d="m 0,0 -4,0 c -1,0 -1.5,0.5 0,2 L 0,6 C 1,7 2,8.001 2,6 L 2,2 C 2,0 1.999,0 0,0" style="fill:#dd2e44;fill-opacity:1;fill-rule:nonzero;stroke:none"/></g><g id="g46" transform="translate(8.9995,17)"><path id="path48" d="m 0,0 c 0,-3.313 -1.343,-6 -3,-6 -1.657,0 -3,2.687 -3,6 0,3.314 1.343,6 3,6 1.657,0 3,-2.686 3,-6" style="fill:#231f20;fill-opacity:1;fill-rule:nonzero;stroke:none"/></g><g id="g50" transform="translate(12,22)"><path id="path52" d="M 0,0 -4,0 -6,8 2,8 0,0 z" style="fill:#6d6e71;fill-opacity:1;fill-rule:nonzero;stroke:none"/></g><g id="g54" transform="translate(27,12)"><path id="path56" d="m 0,0 c 0,-1.104 -0.896,-2 -2,-2 l -18,0 c -1.104,0 -2,0.896 -2,2 l 0,10 c 0,1.104 0.896,2 2,2 l 18,0 c 1.104,0 2,-0.896 2,-2 L 0,0 z" style="fill:#414042;fill-opacity:1;fill-rule:nonzero;stroke:none"/></g><g id="g58" transform="translate(14,11)"><path id="path60" d="m 0,0 c 0,-0.553 -0.448,-1 -1,-1 -0.552,0 -1,0.447 -1,1 l 0,13 c 0,0.552 0.448,1 1,1 0.552,0 1,-0.448 1,-1 L 0,0 z" style="fill:#c1694f;fill-opacity:1;fill-rule:nonzero;stroke:none"/></g><g id="g62" transform="translate(20,11)"><path id="path64" d="m 0,0 c 0,-0.553 -0.447,-1 -1,-1 -0.553,0 -1,0.447 -1,1 l 0,13 c 0,0.552 0.447,1 1,1 0.553,0 1,-0.448 1,-1 L 0,0 z" style="fill:#c1694f;fill-opacity:1;fill-rule:nonzero;stroke:none"/></g><g id="g66" transform="translate(37,11)"><path id="path68" d="m 0,0 c 0,-0.553 -0.447,-1 -1,-1 l -28,0 c -0.552,0 -1,0.447 -1,1 0,0.553 0.448,1 1,1 L -1,1 C -0.447,1 0,0.553 0,0" style="fill:#808285;fill-opacity:1;fill-rule:nonzero;stroke:none"/></g><g id="g70" transform="translate(26.999,6)"><path id="path72" d="M 0,0 C 0,2.209 1.791,4 4,4 6.209,4 8,2.209 8,0 8,-2.209 6.209,-4 4,-4 1.791,-4 0,-2.209 0,0" style="fill:#58595b;fill-opacity:1;fill-rule:nonzero;stroke:none"/></g><g id="g74" transform="translate(18.999,6)"><path id="path76" d="M 0,0 C 0,2.209 1.791,4 4,4 6.209,4 8,2.209 8,0 8,-2.209 6.209,-4 4,-4 1.791,-4 0,-2.209 0,0" style="fill:#58595b;fill-opacity:1;fill-rule:nonzero;stroke:none"/></g><g id="g78" transform="translate(28.999,6)"><path id="path80" d="M 0,0 C 0,1.104 0.896,2 2,2 3.104,2 4,1.104 4,0 4,-1.104 3.104,-2 2,-2 0.896,-2 0,-1.104 0,0" style="fill:#a0041e;fill-opacity:1;fill-rule:nonzero;stroke:none"/></g><g id="g82" transform="translate(20.999,6)"><path id="path84" d="M 0,0 C 0,1.104 0.896,2 2,2 3.104,2 4,1.104 4,0 4,-1.104 3.104,-2 2,-2 0.896,-2 0,-1.104 0,0" style="fill:#a0041e;fill-opacity:1;fill-rule:nonzero;stroke:none"/></g><g id="g86" transform="translate(13,34)"><path id="path88" d="m 0,0 -6,0 c -0.552,0 -1,-0.448 -1,-1 l 0,-3 8,0 0,3 C 1,-0.448 0.552,0 0,0" style="fill:#414042;fill-opacity:1;fill-rule:nonzero;stroke:none"/></g><path id="path90" d="m 36,30 -12,0 0,-18 12,0 0,18 z" style="fill:#be1931;fill-opacity:1;fill-rule:nonzero;stroke:none"/><g id="g92" transform="translate(37,31)"><path id="path94" d="m 0,0 c 0,-0.552 -0.447,-1 -1,-1 l -12,0 c -0.553,0 -1,0.448 -1,1 0,0.552 0.447,1 1,1 L -1,1 C -0.447,1 0,0.552 0,0" style="fill:#a0041e;fill-opacity:1;fill-rule:nonzero;stroke:none"/></g><path id="path96" d="m 34,14 -8,0 0,5 8,0 0,-5 z" style="fill:#ea596e;fill-opacity:1;fill-rule:nonzero;stroke:none"/><g id="g98" transform="translate(31,5)"><path id="path100" d="M 0,0 -8,0 C -8.127,0 -8.253,0.024 -8.371,0.071 L -13.193,2 -20,2 c -0.552,0 -1,0.447 -1,1 0,0.553 0.448,1 1,1 l 7,0 c 0.127,0 0.253,-0.024 0.371,-0.071 L -7.808,2 0,2 C 0.553,2 1,1.553 1,1 1,0.447 0.553,0 0,0" style="fill:#f4900c;fill-opacity:1;fill-rule:nonzero;stroke:none"/></g><g id="g102" transform="translate(34,27)"><path id="path104" d="M 0,0 C 0,0.552 -0.447,1 -1,1 L -7,1 C -7.553,1 -8,0.552 -8,0 l 0,-5 c 0,-0.552 0.447,-1 1,-1 l 6,0 c 0.553,0 1,0.448 1,1 l 0,5 z" style="fill:#55acee;fill-opacity:1;fill-rule:nonzero;stroke:none"/></g></g></g></g></svg>