<svg xmlns="http://www.w3.org/2000/svg" xmlns:svg="http://www.w3.org/2000/svg" style="enable-background:new 0 0 47.5 47.5" id="svg2" version="1.1" viewBox="0 0 47.5 47.5" xml:space="preserve"><defs id="defs6"><clipPath id="clipPath30"><path id="path32" d="M 0,38 38,38 38,0 0,0 0,38 z"/></clipPath></defs><g id="g12" transform="matrix(1.25,0,0,-1.25,0,47.5)"><g id="g14" transform="translate(3,1)"><path id="path16" d="M 0,0 32,0 21,17 11,17 0,0 z" style="fill:#a7a9ac;fill-opacity:1;fill-rule:nonzero;stroke:none"/></g><g id="g18" transform="translate(6,1)"><path id="path20" d="M 0,0 26,0 16,17 10,17 0,0 z" style="fill:#58595b;fill-opacity:1;fill-rule:nonzero;stroke:none"/></g><g id="g22" transform="translate(9,1)"><path id="path24" d="M 0,0 20,0 11,17 9,17 0,0 z" style="fill:#808285;fill-opacity:1;fill-rule:nonzero;stroke:none"/></g><g id="g26"><g id="g28" clip-path="url(#clipPath30)"><g id="g34" transform="translate(29,2)"><path id="path36" d="m 0,0 c 0,-0.553 -0.447,-1 -1,-1 l -18,0 c -0.552,0 -1,0.447 -1,1 0,0.553 0.448,1 1,1 L -1,1 C -0.447,1 0,0.553 0,0" style="fill:#a7a9ac;fill-opacity:1;fill-rule:nonzero;stroke:none"/></g><g id="g38" transform="translate(27,6)"><path id="path40" d="m 0,0 c 0,-0.553 -0.447,-1 -1,-1 l -14,0 c -0.552,0 -1,0.447 -1,1 0,0.553 0.448,1 1,1 L -1,1 C -0.447,1 0,0.553 0,0" style="fill:#a7a9ac;fill-opacity:1;fill-rule:nonzero;stroke:none"/></g><g id="g42" transform="translate(25,10)"><path id="path44" d="m 0,0 c 0,-0.553 -0.447,-1 -1,-1 l -10,0 c -0.552,0 -1,0.447 -1,1 0,0.553 0.448,1 1,1 L -1,1 C -0.447,1 0,0.553 0,0" style="fill:#a7a9ac;fill-opacity:1;fill-rule:nonzero;stroke:none"/></g><g id="g46" transform="translate(10.8813,13.1797)"><path id="path48" d="m 0,0 c 1.125,-1.226 2.617,-2.18 4.119,-2.18 l 8,0 c 1.501,0 2.994,0.955 4.119,2.18 L 13.689,3.938 C 12.33,3.841 10.541,3.82 8.119,3.82 5.653,3.82 3.845,3.797 2.477,3.828 L 0,0 z" style="fill:#58595b;fill-opacity:1;fill-rule:nonzero;stroke:none"/></g><g id="g50" transform="translate(20,35)"><path id="path52" d="m 0,0 c 0,-0.552 -0.448,-1 -1,-1 -0.552,0 -1,0.448 -1,1 l 0,1 c 0,0.552 0.448,1 1,1 0.552,0 1,-0.448 1,-1 L 0,0 z" style="fill:#414042;fill-opacity:1;fill-rule:nonzero;stroke:none"/></g><g id="g54" transform="translate(23,33)"><path id="path56" d="m 0,0 c 0,-1.104 -0.896,-2 -2,-2 l -4,0 c -1.104,0 -2,0.896 -2,2 0,1.104 0.896,2 2,2 l 4,0 C -0.896,2 0,1.104 0,0" style="fill:#6d6e71;fill-opacity:1;fill-rule:nonzero;stroke:none"/></g><g id="g58" transform="translate(29,19)"><path id="path60" d="m 0,0 c 0,-2.209 -3.791,-5 -6,-5 l -8,0 c -2.209,0 -6,2.791 -6,5 l 0,11 c 0,2.209 1.791,4 4,4 l 12,0 c 2.209,0 4,-1.791 4,-4 L 0,0 z" style="fill:#d1d3d4;fill-opacity:1;fill-rule:nonzero;stroke:none"/></g><g id="g62" transform="translate(26,21)"><path id="path64" d="m 0,0 c 0,-2.209 -1.791,-4 -4,-4 l -6,0 c -2.209,0 -4,1.791 -4,4 l 0,5 c 0,2.209 1.791,4 4,4 l 6,0 C -1.791,9 0,7.209 0,5 L 0,0 z" style="fill:#808285;fill-opacity:1;fill-rule:nonzero;stroke:none"/></g><g id="g66" transform="translate(16,22)"><path id="path68" d="m 0,0 6,0 c 2.209,0 4,1.791 4,4 L 10,6 -4,6 -4,4 C -4,1.791 -2.209,0 0,0" style="fill:#55acee;fill-opacity:1;fill-rule:nonzero;stroke:none"/></g><g id="g70" transform="translate(19,17)"><path id="path72" d="M 0,0 C -7,0 -8.754,1.801 -10,3.242 L -10,2 c 0,-2.209 3,-6 6,-6 l 8,0 c 3,0 6,3.791 6,6 l 0,1.891 C 8.754,2.161 7,0 0,0" style="fill:#5c913b;fill-opacity:1;fill-rule:nonzero;stroke:none"/></g><g id="g74" transform="translate(16,19.5)"><path id="path76" d="M 0,0 C 0,-0.828 -0.672,-1.5 -1.5,-1.5 -2.329,-1.5 -3,-0.828 -3,0 -3,0.829 -2.329,1.5 -1.5,1.5 -0.672,1.5 0,0.829 0,0" style="fill:#ffd983;fill-opacity:1;fill-rule:nonzero;stroke:none"/></g><g id="g78" transform="translate(25,19.5)"><path id="path80" d="M 0,0 C 0,-0.828 -0.672,-1.5 -1.5,-1.5 -2.328,-1.5 -3,-0.828 -3,0 -3,0.829 -2.328,1.5 -1.5,1.5 -0.672,1.5 0,0.829 0,0" style="fill:#ffd983;fill-opacity:1;fill-rule:nonzero;stroke:none"/></g><g id="g82" transform="translate(26,28)"><path id="path84" d="m 0,0 0,2 c 0,1.104 -0.896,2 -2,2 l -10,0 c -1.104,0 -2,-0.896 -2,-2 l 0,-2 14,0 z" style="fill:#292f33;fill-opacity:1;fill-rule:nonzero;stroke:none"/></g><g id="g86" transform="translate(22,30)"><path id="path88" d="m 0,0 c 0,-0.552 -0.447,-1 -1,-1 l -4,0 c -0.552,0 -1,0.448 -1,1 0,0.552 0.448,1 1,1 l 4,0 C -0.447,1 0,0.552 0,0" style="fill:#6d6e71;fill-opacity:1;fill-rule:nonzero;stroke:none"/></g></g></g></g></svg>