<svg xmlns="http://www.w3.org/2000/svg" xmlns:svg="http://www.w3.org/2000/svg" style="enable-background:new 0 0 47.5 47.5" id="svg2" version="1.1" viewBox="0 0 47.5 47.5" xml:space="preserve"><defs id="defs6"><clipPath id="clipPath30"><path id="path32" d="M 0,38 38,38 38,0 0,0 0,38 z"/></clipPath></defs><g id="g12" transform="matrix(1.25,0,0,-1.25,0,47.5)"><g id="g14" transform="translate(3,1)"><path id="path16" d="M 0,0 32,0 21,17 11,17 0,0 z" style="fill:#a7a9ac;fill-opacity:1;fill-rule:nonzero;stroke:none"/></g><g id="g18" transform="translate(6,1)"><path id="path20" d="M 0,0 26,0 16,17 10,17 0,0 z" style="fill:#58595b;fill-opacity:1;fill-rule:nonzero;stroke:none"/></g><g id="g22" transform="translate(9,1)"><path id="path24" d="M 0,0 20,0 11,17 9,17 0,0 z" style="fill:#808285;fill-opacity:1;fill-rule:nonzero;stroke:none"/></g><g id="g26"><g id="g28" clip-path="url(#clipPath30)"><g id="g34" transform="translate(29,2)"><path id="path36" d="m 0,0 c 0,-0.553 -0.447,-1 -1,-1 l -18,0 c -0.552,0 -1,0.447 -1,1 0,0.553 0.448,1 1,1 L -1,1 C -0.447,1 0,0.553 0,0" style="fill:#a7a9ac;fill-opacity:1;fill-rule:nonzero;stroke:none"/></g><g id="g38" transform="translate(27,6)"><path id="path40" d="m 0,0 c 0,-0.553 -0.447,-1 -1,-1 l -14,0 c -0.552,0 -1,0.447 -1,1 0,0.553 0.448,1 1,1 L -1,1 C -0.447,1 0,0.553 0,0" style="fill:#a7a9ac;fill-opacity:1;fill-rule:nonzero;stroke:none"/></g><g id="g42" transform="translate(28.0762,11.7002)"><path id="path44" d="m 0,0 -4.076,6.3 -10,0 -4.076,-6.3 c 1.888,-2.517 4.798,-4.699 9.076,-4.699 4.277,0 7.187,2.182 9.076,4.699" style="fill:#58595b;fill-opacity:1;fill-rule:nonzero;stroke:none"/></g><g id="g46" transform="translate(19,37)"><path id="path48" d="m 0,0 c -9,0 -12,-3 -12,-9 l 0,-8 c 0,-1.999 3,-11 12,-11 9,0 12,9.001 12,11 l 0,8 C 12,-3 9,0 0,0" style="fill:#a7a9ac;fill-opacity:1;fill-rule:nonzero;stroke:none"/></g><g id="g50" transform="translate(9,26.0005)"><path id="path52" d="M 0,0 C 0,9 4.477,10 10,10 15.523,10 20,9 20,0 20,-6 15.523,-11 10,-11 4.477,-11 0,-6 0,0" style="fill:#e6e7e8;fill-opacity:1;fill-rule:nonzero;stroke:none"/></g><g id="g54" transform="translate(19,15.001)"><path id="path56" d="M 0,0 C 1.642,0 3.186,0.45 4.553,1.228 3.77,2.271 2.03,3 0,3 -2.03,3 -3.769,2.271 -4.552,1.228 -3.186,0.45 -1.641,0 0,0" style="fill:#ffac33;fill-opacity:1;fill-rule:nonzero;stroke:none"/></g><g id="g58" transform="translate(20,32.0029)"><path id="path60" d="m 0,0 0,-4.965 c 3.488,0.232 6,1.62 6,2.463 l 0,1.666 C 6,-0.044 2.308,0.002 0,0" style="fill:#55acee;fill-opacity:1;fill-rule:nonzero;stroke:none"/></g><g id="g62" transform="translate(18,32.0029)"><path id="path64" d="m 0,0 c -2.308,0.002 -6,-0.044 -6,-0.836 l 0,-1.666 c 0,-0.843 2.512,-2.231 6,-2.463 L 0,0 z" style="fill:#55acee;fill-opacity:1;fill-rule:nonzero;stroke:none"/></g><g id="g66" transform="translate(7,27.0005)"><path id="path68" d="m 0,0 c 0,0 0,-3 4,-9 0,0 -4,2 -4,6 l 0,3 z" style="fill:#269;fill-opacity:1;fill-rule:nonzero;stroke:none"/></g><g id="g70" transform="translate(31,27.0005)"><path id="path72" d="m 0,0 c 0,0 0,-3 -4,-9 0,0 4,2 4,6 l 0,3 z" style="fill:#269;fill-opacity:1;fill-rule:nonzero;stroke:none"/></g></g></g></g></svg>