<svg xmlns="http://www.w3.org/2000/svg" xmlns:svg="http://www.w3.org/2000/svg" style="enable-background:new 0 0 47.5 47.5" id="svg2" version="1.1" viewBox="0 0 47.5 47.5" xml:space="preserve"><defs id="defs6"><clipPath id="clipPath18"><path id="path20" d="M 0,38 38,38 38,0 0,0 0,38 z"/></clipPath></defs><g id="g12" transform="matrix(1.25,0,0,-1.25,0,47.5)"><g id="g14"><g id="g16" clip-path="url(#clipPath18)"><g id="g22" transform="translate(12,3)"><path id="path24" d="m 0,0 c 0,-1.104 -0.896,-2 -2,-2 l -2,0 c -1.104,0 -2,0.896 -2,2 l 0,7 c 0,1.104 0.896,2 2,2 l 2,0 C -0.896,9 0,8.104 0,7 L 0,0 z" style="fill:#292f33;fill-opacity:1;fill-rule:nonzero;stroke:none"/></g><g id="g26" transform="translate(32,3)"><path id="path28" d="m 0,0 c 0,-1.104 -0.896,-2 -2,-2 l -2,0 c -1.104,0 -2,0.896 -2,2 l 0,7 c 0,1.104 0.896,2 2,2 l 2,0 C -0.896,9 0,8.104 0,7 L 0,0 z" style="fill:#292f33;fill-opacity:1;fill-rule:nonzero;stroke:none"/></g><g id="g30" transform="translate(4,20)"><path id="path32" d="m 0,0 c 0,-0.553 -0.448,-1 -1,-1 l -1,0 c -0.552,0 -1,0.447 -1,1 l 0,7 c 0,0.552 0.448,1 1,1 l 1,0 C -0.448,8 0,7.552 0,7 L 0,0 z" style="fill:#99aab5;fill-opacity:1;fill-rule:nonzero;stroke:none"/></g><g id="g34" transform="translate(37,20)"><path id="path36" d="m 0,0 c 0,-0.553 -0.447,-1 -1,-1 l -1,0 c -0.553,0 -1,0.447 -1,1 l 0,7 c 0,0.552 0.447,1 1,1 l 1,0 C -0.447,8 0,7.552 0,7 L 0,0 z" style="fill:#99aab5;fill-opacity:1;fill-rule:nonzero;stroke:none"/></g><g id="g38" transform="translate(36,26)"><path id="path40" d="m 0,0 c 0,-0.552 -0.447,-1 -1,-1 l -32,0 c -0.552,0 -1,0.448 -1,1 0,0.552 0.448,1 1,1 L -1,1 C -0.447,1 0,0.552 0,0" style="fill:#99aab5;fill-opacity:1;fill-rule:nonzero;stroke:none"/></g><g id="g42" transform="translate(36,22)"><path id="path44" d="m 0,0 c 0,-0.553 -0.447,-1 -1,-1 l -32,0 c -0.552,0 -1,0.447 -1,1 0,0.553 0.448,1 1,1 L -1,1 C -0.447,1 0,0.553 0,0" style="fill:#99aab5;fill-opacity:1;fill-rule:nonzero;stroke:none"/></g><g id="g46" transform="translate(25,35)"><path id="path48" d="m 0,0 c 0,-1.104 -0.896,-2 -2,-2 l -8,0 c -1.104,0 -2,0.896 -2,2 0,1.104 0.896,2 2,2 l 8,0 C -0.896,2 0,1.104 0,0" style="fill:#ccd6dd;fill-opacity:1;fill-rule:nonzero;stroke:none"/></g><g id="g50" transform="translate(29,35)"><path id="path52" d="m 0,0 -20,0 c -2.209,0 -4,-1.791 -4,-4 l 0,-20 0,-2 0,-4 4,0 20,0 4,0 0,4 0,2 0,20 C 4,-1.791 2.209,0 0,0" style="fill:#ccd6dd;fill-opacity:1;fill-rule:nonzero;stroke:none"/></g><path id="path54" d="M 33,5 5,5 5,21 33,21 33,5 z" style="fill:#ffcc4d;fill-opacity:1;fill-rule:nonzero;stroke:none"/><g id="g56" transform="translate(34,5)"><path id="path58" d="m 0,0 c 0,-0.553 -0.447,-1 -1,-1 l -28,0 c -0.552,0 -1,0.447 -1,1 l 0,1 c 0,0.553 0.448,1 1,1 L -1,2 C -0.447,2 0,1.553 0,1 L 0,0 z" style="fill:#66757f;fill-opacity:1;fill-rule:nonzero;stroke:none"/></g><g id="g60" transform="translate(33,20)"><path id="path62" d="m 0,0 c 0,-1.657 -1.343,-3 -3,-3 l -22,0 c -1.657,0 -3,1.343 -3,3 l 0,7 c 0,1.657 1.343,3 3,3 l 22,0 C -1.343,10 0,8.657 0,7 L 0,0 z" style="fill:#66757f;fill-opacity:1;fill-rule:nonzero;stroke:none"/></g><g id="g64" transform="translate(31,20.9995)"><path id="path66" d="m 0,0 c 0,-1.104 -0.896,-2 -2,-2 l -20,0 c -1.104,0 -2,0.896 -2,2 l 0,5.001 C -24,6.105 -23.104,7 -22,7 L -2,7 C -0.896,7 0,6.105 0,5.001 L 0,0 z" style="fill:#88c9f9;fill-opacity:1;fill-rule:nonzero;stroke:none"/></g><path id="path68" d="M 33,7 5,7 5,12 33,12 33,7 z" style="fill:#ffac33;fill-opacity:1;fill-rule:nonzero;stroke:none"/><path id="path70" d="m 13,9 -6,0 0,3 6,0 0,-3 z" style="fill:#fff;fill-opacity:1;fill-rule:nonzero;stroke:none"/><path id="path72" d="m 31,9 -6,0 0,3 6,0 0,-3 z" style="fill:#fff;fill-opacity:1;fill-rule:nonzero;stroke:none"/><path id="path74" d="M 7,9 5,9 5,12 7,12 7,9 z" style="fill:#dd2e44;fill-opacity:1;fill-rule:nonzero;stroke:none"/><path id="path76" d="m 33,9 -2,0 0,3 2,0 0,-3 z" style="fill:#dd2e44;fill-opacity:1;fill-rule:nonzero;stroke:none"/><path id="path78" d="m 23,9 -8,0 0,3 8,0 0,-3 z" style="fill:#66757f;fill-opacity:1;fill-rule:nonzero;stroke:none"/><g id="g80" transform="translate(23,33.5)"><path id="path82" d="m 0,0 c 0,-0.829 -0.672,-1.5 -1.5,-1.5 l -5,0 c -0.829,0 -1.5,0.671 -1.5,1.5 0,0.829 0.671,1.5 1.5,1.5 l 5,0 C -0.672,1.5 0,0.829 0,0" style="fill:#292f33;fill-opacity:1;fill-rule:nonzero;stroke:none"/></g></g></g></g></svg>