<svg xmlns="http://www.w3.org/2000/svg" xmlns:svg="http://www.w3.org/2000/svg" style="enable-background:new 0 0 47.5 47.5" id="svg2" version="1.1" viewBox="0 0 47.5 47.5" xml:space="preserve"><defs id="defs6"><clipPath id="clipPath18"><path id="path20" d="M 0,38 38,38 38,0 0,0 0,38 z"/></clipPath></defs><g id="g12" transform="matrix(1.25,0,0,-1.25,0,47.5)"><g id="g14"><g id="g16" clip-path="url(#clipPath18)"><g id="g22" transform="translate(36,32)"><path id="path24" d="m 0,0 -2,0 -2,0 -2,0 -2,0 -2,0 -2,0 -2,0 -2,0 -2,0 -2,0 -2,0 c -0.552,0 -1,-0.448 -1,-1 0,-0.552 0.448,-1 1,-1 l 2,0 0,-2 2,0 0,2 2,0 0,-2 2,0 0,2 2,0 0,-2 2,0 0,2 2,0 0,-2 2,0 0,2 2,0 0,-2 2,0 0,2 2,0 c 0.553,0 1,0.448 1,1 0,0.552 -0.447,1 -1,1" style="fill:#ccd6dd;fill-opacity:1;fill-rule:nonzero;stroke:none"/></g><g id="g26" transform="translate(37,27)"><path id="path28" d="m 0,0 c 0,-0.552 -0.447,-1 -1,-1 l -22,0 c -0.552,0 -1,0.448 -1,1 0,0.552 0.448,1 1,1 L -1,1 C -0.447,1 0,0.552 0,0" style="fill:#ccd6dd;fill-opacity:1;fill-rule:nonzero;stroke:none"/></g><g id="g30" transform="translate(33,26)"><path id="path32" d="m 0,0 -10,0 -8,0 c 0,0 0.041,2 -2.979,2 l -5.875,0 C -32,2 -32,-5.959 -32,-5.959 L -32,-13 c 0,-2.209 1.791,-4 4,-4 l 28,0 c 2.209,0 4,1.791 4,4 l 0,9 C 4,-1.791 2.209,0 0,0" style="fill:#dd2e44;fill-opacity:1;fill-rule:nonzero;stroke:none"/></g><path id="path34" d="m 35,18 -32,0 0,-3 32,0 0,3 z" style="fill:#f5f8fa;fill-opacity:1;fill-rule:nonzero;stroke:none"/><g id="g36" transform="translate(12,9)"><path id="path38" d="m 0,0 c 0,-2.209 -1.791,-4 -4,-4 -2.209,0 -4,1.791 -4,4 0,2.209 1.791,4 4,4 2.209,0 4,-1.791 4,-4" style="fill:#000;fill-opacity:1;fill-rule:nonzero;stroke:none"/></g><g id="g40" transform="translate(10,9)"><path id="path42" d="m 0,0 c 0,-1.104 -0.896,-2 -2,-2 -1.104,0 -2,0.896 -2,2 0,1.104 0.896,2 2,2 1.104,0 2,-0.896 2,-2" style="fill:#8899a6;fill-opacity:1;fill-rule:nonzero;stroke:none"/></g><g id="g44" transform="translate(33,9)"><path id="path46" d="m 0,0 c 0,-2.209 -1.791,-4 -4,-4 -2.209,0 -4,1.791 -4,4 0,2.209 1.791,4 4,4 2.209,0 4,-1.791 4,-4" style="fill:#000;fill-opacity:1;fill-rule:nonzero;stroke:none"/></g><g id="g48" transform="translate(31,9)"><path id="path50" d="m 0,0 c 0,-1.104 -0.896,-2 -2,-2 -1.104,0 -2,0.896 -2,2 0,1.104 0.896,2 2,2 1.104,0 2,-0.896 2,-2" style="fill:#8899a6;fill-opacity:1;fill-rule:nonzero;stroke:none"/></g><g id="g52" transform="translate(8,20)"><path id="path54" d="m 0,0 -5,0 c 0,0 0,6 3,6 L 0,6 0,0 z" style="fill:#55acee;fill-opacity:1;fill-rule:nonzero;stroke:none"/></g><g id="g56" transform="translate(13,20)"><path id="path58" d="m 0,0 -3,0 0,6 1,0 C -1,6 0,5 0,4 L 0,0 z" style="fill:#55acee;fill-opacity:1;fill-rule:nonzero;stroke:none"/></g><g id="g60" transform="translate(9,29)"><path id="path62" d="m 0,0 c 0,-0.552 -0.448,-1 -1,-1 l -2,0 c -0.552,0 -1,0.448 -1,1 0,0.552 0.448,1 1,1 l 2,0 C -0.448,1 0,0.552 0,0" style="fill:#ffac33;fill-opacity:1;fill-rule:nonzero;stroke:none"/></g><g id="g64" transform="translate(11,29)"><path id="path66" d="m 0,0 c 0,-0.552 -0.448,-1 -1,-1 l -2,0 c -0.552,0 -1,0.448 -1,1 0,0.552 0.448,1 1,1 l 2,0 C -0.448,1 0,0.552 0,0" style="fill:#3b88c3;fill-opacity:1;fill-rule:nonzero;stroke:none"/></g></g></g></g></svg>