<svg xmlns="http://www.w3.org/2000/svg" xmlns:svg="http://www.w3.org/2000/svg" style="enable-background:new 0 0 47.5 47.5" id="svg2" version="1.1" viewBox="0 0 47.5 47.5" xml:space="preserve"><defs id="defs6"><clipPath id="clipPath18"><path id="path20" d="M 0,38 38,38 38,0 0,0 0,38 z"/></clipPath></defs><g id="g12" transform="matrix(1.25,0,0,-1.25,0,47.5)"><g id="g14"><g id="g16" clip-path="url(#clipPath18)"><g id="g22" transform="translate(31,21)"><path id="path24" d="m 0,0 c 0,-1.104 -0.896,-2 -2,-2 l -10,0 c -1.104,0 -2,0.896 -2,2 l 0,2 c 0,1.104 0.896,2 2,2 L -2,4 C -0.896,4 0,3.104 0,2 L 0,0 z" style="fill:#58595b;fill-opacity:1;fill-rule:nonzero;stroke:none"/></g><g id="g26" transform="translate(5,23)"><path id="path28" d="m 0,0 c -2.209,0 -4,-1.791 -4,-4 l 0,-10 c 0,-4.418 3.582,-8 8,-8 l 28,0 0,22 -32,0 z" style="fill:#f4900c;fill-opacity:1;fill-rule:nonzero;stroke:none"/></g><g id="g30" transform="translate(1.5869,6)"><path id="path32" d="m 0,0 35.413,0 0,2 -35.931,0 C -0.431,1.302 -0.255,0.631 0,0" style="fill:#ffd983;fill-opacity:1;fill-rule:nonzero;stroke:none"/></g><path id="path34" d="m 37,29 -36,0 0,6 36,0 0,-6 z" style="fill:#808285;fill-opacity:1;fill-rule:nonzero;stroke:none"/><path id="path36" d="m 37,31 -36,0 0,2 36,0 0,-2 z" style="fill:#414042;fill-opacity:1;fill-rule:nonzero;stroke:none"/><g id="g38" transform="translate(29,37)"><path id="path40" d="m 0,0 -10,0 c -1.657,0 -3,-1.343 -3,-3 0,-1.657 1.343,-3 3,-3 l 3,0 0,-4 -2,-2 8,0 -2,2 0,4 3,0 c 1.657,0 3,1.343 3,3 0,1.657 -1.343,3 -3,3" style="fill:#a7a9ac;fill-opacity:1;fill-rule:nonzero;stroke:none"/></g><path id="path42" d="M 15,8 37,8 37,23 15,23 15,8 z" style="fill:#3b88c3;fill-opacity:1;fill-rule:nonzero;stroke:none"/><g id="g44" transform="translate(13,12)"><path id="path46" d="m 0,0 c 0,-1.104 -0.896,-2 -2,-2 l -4,0 c -1.104,0 -2,0.896 -2,2 l 0,6 c 0,1.104 0.896,2 2,2 l 4,0 C -0.896,8 0,7.104 0,6 L 0,0 z" style="fill:#58595b;fill-opacity:1;fill-rule:nonzero;stroke:none"/></g><g id="g48" transform="translate(25,14)"><path id="path50" d="m 0,0 c 0,-1.104 -0.896,-2 -2,-2 l -4,0 c -1.104,0 -2,0.896 -2,2 l 0,4 c 0,1.104 0.896,2 2,2 l 4,0 C -0.896,6 0,5.104 0,4 L 0,0 z" style="fill:#414042;fill-opacity:1;fill-rule:nonzero;stroke:none"/></g><g id="g52" transform="translate(35,14)"><path id="path54" d="m 0,0 c 0,-1.104 -0.896,-2 -2,-2 l -4,0 c -1.104,0 -2,0.896 -2,2 l 0,4 c 0,1.104 0.896,2 2,2 l 4,0 C -0.896,6 0,5.104 0,4 L 0,0 z" style="fill:#414042;fill-opacity:1;fill-rule:nonzero;stroke:none"/></g><g id="g56" transform="translate(1,20)"><path id="path58" d="m 0,0 0,-10 c 1.104,0 2,0.896 2,2 l 0,6 C 2,-0.896 1.104,0 0,0" style="fill:#58595b;fill-opacity:1;fill-rule:nonzero;stroke:none"/></g></g></g></g></svg>