<svg xmlns="http://www.w3.org/2000/svg" xmlns:svg="http://www.w3.org/2000/svg" style="enable-background:new 0 0 47.5 47.5" id="svg2" version="1.1" viewBox="0 0 47.5 47.5" xml:space="preserve"><defs id="defs6"><clipPath id="clipPath18"><path id="path20" d="M 0,38 38,38 38,0 0,0 0,38 z"/></clipPath></defs><g id="g12" transform="matrix(1.25,0,0,-1.25,0,47.5)"><g id="g14"><g id="g16" clip-path="url(#clipPath18)"><g id="g22" transform="translate(7,12)"><path id="path24" d="m 0,0 c -2.2,0 -4.362,-2.17 -4,0 l 2.342,16.054 C -1.296,18.225 0.8,20 3,20 l 18,0 c 2.2,0 4.296,-1.775 4.657,-3.946 L 28,0 c 0.361,-2.17 -1.8,0 -4,0 L 0,0 z" style="fill:#dd2e44;fill-opacity:1;fill-rule:nonzero;stroke:none"/></g><g id="g26" transform="translate(7.3213,27.7656)"><path id="path28" d="m 0,0 c 0.196,1.171 1.45,2.234 2.679,2.234 l 9,0 0,-21 -12,0 c -0.615,0 -2.472,-3.854 -3,-4 L 0,0 z" style="fill:#ea596e;fill-opacity:1;fill-rule:nonzero;stroke:none"/></g><g id="g30" transform="translate(3,4)"><path id="path32" d="m 0,0 c 0,0 -2,0 -2,2 0,1 1,6 1,6 L 33,8 C 33,8 34,3 34,2 34,0 32,0 32,0" style="fill:#99aab5;fill-opacity:1;fill-rule:nonzero;stroke:none"/></g></g></g></g></svg>