<svg xmlns="http://www.w3.org/2000/svg" xmlns:svg="http://www.w3.org/2000/svg" style="enable-background:new 0 0 47.5 47.5" id="svg2" version="1.1" viewBox="0 0 47.5 47.5" xml:space="preserve"><defs id="defs6"><clipPath id="clipPath18"><path id="path20" d="M 0,38 38,38 38,0 0,0 0,38 z"/></clipPath><clipPath id="clipPath30"><path id="path32" d="M 9,34 5,34 C 2.791,34 1,32.209 1,30 l 0,0 0,-8 c 0,-2.209 1.791,-4 4,-4 l 0,0 28,0 c 2.209,0 4,1.791 4,4 l 0,0 0,8 c 0,2.209 -1.791,4 -4,4 l 0,0 -24,0 z"/></clipPath><clipPath id="clipPath58"><path id="path60" d="M 0,38 38,38 38,0 0,0 0,38 z"/></clipPath></defs><g id="g12" transform="matrix(1.25,0,0,-1.25,0,47.5)"><g id="g14"><g id="g16" clip-path="url(#clipPath18)"><g id="g22" transform="translate(37,22)"><path id="path24" d="m 0,0 c 0,-2.209 -1.791,-4 -4,-4 l -28,0 c -2.209,0 -4,1.791 -4,4 l 0,8 c 0,2.209 1.791,4 4,4 l 4,0 24,0 c 2.209,0 4,-1.791 4,-4 L 0,0 z" style="fill:#ffcc4d;fill-opacity:1;fill-rule:nonzero;stroke:none"/></g></g></g><g id="g26"><g id="g28" clip-path="url(#clipPath30)"><g id="g34" transform="translate(3,35)"><path id="path36" d="m 0,0 -18,-18 5,0 L 5,0 0,0 z" style="fill:#292f33;fill-opacity:1;fill-rule:nonzero;stroke:none"/></g><g id="g38" transform="translate(14,35)"><path id="path40" d="m 0,0 -18,-18 5,0 L 5,0 0,0 z" style="fill:#292f33;fill-opacity:1;fill-rule:nonzero;stroke:none"/></g><g id="g42" transform="translate(25,35)"><path id="path44" d="m 0,0 -18,-18 5,0 L 5,0 0,0 z" style="fill:#292f33;fill-opacity:1;fill-rule:nonzero;stroke:none"/></g><g id="g46" transform="translate(36,35)"><path id="path48" d="m 0,0 -18,-18 5,0 L 5,0 0,0 z" style="fill:#292f33;fill-opacity:1;fill-rule:nonzero;stroke:none"/></g><g id="g50" transform="translate(47,35)"><path id="path52" d="m 0,0 -18,-18 5,0 L 5,0 0,0 z" style="fill:#292f33;fill-opacity:1;fill-rule:nonzero;stroke:none"/></g></g></g><g id="g54"><g id="g56" clip-path="url(#clipPath58)"><path id="path62" d="M 10,4 5,4 5,18 10,18 10,4 z" style="fill:#99aab5;fill-opacity:1;fill-rule:nonzero;stroke:none"/><path id="path64" d="m 33,4 -5,0 0,14 5,0 0,-14 z" style="fill:#99aab5;fill-opacity:1;fill-rule:nonzero;stroke:none"/></g></g></g></svg>