<svg xmlns="http://www.w3.org/2000/svg" xmlns:svg="http://www.w3.org/2000/svg" style="enable-background:new 0 0 47.5 47.5" id="svg2" version="1.1" viewBox="0 0 47.5 47.5" xml:space="preserve"><defs id="defs6"><clipPath id="clipPath18"><path id="path20" d="M 0,38 38,38 38,0 0,0 0,38 z"/></clipPath></defs><g id="g12" transform="matrix(1.25,0,0,-1.25,0,47.5)"><g id="g14"><g id="g16" clip-path="url(#clipPath18)"><g id="g22" transform="translate(1,33)"><path id="path24" d="m 0,0 c 0,4 4,4 4,4 l 28,0 c 0,0 4,0 4,-4 l 0,-28 c 0,0 0,-4 -4,-4 l -28,0 c 0,0 -4,0 -4,4 L 0,0 z" style="fill:#99aab5;fill-opacity:1;fill-rule:nonzero;stroke:none"/></g><g id="g26" transform="translate(27,29.5)"><path id="path28" d="m 0,0 c 0,-1.933 -1.344,-3.5 -3,-3.5 -1.656,0 -3,1.567 -3,3.5 0,1.933 1.344,3.5 3,3.5 1.656,0 3,-1.567 3,-3.5" style="fill:#fff;fill-opacity:1;fill-rule:nonzero;stroke:none"/></g><g id="g30" transform="translate(30,24)"><path id="path32" d="m 0,0 c 0,0 0,2 -2,2 l -7,0 c -1,0 -2,-1 -2,-1 l -2,-2 -4,0 c 0,0 -1,0 -1,-1 0,-1 1,-1 1,-1 l 3,0 2,0 2,2 0,-17 c 0,0 0,-1 1,-1 l 1,0 c 0,0 1,0 1,1 l 0,8 c 0,0 0,1 1,1 1,0 1,-1 1,-1 l 0,-8 c 0,0 0,-1 1,-1 l 1,0 c 0,0 1,0 1,1 l 0,9 c 0,0 2,0 2,2 l 0,7 z" style="fill:#fff;fill-opacity:1;fill-rule:nonzero;stroke:none"/></g><g id="g34" transform="translate(7,15)"><path id="path36" d="m 0,0 c 0,0 -1,0 -1,1 0,1 1,1 1,1 0,0 2,0 2,-2 l 0,-8 6,0 0,8 c 0,2 2,2 2,2 0,0 1,0 1,-1 0,-1 -1,-1 -1,-1 l 0,-8 c 0,0 0,-2 -2,-2 l -6,0 c 0,0 -2,0 -2,2 l 0,8 z" style="fill:#fff;fill-opacity:1;fill-rule:nonzero;stroke:none"/></g><g id="g38" transform="translate(14,17)"><path id="path40" d="m 0,0 c 0,-1.104 -0.896,-2 -2,-2 -1.104,0 -2,0.896 -2,2 0,1.104 0.896,2 2,2 1.104,0 2,-0.896 2,-2" style="fill:#fff;fill-opacity:1;fill-rule:nonzero;stroke:none"/></g></g></g></g></svg>