<svg xmlns="http://www.w3.org/2000/svg" xmlns:svg="http://www.w3.org/2000/svg" style="enable-background:new 0 0 47.5 47.5" id="svg2" version="1.1" viewBox="0 0 47.5 47.5" xml:space="preserve"><defs id="defs6"><clipPath id="clipPath18"><path id="path20" d="M 0,38 38,38 38,0 0,0 0,38 z"/></clipPath></defs><g id="g12" transform="matrix(1.25,0,0,-1.25,0,47.5)"><g id="g14"><g id="g16" clip-path="url(#clipPath18)"><g id="g22" transform="translate(37,5)"><path id="path24" d="m 0,0 c 0,-2.209 -1.791,-4 -4,-4 l -28,0 c -2.209,0 -4,1.791 -4,4 l 0,28 c 0,2.209 1.791,4 4,4 l 28,0 c 2.209,0 4,-1.791 4,-4 L 0,0 z" style="fill:#269;fill-opacity:1;fill-rule:nonzero;stroke:none"/></g><g id="g26" transform="translate(30,29)"><path id="path28" d="m 0,0 -2,0 0,-18 2,0 c 1.104,0 2,0.896 2,2 L 2,-2 C 2,-0.896 1.104,0 0,0" style="fill:#f5f8fa;fill-opacity:1;fill-rule:nonzero;stroke:none"/></g><g id="g30" transform="translate(8,29)"><path id="path32" d="m 0,0 c -1.104,0 -2,-0.896 -2,-2 l 0,-14 c 0,-1.104 0.896,-2 2,-2 l 2,0 0,18 -2,0 z" style="fill:#f5f8fa;fill-opacity:1;fill-rule:nonzero;stroke:none"/></g><g id="g34" transform="translate(16,31)"><path id="path36" d="M 0,0 C 0,0.552 0.448,1 1,1 L 5,1 C 5.553,1 6,0.552 6,0 L 6,-2 0,-2 0,0 z M 8,-2 8,1 C 8,2.104 7.104,3 6,3 L 0,3 C -1.104,3 -2,2.104 -2,1 l 0,-3 -2,0 0,-18 14,0 0,18 -2,0 z" style="fill:#f5f8fa;fill-opacity:1;fill-rule:nonzero;stroke:none"/></g><g id="g38" transform="translate(34,9)"><path id="path40" d="m 0,0 -30,0 c -0.552,0 -1,-0.447 -1,-1 0,-0.553 0.448,-1 1,-1 l 1,0 c 0,-1.104 0.896,-2 2,-2 1.104,0 2,0.896 2,2 l 2,0 c 0,-1.104 0.896,-2 2,-2 1.104,0 2,0.896 2,2 l 2,0 c 0,-1.104 0.896,-2 2,-2 1.104,0 2,0.896 2,2 l 2,0 c 0,-1.104 0.896,-2 2,-2 1.104,0 2,0.896 2,2 l 2,0 c 0,-1.104 0.896,-2 2,-2 1.104,0 2,0.896 2,2 l 1,0 c 0.553,0 1,0.447 1,1 0,0.553 -0.447,1 -1,1" style="fill:#f5f8fa;fill-opacity:1;fill-rule:nonzero;stroke:none"/></g></g></g></g></svg>