<svg xmlns="http://www.w3.org/2000/svg" xmlns:svg="http://www.w3.org/2000/svg" style="enable-background:new 0 0 47.5 47.5" id="svg2" version="1.1" viewBox="0 0 47.5 47.5" xml:space="preserve"><defs id="defs6"><clipPath id="clipPath18"><path id="path20" d="M 0,38 38,38 38,0 0,0 0,38 z"/></clipPath></defs><g id="g12" transform="matrix(1.25,0,0,-1.25,0,47.5)"><g id="g14"><g id="g16" clip-path="url(#clipPath18)"><g id="g22" transform="translate(17,35)"><path id="path24" d="M 0,0 C 0,0 0,2 2,2 4,2 4,0 4,0 l 0,-2 c 0,0 0,-2 -2,-2 -2,0 -2,2 -2,2 l 0,2 z" style="fill:#ffac33;fill-opacity:1;fill-rule:nonzero;stroke:none"/></g><g id="g26" transform="translate(35,21)"><path id="path28" d="M 0,0 C 0,0 2,0 2,-2 2,-4 0,-4 0,-4 l -2,0 c 0,0 -2,0 -2,2 0,2 2,2 2,2 l 2,0 z" style="fill:#ffac33;fill-opacity:1;fill-rule:nonzero;stroke:none"/></g><g id="g30" transform="translate(5,21)"><path id="path32" d="M 0,0 C 0,0 2,0 2,-2 2,-4 0,-4 0,-4 l -2,0 c 0,0 -2,0 -2,2 0,2 2,2 2,2 l 2,0 z" style="fill:#ffac33;fill-opacity:1;fill-rule:nonzero;stroke:none"/></g><g id="g34" transform="translate(10.1211,29.7065)"><path id="path36" d="m 0,0 c 0,0 1.414,-1.414 0,-2.828 -1.414,-1.414 -2.828,0 -2.828,0 l -1.415,1.414 c 0,0 -1.414,1.414 0,2.829 1.415,1.414 2.829,0 2.829,0 L 0,0 z" style="fill:#ffac33;fill-opacity:1;fill-rule:nonzero;stroke:none"/></g><g id="g38" transform="translate(31.1211,8.707)"><path id="path40" d="m 0,0 c 0,0 1.414,-1.414 0,-2.828 -1.414,-1.414 -2.828,0 -2.828,0 l -1.414,1.414 c 0,0 -1.414,1.414 0,2.828 1.414,1.414 2.828,0 2.828,0 L 0,0 z" style="fill:#ffac33;fill-opacity:1;fill-rule:nonzero;stroke:none"/></g><g id="g42" transform="translate(30.708,26.8789)"><path id="path44" d="m 0,0 c 0,0 -1.414,-1.414 -2.828,0 -1.414,1.414 0,2.828 0,2.828 l 1.414,1.414 c 0,0 1.414,1.414 2.828,0 1.414,-1.414 0,-2.828 0,-2.828 L 0,0 z" style="fill:#ffac33;fill-opacity:1;fill-rule:nonzero;stroke:none"/></g><g id="g46" transform="translate(9.708,5.8789)"><path id="path48" d="m 0,0 c 0,0 -1.414,-1.414 -2.828,0 -1.414,1.414 0,2.828 0,2.828 l 1.414,1.414 c 0,0 1.414,1.414 2.828,0 1.414,-1.414 0,-2.828 0,-2.828 L 0,0 z" style="fill:#ffac33;fill-opacity:1;fill-rule:nonzero;stroke:none"/></g><g id="g50" transform="translate(17,5)"><path id="path52" d="M 0,0 C 0,0 0,2 2,2 4,2 4,0 4,0 l 0,-2 c 0,0 0,-2 -2,-2 -2,0 -2,2 -2,2 l 0,2 z" style="fill:#ffac33;fill-opacity:1;fill-rule:nonzero;stroke:none"/></g><g id="g54" transform="translate(29,19)"><path id="path56" d="m 0,0 c 0,5.523 -4.478,10 -10,10 -5.523,0 -10,-4.477 -10,-10 0,-5.522 4.477,-10 10,-10 5.522,0 10,4.478 10,10" style="fill:#ffac33;fill-opacity:1;fill-rule:nonzero;stroke:none"/></g></g></g></g></svg>