<svg xmlns="http://www.w3.org/2000/svg" xmlns:svg="http://www.w3.org/2000/svg" style="enable-background:new 0 0 47.5 47.5" id="svg2" version="1.1" viewBox="0 0 47.5 47.5" xml:space="preserve"><defs id="defs6"><clipPath id="clipPath18"><path id="path20" d="M 0,38 38,38 38,0 0,0 0,38 z"/></clipPath></defs><g id="g12" transform="matrix(1.25,0,0,-1.25,0,47.5)"><g id="g14"><g id="g16" clip-path="url(#clipPath18)"><g id="g22" transform="translate(37,5)"><path id="path24" d="m 0,0 c 0,-2.209 -1.791,-4 -4,-4 l -28,0 c -2.209,0 -4,1.791 -4,4 l 0,28 c 0,2.209 1.791,4 4,4 l 28,0 c 2.209,0 4,-1.791 4,-4 L 0,0 z" style="fill:#77b255;fill-opacity:1;fill-rule:nonzero;stroke:none"/></g><g id="g26" transform="translate(14.5,8)"><path id="path28" d="m 0,0 c -0.64,0 -1.28,0.244 -1.768,0.732 l -6.5,6.5 c -0.976,0.977 -0.976,2.559 0,3.536 0.976,0.976 2.56,0.976 3.536,0 L 0,6.035 13.732,19.768 c 0.977,0.976 2.559,0.976 3.536,0 0.976,-0.977 0.976,-2.559 0,-3.536 L 1.768,0.732 C 1.28,0.244 0.64,0 0,0" style="fill:#fff;fill-opacity:1;fill-rule:nonzero;stroke:none"/></g></g></g></g></svg>