<svg xmlns="http://www.w3.org/2000/svg" xmlns:svg="http://www.w3.org/2000/svg" style="enable-background:new 0 0 47.5 47.5" id="svg2" version="1.1" viewBox="0 0 47.5 47.5" xml:space="preserve"><defs id="defs6"><clipPath id="clipPath18"><path id="path20" d="M 0,38 38,38 38,0 0,0 0,38 z"/></clipPath></defs><g id="g12" transform="matrix(1.25,0,0,-1.25,0,47.5)"><g id="g14"><g id="g16" clip-path="url(#clipPath18)"><g id="g22" transform="translate(32,22)"><path id="path24" d="m 0,0 -10,0 0,10 c 0,1.657 -1.343,3 -3,3 -1.657,0 -3,-1.343 -3,-3 l 0,-10 -10,0 c -1.657,0 -3,-1.343 -3,-3 0,-1.657 1.343,-3 3,-3 l 10,0 0,-10 c 0,-1.657 1.343,-3 3,-3 1.657,0 3,1.343 3,3 l 0,10 10,0 c 1.657,0 3,1.343 3,3 0,1.657 -1.343,3 -3,3" style="fill:#000;fill-opacity:1;fill-rule:nonzero;stroke:none"/></g></g></g></g></svg>