<svg xmlns="http://www.w3.org/2000/svg" xmlns:svg="http://www.w3.org/2000/svg" style="enable-background:new 0 0 47.5 47.5" id="svg2" version="1.1" viewBox="0 0 47.5 47.5" xml:space="preserve"><defs id="defs6"><clipPath id="clipPath18"><path id="path20" d="M 0,38 38,38 38,0 0,0 0,38 z"/></clipPath></defs><g id="g12" transform="matrix(1.25,0,0,-1.25,0,47.5)"><g id="g14"><g id="g16" clip-path="url(#clipPath18)"><g id="g22" transform="translate(37,5)"><path id="path24" d="m 0,0 c 0,-2.209 -1.791,-4 -4,-4 l -28,0 c -2.209,0 -4,1.791 -4,4 l 0,28 c 0,2.209 1.791,4 4,4 l 28,0 c 2.209,0 4,-1.791 4,-4 L 0,0 z" style="fill:#3b88c3;fill-opacity:1;fill-rule:nonzero;stroke:none"/></g><g id="g26" transform="translate(17.4619,25.8247)"><path id="path28" d="m 0,0 -1.829,0 c -1.488,0 -2.109,1.085 -2.109,2.139 0,1.086 0.775,2.14 2.109,2.14 l 4.402,0 c 1.334,0 2.078,-0.961 2.078,-2.201 l 0,-17.643 c 0,-1.551 -0.992,-2.418 -2.326,-2.418 -1.333,0 -2.325,0.867 -2.325,2.418 L 0,0 z" style="fill:#fff;fill-opacity:1;fill-rule:nonzero;stroke:none"/></g></g></g></g></svg>