<svg xmlns="http://www.w3.org/2000/svg" xmlns:svg="http://www.w3.org/2000/svg" id="Layer_1" width="25" height="23" version="1.1" viewBox="0 0 25 23" xml:space="preserve"><metadata id="metadata9"/><path id="path3" d="m 19.546776,-0.03791866 c 0,0 -0.585151,-0.1170302 -0.819211,0.58515098 L 16.621021,5.4625006 c 0,0 -0.35109,0.7021812 0.234061,1.4043624 l 1.521392,1.9895133 c 0,0 0.585151,0.4681208 0.11703,1.1703017 -0.46812,0.585151 -2.691694,4.681208 -8.426174,7.255873 0,0 -0.702181,0.46812 -1.287332,-0.234061 C 8.3118772,16.346309 6.6734545,13.771645 5.6201827,14.239765 L 0.35382383,16.6974 c 0,0 -0.46812079,0 -0.35109059,0.936241 0.1170302,0.936242 0,5.266359 6.20260046,5.266359 7.3729023,0 18.6078013,-10.649748 18.6078013,-17.3204692 0,0 0,-5.61744946 -3.510906,-5.61744946 h -1.755453 z" style="fill:#fff"/></svg>