<svg xmlns="http://www.w3.org/2000/svg" xmlns:svg="http://www.w3.org/2000/svg" id="Layer_1" width="17" height="17" version="1.1" viewBox="0 0 17 17" xml:space="preserve"><metadata id="metadata15"/><g id="g3" transform="matrix(1.6827488,0,0,1.654661,0,0.02245763)"><path id="path5" d="M 3.4,1.5 C 3.4,2.3 2.7,3 1.9,3 1.1,3 0.4,2.3 0.4,1.5 0.4,0.7 1.1,0 1.9,0 2.7,0 3.4,0.7 3.4,1.5 z m 6,0 C 9.4,2.3 8.7,3 7.9,3 7.1,3 6.4,2.3 6.4,1.5 6.4,0.7 7.1,0 7.9,0 8.7,0 9.4,0.7 9.4,1.5 z" style="fill:#fff"/><g id="g7"><path id="path9" d="M 0.7,6.6 C 0.7,6.6 0.8,6.7 1,6.9 1.2,7.1 1.5,7.4 1.8,7.7 2.2,8 2.7,8.2 3.2,8.4 3.5,8.5 3.8,8.5 4.1,8.6 4.3,8.7 4.7,8.7 5,8.7 5.4,8.7 5.7,8.7 6,8.6 6.3,8.6 6.6,8.5 6.9,8.4 7.4,8.2 7.9,8 8.3,7.7 9.1,7.1 9.4,6.5 9.4,6.6 l 0.7,0.2 c 0,0 0,0.2 -0.2,0.5 C 9.6,7.7 9.4,8.2 9,8.6 8.8,8.9 8.5,9.1 8.3,9.3 8,9.5 7.6,9.7 7.3,9.8 6.9,9.9 6.6,10.1 6.2,10.1 5.8,10.2 5.4,10.2 5.1,10.2 4.6,10.2 4.3,10.2 3.9,10.1 3.4,10.1 3,10 2.7,9.8 2.3,9.7 2,9.5 1.7,9.3 1.4,9.1 1.2,8.9 1,8.6 0.2,7.7 0,6.9 0,6.9 L 0.7,6.6 z" style="fill:#fff"/></g></g></svg>